<svg width="227" height="303" viewBox="0 0 227 303" fill="none" xmlns="http://www.w3.org/2000/svg">
<path fill-rule="evenodd" clip-rule="evenodd" d="M37.75 266.309C34.1992 262.166 27.0977 265.125 27.0977 271.043C27.0977 276.369 34.1992 279.328 37.75 275.186C40.709 272.818 40.709 268.676 37.75 266.309ZM174.455 186.416C192.209 204.17 222.391 191.15 222.391 166.295V21.8965C224.758 20.7129 226.533 17.7539 226.533 14.7949C226.533 10.6523 223.574 7.10156 218.84 7.10156H169.129C164.986 7.10156 161.436 10.6523 161.436 14.7949C161.436 17.7539 163.211 20.7129 166.17 21.8965V166.295C166.17 173.988 169.129 181.09 174.455 186.416ZM206.412 168.07C199.311 175.172 188.658 164.52 195.76 157.418C202.27 150.908 212.922 160.969 206.412 168.07ZM196.352 140.848C189.25 147.949 178.598 137.297 185.699 130.195C186.883 129.012 189.25 127.828 191.025 127.828C197.535 127.828 201.086 136.113 196.352 140.848ZM191.025 105.932C185.107 109.482 179.189 110.666 173.272 108.891V22.4883H215.289V101.789C207.596 100.605 198.719 101.789 191.025 105.932ZM203.453 160.377C202.27 158.602 199.902 158.602 198.127 160.377C194.576 163.928 199.902 169.254 203.453 165.703C205.229 163.928 205.229 161.561 203.453 160.377ZM188.066 132.562C184.516 136.113 190.434 142.031 193.984 138.48C197.535 134.338 192.209 129.012 188.066 132.562ZM137.172 249.738C137.172 255.656 144.273 258.615 148.416 254.473C150.783 252.105 150.783 247.963 148.416 245.596C144.273 241.453 137.172 244.412 137.172 249.738ZM164.986 271.043C160.844 266.9 154.334 269.859 154.334 275.777C154.334 281.104 160.844 284.062 164.986 279.92C167.354 277.553 167.354 273.41 164.986 271.043ZM115.275 272.818C111.133 268.676 104.031 271.635 104.031 276.961C104.031 282.879 111.133 285.838 115.275 281.695C117.643 279.328 117.643 275.186 115.275 272.818ZM99.2969 242.045C99.2969 247.371 105.807 250.33 109.949 246.188C112.316 243.82 112.316 239.678 109.949 237.311C105.807 233.168 99.2969 236.127 99.2969 242.045ZM94.5625 223.107C97.5215 220.74 97.5215 216.598 94.5625 213.639C90.42 210.088 83.9102 212.455 83.9102 218.373C83.9102 224.291 90.42 227.25 94.5625 223.107ZM80.3594 260.391C76.2168 256.248 69.7071 259.207 69.7071 264.533C69.7071 270.451 76.2168 273.41 80.3594 269.268C82.7266 266.9 82.7266 262.758 80.3594 260.391ZM56.0957 231.984C58.4629 229.617 58.4629 225.475 56.0957 222.516C51.9532 218.965 45.4434 221.924 45.4434 227.25C45.4434 233.168 51.9532 236.127 56.0957 231.984ZM140.131 215.414C135.988 211.271 128.887 214.23 128.887 219.557C128.887 225.475 135.988 228.434 140.131 224.291C142.498 221.924 142.498 217.781 140.131 215.414ZM143.682 239.678C156.701 239.678 156.701 259.799 143.682 259.799C130.662 259.799 130.662 239.678 143.682 239.678ZM140.723 164.52C124.152 162.152 106.99 165.703 90.42 175.172C75.625 183.457 61.4219 186.416 47.2188 182.865C49.586 178.131 69.1153 138.48 69.1153 136.705V50.3027H127.111L128.295 136.705C128.295 138.48 139.539 160.969 140.723 164.52ZM139.539 28.4062H57.8711C56.0957 28.4062 54.3203 30.1816 54.3203 31.957V46.752C54.3203 48.5273 56.0957 50.3027 57.8711 50.3027H62.0137V136.113L2.24222 260.391C-7.81833 282.287 20.5879 303 43.0762 303H154.334C176.822 303 205.229 282.287 194.576 260.391L135.397 136.113L134.213 50.3027H139.539C141.314 50.3027 143.09 48.5273 143.09 46.752V31.957C143.09 30.1816 141.314 28.4062 139.539 28.4062ZM76.2168 255.064C89.2364 255.064 89.2364 274.594 76.2168 274.594C62.6055 274.594 62.6055 255.064 76.2168 255.064ZM90.42 208.312C103.439 208.312 103.439 228.434 90.42 228.434C76.8086 228.434 76.8086 208.312 90.42 208.312ZM105.807 231.984C118.826 231.984 118.826 252.105 105.807 252.105C92.1954 252.105 92.7871 231.984 105.807 231.984ZM110.541 267.492C123.561 267.492 123.561 287.021 110.541 287.021C97.5215 287.021 97.5215 267.492 110.541 267.492ZM51.3614 217.189C60.2383 217.189 64.9727 227.842 58.4629 234.352C49.586 243.82 35.3828 229.617 44.8516 220.148C46.627 218.373 48.9942 217.189 51.3614 217.189ZM33.6075 260.982C46.627 260.982 46.627 281.104 33.6075 281.104C20.5879 281.104 20.5879 260.982 33.6075 260.982ZM142.498 212.455C151.967 221.924 137.764 236.127 128.295 226.658C118.826 217.189 133.621 203.578 142.498 212.455ZM160.844 265.717C163.211 265.717 165.578 266.9 167.945 268.676C176.822 277.553 162.619 291.756 153.742 282.287C147.232 276.369 151.967 265.717 160.844 265.717ZM57.8711 24.8555H139.539H140.131L144.273 4.14258C144.865 2.36719 143.682 0.591797 141.314 0C141.314 0 141.314 0 140.723 0H55.5039C53.7285 0 51.9532 1.77539 51.9532 3.55078V4.14258L56.0957 25.4473C56.6875 24.8555 57.2793 24.8555 57.8711 24.8555Z" fill="url(#paint0_linear_20_2112)"/>
<defs>
<linearGradient id="paint0_linear_20_2112" x1="90.3732" y1="2.88205" x2="136.626" y2="300.118" gradientUnits="userSpaceOnUse">
<stop stop-color="#1E8AC6"/>
<stop offset="0.302" stop-color="#834FBC"/>
<stop offset="1" stop-color="#E813B1"/>
</linearGradient>
</defs>
</svg>
