<svg width="64" height="64" viewBox="0 0 64 64" fill="none" xmlns="http://www.w3.org/2000/svg">
<path fill-rule="evenodd" clip-rule="evenodd" d="M24.112 8.172L25.468 1.926C25.5539 1.53082 25.7575 1.17097 26.0521 0.893897C26.3467 0.616824 26.7183 0.435547 27.118 0.373999C30.3536 -0.124015 33.6464 -0.124015 36.882 0.373999C37.2817 0.435547 37.6533 0.616824 37.9479 0.893897C38.2425 1.17097 38.4461 1.53082 38.532 1.926L39.888 8.172C41.048 8.556 42.18 9.02401 43.27 9.57401L48.648 6.116C48.988 5.89787 49.3861 5.7878 49.7899 5.8003C50.1936 5.81279 50.5841 5.94727 50.91 6.18601C53.5517 8.11973 55.8803 10.4483 57.814 13.09C58.0527 13.4159 58.1872 13.8064 58.1997 14.2102C58.2122 14.6139 58.1021 15.012 57.884 15.352L54.426 20.73C54.976 21.82 55.444 22.952 55.828 24.112L62.074 25.468C62.4692 25.5539 62.829 25.7575 63.1061 26.0521C63.3832 26.3467 63.5645 26.7183 63.626 27.118C64.124 30.3536 64.124 33.6464 63.626 36.882C63.5645 37.2817 63.3832 37.6533 63.1061 37.9479C62.829 38.2425 62.4692 38.4461 62.074 38.532L55.828 39.888C55.444 41.048 54.976 42.18 54.426 43.27L57.884 48.648C58.1021 48.988 58.2122 49.3861 58.1997 49.7899C58.1872 50.1936 58.0527 50.5841 57.814 50.91C55.8803 53.5517 53.5517 55.8803 50.91 57.814C50.5841 58.0527 50.1936 58.1872 49.7899 58.1997C49.3861 58.2122 48.988 58.1021 48.648 57.884L43.27 54.426C42.18 54.976 41.048 55.444 39.888 55.828L38.532 62.074C38.4461 62.4692 38.2425 62.829 37.9479 63.1061C37.6533 63.3832 37.2817 63.5645 36.882 63.626C33.6464 64.124 30.3536 64.124 27.118 63.626C26.7183 63.5645 26.3467 63.3832 26.0521 63.1061C25.7575 62.829 25.5539 62.4692 25.468 62.074L24.112 55.828C22.9517 55.4445 21.8213 54.9759 20.73 54.426L15.352 57.884C15.012 58.1021 14.6139 58.2122 14.2102 58.1997C13.8064 58.1872 13.4159 58.0527 13.09 57.814C10.4483 55.8803 8.11973 53.5517 6.18601 50.91C5.94727 50.5841 5.81279 50.1936 5.8003 49.7899C5.7878 49.3861 5.89787 48.988 6.116 48.648L9.57401 43.27C9.02411 42.1787 8.55549 41.0483 8.172 39.888L1.926 38.532C1.53082 38.4461 1.17097 38.2425 0.893897 37.9479C0.616824 37.6533 0.435547 37.2817 0.373999 36.882C-0.124015 33.6464 -0.124015 30.3536 0.373999 27.118C0.435547 26.7183 0.616824 26.3467 0.893897 26.0521C1.17097 25.7575 1.53082 25.5539 1.926 25.468L8.172 24.112C8.556 22.952 9.02401 21.82 9.57401 20.73L6.116 15.352C5.89787 15.012 5.7878 14.6139 5.8003 14.2102C5.81279 13.8064 5.94727 13.4159 6.18601 13.09C8.11973 10.4483 10.4483 8.11973 13.09 6.18601C13.4159 5.94727 13.8064 5.81279 14.2102 5.8003C14.6139 5.7878 15.012 5.89787 15.352 6.116L20.73 9.57401C21.8213 9.02411 22.9517 8.55549 24.112 8.172Z" fill="black"/>
<path d="M31.9974 49.9989C41.9385 49.9989 49.9973 41.9401 49.9973 31.999C49.9973 22.0579 41.9385 13.999 31.9974 13.999C22.0563 13.999 13.9974 22.0579 13.9974 31.999C13.9974 41.9401 22.0563 49.9989 31.9974 49.9989Z" fill="white"/>
<path fill-rule="evenodd" clip-rule="evenodd" d="M26 38V29.996C26 28.894 26.894 28 27.996 28H28.004C29.106 28 30 28.894 30 29.996V38C30 38.5304 30.2107 39.0391 30.5858 39.4142C30.9609 39.7893 31.4696 40 32 40C32.5304 40 33.0391 39.7893 33.4142 39.4142C33.7893 39.0391 34 38.5304 34 38V29.996C34 28.4058 33.3683 26.8807 32.2438 25.7562C31.1193 24.6317 29.5942 24 28.004 24H27.996C26.4058 24 24.8807 24.6317 23.7562 25.7562C22.6317 26.8807 22 28.4058 22 29.996V38C22 38.5304 22.2107 39.0391 22.5858 39.4142C22.9609 39.7893 23.4696 40 24 40C24.5304 40 25.0391 39.7893 25.4142 39.4142C25.7893 39.0391 26 38.5304 26 38Z" fill="black"/>
<path fill-rule="evenodd" clip-rule="evenodd" d="M24 36H32C32.5304 36 33.0391 35.7893 33.4142 35.4142C33.7893 35.0391 34 34.5304 34 34C34 33.4696 33.7893 32.9609 33.4142 32.5858C33.0391 32.2107 32.5304 32 32 32H24C23.4696 32 22.9609 32.2107 22.5858 32.5858C22.2107 32.9609 22 33.4696 22 34C22 34.5304 22.2107 35.0391 22.5858 35.4142C22.9609 35.7893 23.4696 36 24 36ZM38 26V38C38 38.5304 38.2107 39.0391 38.5858 39.4142C38.9609 39.7893 39.4696 40 40 40C40.5304 40 41.0391 39.7893 41.4142 39.4142C41.7893 39.0391 42 38.5304 42 38V26C42 25.4696 41.7893 24.9609 41.4142 24.5858C41.0391 24.2107 40.5304 24 40 24C39.4696 24 38.9609 24.2107 38.5858 24.5858C38.2107 24.9609 38 25.4696 38 26Z" fill="black"/>
</svg>
