<svg width="318" height="318" viewBox="0 0 318 318" fill="none" xmlns="http://www.w3.org/2000/svg">
<path d="M3.78571 286.768C5.87651 286.768 7.57143 285.073 7.57143 282.982C7.57143 280.891 5.87651 279.197 3.78571 279.197C1.69492 279.197 0 280.891 0 282.982C0 285.073 1.69492 286.768 3.78571 286.768Z" fill="#2D4356"/>
<path d="M20.8214 279.197H15.1428C14.1388 279.197 13.1759 279.595 12.4659 280.305C11.756 281.015 11.3571 281.978 11.3571 282.982C11.3571 283.986 11.756 284.949 12.4659 285.659C13.1759 286.369 14.1388 286.768 15.1428 286.768H20.8214C21.8254 286.768 22.7883 286.369 23.4983 285.659C24.2083 284.949 24.6071 283.986 24.6071 282.982C24.6071 281.978 24.2083 281.015 23.4983 280.305C22.7883 279.595 21.8254 279.197 20.8214 279.197Z" fill="#2D4356"/>
<path d="M223.649 294.339H207.923C206.969 294.413 206.079 294.844 205.43 295.546C204.78 296.248 204.419 297.169 204.419 298.125C204.419 299.081 204.78 300.002 205.43 300.704C206.079 301.406 206.969 301.837 207.923 301.911H223.649C224.602 301.837 225.492 301.406 226.142 300.704C226.791 300.002 227.152 299.081 227.152 298.125C227.152 297.169 226.791 296.248 226.142 295.546C225.492 294.844 224.602 294.413 223.649 294.339ZM110.077 294.339H94.3514C93.398 294.413 92.5076 294.844 91.8581 295.546C91.2086 296.248 90.8478 297.169 90.8478 298.125C90.8478 299.081 91.2086 300.002 91.8581 300.704C92.5076 301.406 93.398 301.837 94.3514 301.911H110.077C111.031 301.837 111.921 301.406 112.571 300.704C113.22 300.002 113.581 299.081 113.581 298.125C113.581 297.169 113.22 296.248 112.571 295.546C111.921 294.844 111.031 294.413 110.077 294.339ZM196.857 294.339H121.143C120.139 294.339 119.176 294.738 118.466 295.448C117.756 296.158 117.357 297.121 117.357 298.125C117.357 299.129 117.756 300.092 118.466 300.802C119.176 301.512 120.139 301.911 121.143 301.911H151.315V305.696H136.286C135.282 305.696 134.319 306.095 133.609 306.805C132.899 307.515 132.5 308.478 132.5 309.482C132.5 310.486 132.899 311.449 133.609 312.159C134.319 312.869 135.282 313.268 136.286 313.268H183.607C184.611 313.268 185.574 312.869 186.284 312.159C186.994 311.449 187.393 310.486 187.393 309.482C187.393 308.478 186.994 307.515 186.284 306.805C185.574 306.095 184.611 305.696 183.607 305.696H166.685V301.911H196.857C197.861 301.911 198.824 301.512 199.534 300.802C200.244 300.092 200.643 299.129 200.643 298.125C200.643 297.121 200.244 296.158 199.534 295.448C198.824 294.738 197.861 294.339 196.857 294.339Z" fill="#0BCEB2"/>
<path d="M111.679 98.0311V88.0179C111.68 87.3488 111.504 86.6913 111.168 86.1126C110.832 85.534 110.349 85.0549 109.767 84.7243L83.2668 69.5815C82.6903 69.2557 82.0386 69.0865 81.3764 69.0906C80.7143 69.0948 80.0648 69.2723 79.4925 69.6053C78.9202 69.9384 78.445 70.4154 78.1143 70.989C77.7835 71.5627 77.6087 72.2129 77.6071 72.8751V113.515L62.4643 101.344V70.4333C65.5143 69.5239 68.1351 67.5471 69.8474 64.8643C71.5598 62.1816 72.2492 58.972 71.7897 55.8227C71.3303 52.6734 69.7525 49.7946 67.3451 47.7129C64.9376 45.6312 61.8612 44.4856 58.6786 44.4856C55.4959 44.4856 52.4195 45.6312 50.0121 47.7129C47.6046 49.7946 46.0269 52.6734 45.5674 55.8227C45.1079 58.972 45.7974 62.1816 47.5097 64.8643C49.222 67.5471 51.8428 69.5239 54.8928 70.4333V103.161C54.8941 103.728 55.0223 104.287 55.268 104.798C55.5136 105.309 55.8705 105.759 56.3125 106.114L77.1339 122.828C77.2794 122.952 77.4381 123.06 77.6071 123.149V163.732C77.605 164.635 77.9275 165.508 78.5157 166.193L88.9643 178.383V209.71C85.9143 210.619 83.2935 212.596 81.5811 215.279C79.8688 217.961 79.1793 221.171 79.6388 224.32C80.0983 227.47 81.676 230.348 84.0835 232.43C86.491 234.512 89.5673 235.657 92.75 235.657C95.9327 235.657 99.009 234.512 101.416 232.43C103.824 230.348 105.402 227.47 105.861 224.32C106.321 221.171 105.631 217.961 103.919 215.279C102.207 212.596 99.5857 210.619 96.5357 209.71V176.982C96.5378 176.08 96.2153 175.206 95.6271 174.521L85.1786 162.331V79.4054L104.107 90.2136V98.0311C101.057 98.9405 98.4363 100.917 96.724 103.6C95.0116 106.283 94.3222 109.492 94.7817 112.642C95.2411 115.791 96.8189 118.67 99.2263 120.751C101.634 122.833 104.71 123.979 107.893 123.979C111.076 123.979 114.152 122.833 116.559 120.751C118.967 118.67 120.545 115.791 121.004 112.642C121.464 109.492 120.774 106.283 119.062 103.6C117.349 100.917 114.729 98.9405 111.679 98.0311ZM53 57.7322C53 56.6091 53.333 55.5112 53.957 54.5774C54.581 53.6435 55.4678 52.9157 56.5055 52.4859C57.5431 52.0561 58.6849 51.9436 59.7864 52.1627C60.8879 52.3818 61.8997 52.9227 62.6939 53.7168C63.4881 54.511 64.0289 55.5228 64.248 56.6244C64.4671 57.7259 64.3547 58.8677 63.9249 59.9053C63.4951 60.9429 62.7672 61.8298 61.8334 62.4538C60.8996 63.0777 59.8017 63.4108 58.6786 63.4108C57.9326 63.4118 57.1937 63.2656 56.5043 62.9805C55.8149 62.6955 55.1885 62.2773 54.661 61.7498C54.1335 61.2223 53.7152 60.5959 53.4302 59.9065C53.1452 59.2171 52.999 58.4782 53 57.7322ZM98.4286 222.411C98.4286 223.534 98.0955 224.632 97.4715 225.566C96.8476 226.499 95.9607 227.227 94.9231 227.657C93.8855 228.087 92.7437 228.199 91.6422 227.98C90.5406 227.761 89.5288 227.22 88.7346 226.426C87.9405 225.632 87.3996 224.62 87.1805 223.519C86.9614 222.417 87.0739 221.275 87.5037 220.238C87.9335 219.2 88.6613 218.313 89.5951 217.689C90.529 217.065 91.6269 216.732 92.75 216.732C93.496 216.731 94.2349 216.877 94.9243 217.162C95.6137 217.447 96.2401 217.866 96.7676 218.393C97.2951 218.921 97.7133 219.547 97.9983 220.236C98.2834 220.926 98.4296 221.665 98.4286 222.411ZM107.893 116.411C106.77 116.411 105.672 116.078 104.738 115.454C103.804 114.83 103.076 113.943 102.647 112.905C102.217 111.868 102.104 110.726 102.323 109.624C102.542 108.523 103.083 107.511 103.877 106.717C104.672 105.923 105.683 105.382 106.785 105.163C107.887 104.944 109.028 105.056 110.066 105.486C111.104 105.916 111.99 106.644 112.614 107.577C113.238 108.511 113.571 109.609 113.571 110.732C113.572 111.478 113.426 112.217 113.141 112.906C112.856 113.596 112.438 114.222 111.91 114.75C111.383 115.277 110.757 115.696 110.067 115.981C109.378 116.266 108.639 116.412 107.893 116.411Z" fill="#EFFEFF"/>
<path d="M146.526 100.492L132.5 86.4468V57.7321C132.5 56.7281 132.101 55.7652 131.391 55.0552C130.681 54.3453 129.718 53.9464 128.714 53.9464C127.71 53.9464 126.747 54.3453 126.037 55.0552C125.327 55.7652 124.929 56.7281 124.929 57.7321V88.0178C124.927 88.5147 125.025 89.0069 125.217 89.4653C125.409 89.9237 125.69 90.339 126.045 90.6868L140.071 104.732V160.268L111.679 188.661V161.29C114.729 160.381 117.349 158.404 119.062 155.721C120.774 153.039 121.464 149.829 121.004 146.68C120.545 143.53 118.967 140.652 116.559 138.57C114.152 136.488 111.076 135.343 107.893 135.343C104.71 135.343 101.634 136.488 99.2264 138.57C96.8189 140.652 95.2412 143.53 94.7817 146.68C94.3222 149.829 95.0117 153.039 96.724 155.721C98.4364 158.404 101.057 160.381 104.107 161.29V197.804C104.108 198.551 104.329 199.283 104.744 199.905C105.158 200.528 105.746 201.015 106.435 201.305C106.899 201.492 107.393 201.588 107.893 201.589C108.39 201.591 108.882 201.494 109.341 201.302C109.799 201.11 110.214 200.828 110.562 200.472L146.526 164.508C146.881 164.16 147.163 163.745 147.354 163.287C147.546 162.828 147.644 162.336 147.643 161.839V103.161C147.644 102.664 147.546 102.172 147.354 101.713C147.163 101.255 146.881 100.84 146.526 100.492ZM107.893 154.268C106.77 154.268 105.672 153.935 104.738 153.311C103.804 152.687 103.076 151.8 102.647 150.762C102.217 149.725 102.104 148.583 102.323 147.481C102.543 146.38 103.083 145.368 103.878 144.574C104.672 143.78 105.684 143.239 106.785 143.02C107.887 142.801 109.028 142.913 110.066 143.343C111.104 143.773 111.99 144.501 112.614 145.434C113.238 146.368 113.571 147.466 113.571 148.589C113.572 149.335 113.426 150.074 113.141 150.764C112.856 151.453 112.438 152.079 111.91 152.607C111.383 153.134 110.757 153.553 110.067 153.838C109.378 154.123 108.639 154.269 107.893 154.268ZM60.5714 183.21V157.505C63.6215 156.595 66.2423 154.618 67.9546 151.936C69.6669 149.253 70.3564 146.043 69.8969 142.894C69.4374 139.745 67.8597 136.866 65.4522 134.784C63.0448 132.703 59.9684 131.557 56.7857 131.557C53.6031 131.557 50.5267 132.703 48.1192 134.784C45.7118 136.866 44.134 139.745 43.6745 142.894C43.2151 146.043 43.9045 149.253 45.6169 151.936C47.3292 154.618 49.95 156.595 53 157.505V183.21C49.95 184.119 47.3292 186.096 45.6169 188.779C43.9045 191.461 43.2151 194.671 43.6745 197.82C44.134 200.97 45.7118 203.848 48.1192 205.93C50.5267 208.012 53.6031 209.157 56.7857 209.157C59.9684 209.157 63.0448 208.012 65.4522 205.93C67.8597 203.848 69.4374 200.97 69.8969 197.82C70.3564 194.671 69.6669 191.461 67.9546 188.779C66.2423 186.096 63.6215 184.119 60.5714 183.21ZM51.1072 144.804C51.1072 143.68 51.4402 142.583 52.0642 141.649C52.6881 140.715 53.575 139.987 54.6126 139.557C55.6503 139.127 56.792 139.015 57.8936 139.234C58.9951 139.453 60.0069 139.994 60.8011 140.788C61.5953 141.582 62.1361 142.594 62.3552 143.696C62.5743 144.797 62.4618 145.939 62.032 146.977C61.6023 148.014 60.8744 148.901 59.9406 149.525C59.0067 150.149 57.9089 150.482 56.7857 150.482C56.0397 150.483 55.3009 150.337 54.6115 150.052C53.9221 149.767 53.2957 149.349 52.7682 148.821C52.2407 148.294 51.8224 147.667 51.5374 146.978C51.2524 146.288 51.1062 145.55 51.1072 144.804ZM56.7857 201.589C55.6626 201.589 54.5647 201.256 53.6309 200.632C52.6971 200.008 51.9692 199.121 51.5394 198.084C51.1096 197.046 50.9972 195.904 51.2163 194.803C51.4354 193.701 51.9762 192.689 52.7704 191.895C53.5645 191.101 54.5764 190.56 55.6779 190.341C56.7794 190.122 57.9212 190.235 58.9588 190.664C59.9965 191.094 60.8833 191.822 61.5073 192.756C62.1313 193.69 62.4643 194.788 62.4643 195.911C62.4653 196.657 62.3191 197.396 62.0341 198.085C61.7491 198.774 61.3308 199.401 60.8033 199.928C60.2758 200.456 59.6494 200.874 58.96 201.159C58.2706 201.444 57.5317 201.59 56.7857 201.589Z" fill="#0BCEB2"/>
<path d="M302.857 279.197H297.179C296.175 279.197 295.212 279.595 294.502 280.305C293.792 281.015 293.393 281.978 293.393 282.982C293.393 283.986 293.792 284.949 294.502 285.659C295.212 286.369 296.175 286.768 297.179 286.768H302.857C303.861 286.768 304.824 286.369 305.534 285.659C306.244 284.949 306.643 283.986 306.643 282.982C306.643 281.978 306.244 281.015 305.534 280.305C304.824 279.595 303.861 279.197 302.857 279.197Z" fill="#2D4356"/>
<path d="M314.214 286.768C316.305 286.768 318 285.073 318 282.982C318 280.891 316.305 279.197 314.214 279.197C312.124 279.197 310.429 280.891 310.429 282.982C310.429 285.073 312.124 286.768 314.214 286.768Z" fill="#2D4356"/>
<path d="M285.291 279.196H243.156C245.879 275.68 247.357 271.359 247.359 266.912V259.019L253.624 254.059C254.389 253.459 254.892 252.586 255.03 251.624C255.167 250.661 254.928 249.683 254.362 248.892L249.611 242.248L257.164 239.617C258.108 239.29 258.884 238.603 259.324 237.706C259.763 236.809 259.831 235.774 259.511 234.828L255.498 222.922H266.495C267.781 222.918 269.047 222.602 270.184 222.002C271.321 221.402 272.296 220.536 273.026 219.477C273.772 218.387 274.245 217.133 274.403 215.821C274.561 214.51 274.4 213.179 273.934 211.943L257.807 169.051L262.407 159C262.633 158.507 262.75 157.971 262.748 157.429V136.456C261.555 107.836 249.876 83.759 228.96 66.8179C209.327 51.3038 184.753 43.3992 159.757 44.5579C159.509 44.5037 159.254 44.4783 159 44.4822H143.857C142.854 44.4852 141.893 44.885 141.184 45.5943C140.474 46.3036 140.074 47.2648 140.071 48.2679V78.5536C140.07 79.0505 140.168 79.5426 140.36 80.001C140.552 80.4594 140.833 80.8748 141.188 81.2225L156.331 96.3654C156.679 96.7203 157.094 97.002 157.553 97.1938C158.011 97.3856 158.503 97.4836 159 97.4822H181.714C182.211 97.4836 182.703 97.3856 183.162 97.1938C183.62 97.002 184.035 96.7203 184.383 96.3654L190.554 90.2136C193.351 91.7242 196.598 92.1777 199.702 91.4912C202.806 90.8048 205.56 89.0241 207.459 86.4748C209.358 83.9255 210.276 80.7779 210.046 77.6073C209.815 74.4367 208.452 71.4549 206.204 69.207C203.956 66.9592 200.974 65.5953 197.803 65.3649C194.633 65.1344 191.485 66.0528 188.936 67.952C186.387 69.8512 184.606 72.6044 183.92 75.7084C183.233 78.8123 183.687 82.0597 185.197 84.8568L180.143 89.9107H160.571L147.643 76.9825V52.0536H158.64C159 52.1359 159.371 52.1614 159.738 52.1293C193.431 50.8611 228.146 66.1175 244.917 97.4822H232.273C231.617 95.2832 230.401 93.2923 228.745 91.7042C227.088 90.1162 225.048 88.9854 222.823 88.4227C220.599 87.86 218.266 87.8845 216.054 88.4939C213.842 89.1034 211.826 90.2768 210.203 91.8994C208.58 93.522 207.407 95.5381 206.798 97.7503C206.188 99.9626 206.164 102.295 206.726 104.52C207.289 106.744 208.42 108.785 210.008 110.441C211.596 112.097 213.587 113.313 215.786 113.969V148.589H187.393C186.39 148.592 185.429 148.992 184.719 149.701C184.01 150.411 183.61 151.372 183.607 152.375V173.196H153.321C152.825 173.195 152.332 173.293 151.874 173.485C151.416 173.677 151 173.958 150.653 174.313L120.367 204.599C120.012 204.947 119.73 205.362 119.538 205.82C119.347 206.279 119.249 206.771 119.25 207.268V238.103C116.2 239.012 113.579 240.989 111.867 243.671C110.155 246.354 109.465 249.564 109.925 252.713C110.384 255.862 111.962 258.741 114.369 260.823C116.777 262.905 119.853 264.05 123.036 264.05C126.218 264.05 129.295 262.905 131.702 260.823C134.11 258.741 135.687 255.862 136.147 252.713C136.606 249.564 135.917 246.354 134.205 243.671C132.492 240.989 129.871 239.012 126.821 238.103V208.839L154.893 180.768H223.357C224.061 180.768 224.752 180.571 225.35 180.2C225.949 179.828 226.432 179.298 226.745 178.667L238.103 155.953C238.367 155.431 238.503 154.853 238.5 154.268V141.018H255.176V156.615L250.274 167.329C249.859 168.249 249.818 169.294 250.16 170.244L266.855 214.631C266.892 214.72 266.906 214.817 266.896 214.913C266.887 215.009 266.853 215.101 266.798 215.18C266.766 215.231 266.721 215.274 266.668 215.303C266.615 215.333 266.556 215.349 266.495 215.35H250.236C249.632 215.35 249.036 215.493 248.5 215.77C247.963 216.047 247.5 216.448 247.15 216.94C246.805 217.429 246.579 217.992 246.49 218.583C246.401 219.175 246.452 219.779 246.639 220.348L251.144 233.692L242.343 236.759C241.785 236.947 241.28 237.265 240.869 237.686C240.457 238.107 240.152 238.62 239.976 239.181C239.797 239.743 239.752 240.338 239.844 240.92C239.936 241.501 240.163 242.053 240.506 242.532L246.109 250.368L241.226 254.211C240.778 254.566 240.415 255.017 240.166 255.532C239.917 256.047 239.788 256.611 239.787 257.183V266.912C239.798 269.054 239.252 271.162 238.204 273.03C237.155 274.898 235.64 276.462 233.806 277.569C232.024 278.628 229.991 279.19 227.919 279.196C212.095 279.196 151.429 259.284 151.429 226.196V218.303C151.429 217.299 151.03 216.336 150.32 215.626C149.61 214.916 148.647 214.518 147.643 214.518C146.639 214.518 145.676 214.916 144.966 215.626C144.256 216.336 143.857 217.299 143.857 218.303V226.196C143.857 252.318 172.307 269.978 196.744 279.196H32.7086C32.17 279.126 31.6226 279.171 31.103 279.329C30.5834 279.488 30.1034 279.755 29.6952 280.113C29.2871 280.471 28.96 280.913 28.736 281.407C28.5119 281.902 28.3961 282.439 28.3961 282.982C28.3961 283.525 28.5119 284.062 28.736 284.557C28.96 285.052 29.2871 285.493 29.6952 285.851C30.1034 286.21 30.5834 286.477 31.103 286.635C31.6226 286.793 32.17 286.838 32.7086 286.768H285.291C285.83 286.838 286.377 286.793 286.897 286.635C287.417 286.477 287.897 286.21 288.305 285.851C288.713 285.493 289.04 285.052 289.264 284.557C289.488 284.062 289.604 283.525 289.604 282.982C289.604 282.439 289.488 281.902 289.264 281.407C289.04 280.913 288.713 280.471 288.305 280.113C287.897 279.755 287.417 279.488 286.897 279.329C286.377 279.171 285.83 279.126 285.291 279.196ZM196.857 72.875C197.98 72.875 199.078 73.2081 200.012 73.832C200.946 74.456 201.674 75.3429 202.103 76.3805C202.533 77.4181 202.646 78.5599 202.427 79.6614C202.208 80.763 201.667 81.7748 200.873 82.569C200.078 83.3631 199.067 83.9039 197.965 84.1231C196.863 84.3422 195.722 84.2297 194.684 83.7999C193.646 83.3701 192.76 82.6423 192.136 81.7084C191.512 80.7746 191.179 79.6767 191.179 78.5536C191.178 77.8076 191.324 77.0687 191.609 76.3793C191.894 75.6899 192.312 75.0635 192.84 74.536C193.367 74.0085 193.993 73.5903 194.683 73.3052C195.372 73.0202 196.111 72.874 196.857 72.875ZM128.714 250.804C128.714 251.927 128.381 253.025 127.757 253.958C127.133 254.892 126.246 255.62 125.209 256.05C124.171 256.48 123.029 256.592 121.928 256.373C120.826 256.154 119.815 255.613 119.02 254.819C118.226 254.025 117.685 253.013 117.466 251.911C117.247 250.81 117.36 249.668 117.789 248.63C118.219 247.593 118.947 246.706 119.881 246.082C120.815 245.458 121.913 245.125 123.036 245.125C123.782 245.124 124.521 245.27 125.21 245.555C125.899 245.84 126.526 246.259 127.053 246.786C127.581 247.314 127.999 247.94 128.284 248.629C128.569 249.319 128.715 250.058 128.714 250.804ZM213.893 101.268C213.893 100.145 214.226 99.0469 214.85 98.113C215.474 97.1792 216.361 96.4514 217.398 96.0216C218.436 95.5918 219.578 95.4793 220.679 95.6984C221.781 95.9175 222.793 96.4584 223.587 97.2525C224.381 98.0467 224.922 99.0585 225.141 100.16C225.36 101.262 225.248 102.403 224.818 103.441C224.388 104.479 223.66 105.365 222.726 105.989C221.792 106.613 220.695 106.946 219.571 106.946C218.825 106.947 218.087 106.801 217.397 106.516C216.708 106.231 216.081 105.813 215.554 105.285C215.026 104.758 214.608 104.132 214.323 103.442C214.038 102.753 213.892 102.014 213.893 101.268ZM234.714 133.446C233.711 133.449 232.75 133.849 232.041 134.559C231.331 135.268 230.932 136.229 230.929 137.232V153.378L221.01 173.196H191.179V156.161H219.571C220.575 156.161 221.538 155.762 222.248 155.052C222.958 154.342 223.357 153.379 223.357 152.375V113.969C225.461 113.329 227.374 112.181 228.929 110.626C230.484 109.071 231.632 107.157 232.273 105.054H248.475C252.141 114.111 254.332 123.696 254.968 133.446H234.714Z" fill="#EFFEFF"/>
<path d="M194.964 110.732C192.764 110.735 190.599 111.281 188.661 112.322L182.49 106.17C182.143 105.815 181.727 105.534 181.269 105.342C180.81 105.15 180.318 105.052 179.821 105.054H159C157.997 105.057 157.036 105.456 156.326 106.166C155.617 106.875 155.217 107.836 155.214 108.839V139.125C155.217 139.671 155.337 140.211 155.565 140.707C155.794 141.203 156.126 141.645 156.539 142.002L168.464 152.224V173.196H176.036V150.482C176.037 149.935 175.919 149.394 175.691 148.897C175.462 148.4 175.127 147.959 174.711 147.605L162.786 137.384V112.625H178.25L183.304 117.679C181.923 120.231 181.418 123.166 181.866 126.033C182.315 128.9 183.691 131.541 185.785 133.55C187.879 135.559 190.574 136.825 193.457 137.154C196.34 137.483 199.252 136.857 201.745 135.372C204.238 133.887 206.174 131.625 207.257 128.932C208.34 126.24 208.51 123.267 207.74 120.469C206.97 117.672 205.303 115.204 202.995 113.445C200.687 111.686 197.866 110.733 194.964 110.732ZM194.964 129.661C193.841 129.661 192.743 129.328 191.809 128.704C190.876 128.08 190.148 127.193 189.718 126.155C189.288 125.118 189.176 123.976 189.395 122.874C189.614 121.773 190.155 120.761 190.949 119.967C191.743 119.173 192.755 118.632 193.856 118.413C194.958 118.194 196.1 118.306 197.137 118.736C198.175 119.166 199.062 119.893 199.686 120.827C200.31 121.761 200.643 122.859 200.643 123.982C200.644 124.728 200.498 125.467 200.213 126.156C199.928 126.846 199.509 127.472 198.982 128C198.454 128.527 197.828 128.946 197.139 129.231C196.449 129.516 195.71 129.662 194.964 129.661Z" fill="#0BCEB2"/>
<path d="M102.214 57.7322C103.337 57.7322 104.435 57.3991 105.369 56.7752C106.303 56.1512 107.031 55.2643 107.461 54.2267C107.89 53.1891 108.003 52.0473 107.784 50.9458C107.565 49.8442 107.024 48.8324 106.23 48.0382C105.435 47.2441 104.424 46.7033 103.322 46.4841C102.221 46.265 101.079 46.3775 100.041 46.8073C99.0036 47.2371 98.1167 47.9649 97.4927 48.8988C96.8688 49.8326 96.5357 50.9305 96.5357 52.0536C96.5372 53.5592 97.136 55.0027 98.2006 56.0673C99.2652 57.1319 100.709 57.7307 102.214 57.7322ZM102.214 49.2143C102.776 49.2143 103.325 49.3808 103.792 49.6928C104.259 50.0048 104.623 50.4482 104.837 50.9671C105.052 51.4859 105.109 52.0568 104.999 52.6075C104.889 53.1583 104.619 53.6642 104.222 54.0613C103.825 54.4584 103.319 54.7288 102.768 54.8383C102.217 54.9479 101.647 54.8917 101.128 54.6768C100.609 54.4619 100.166 54.0979 99.8535 53.631C99.5415 53.1641 99.375 52.6152 99.375 52.0536C99.3755 51.3007 99.6748 50.5788 100.207 50.0465C100.74 49.5141 101.461 49.2148 102.214 49.2143ZM281.763 84.2322C281.014 84.2322 280.283 84.4542 279.66 84.8702C279.037 85.2862 278.552 85.8774 278.266 86.5692C277.979 87.2609 277.904 88.0221 278.05 88.7564C278.196 89.4908 278.557 90.1654 279.086 90.6948C279.616 91.2242 280.29 91.5848 281.025 91.7309C281.759 91.8769 282.52 91.802 283.212 91.5154C283.904 91.2289 284.495 90.7437 284.911 90.1211C285.327 89.4986 285.549 88.7666 285.549 88.0179C285.548 87.0142 285.149 86.0518 284.439 85.3421C283.729 84.6324 282.767 84.2332 281.763 84.2322ZM281.763 89.9107C281.389 89.9107 281.023 89.7997 280.712 89.5917C280.4 89.3838 280.158 89.0881 280.014 88.7423C279.871 88.3964 279.834 88.0158 279.907 87.6486C279.98 87.2814 280.16 86.9442 280.425 86.6794C280.689 86.4147 281.027 86.2344 281.394 86.1614C281.761 86.0884 282.142 86.1259 282.488 86.2691C282.833 86.4124 283.129 86.655 283.337 86.9663C283.545 87.2776 283.656 87.6435 283.656 88.0179C283.656 88.5198 283.456 89.0009 283.101 89.3558C282.746 89.7107 282.265 89.9102 281.763 89.9107ZM251.182 44.4822C250.433 44.4822 249.701 44.7042 249.079 45.1202C248.456 45.5362 247.971 46.1274 247.685 46.8192C247.398 47.5109 247.323 48.2721 247.469 49.0064C247.615 49.7408 247.976 50.4154 248.505 50.9448C249.035 51.4742 249.709 51.8348 250.444 51.9809C251.178 52.1269 251.939 52.052 252.631 51.7654C253.323 51.4789 253.914 50.9937 254.33 50.3711C254.746 49.7486 254.968 49.0166 254.968 48.2679C254.967 47.2642 254.568 46.3018 253.858 45.5921C253.148 44.8824 252.186 44.4832 251.182 44.4822ZM251.182 50.1607C250.808 50.1607 250.442 50.0497 250.131 49.8417C249.819 49.6338 249.577 49.3381 249.433 48.9923C249.29 48.6464 249.253 48.2658 249.326 47.8986C249.399 47.5314 249.579 47.1942 249.844 46.9294C250.108 46.6647 250.446 46.4844 250.813 46.4114C251.18 46.3384 251.561 46.3759 251.907 46.5191C252.252 46.6624 252.548 46.905 252.756 47.2163C252.964 47.5276 253.075 47.8935 253.075 48.2679C253.075 48.7698 252.875 49.2509 252.52 49.6058C252.165 49.9607 251.684 50.1602 251.182 50.1607ZM283.656 4.73218C282.907 4.73218 282.175 4.95421 281.553 5.37019C280.93 5.78616 280.445 6.37741 280.158 7.06916C279.872 7.76091 279.797 8.52209 279.943 9.25645C280.089 9.9908 280.45 10.6654 280.979 11.1948C281.509 11.7242 282.183 12.0848 282.917 12.2309C283.652 12.3769 284.413 12.302 285.105 12.0154C285.797 11.7289 286.388 11.2437 286.804 10.6211C287.22 9.99856 287.442 9.26664 287.442 8.51789C287.441 7.51417 287.042 6.55184 286.332 5.84209C285.622 5.13235 284.66 4.73318 283.656 4.73218ZM283.656 10.4107C283.282 10.4107 282.916 10.2997 282.604 10.0917C282.293 9.88376 282.051 9.58813 281.907 9.24226C281.764 8.89638 281.727 8.51579 281.8 8.14861C281.873 7.78144 282.053 7.44416 282.318 7.17944C282.582 6.91472 282.92 6.73444 283.287 6.66141C283.654 6.58837 284.035 6.62585 284.38 6.76912C284.726 6.91239 285.022 7.155 285.23 7.46628C285.438 7.77756 285.549 8.14352 285.549 8.51789C285.548 9.01975 285.349 9.50092 284.994 9.85579C284.639 10.2107 284.158 10.4102 283.656 10.4107ZM22.1389 91.8036C22.1389 91.0549 21.9168 90.3229 21.5009 89.7004C21.0849 89.0778 20.4936 88.5926 19.8019 88.3061C19.1101 88.0195 18.349 87.9446 17.6146 88.0906C16.8802 88.2367 16.2057 88.5973 15.6763 89.1267C15.1468 89.6561 14.7863 90.3307 14.6402 91.065C14.4941 91.7994 14.5691 92.5606 14.8556 93.2523C15.1421 93.9441 15.6274 94.5353 16.2499 94.9513C16.8725 95.3673 17.6044 95.5893 18.3532 95.5893C19.3569 95.5883 20.3192 95.1891 21.029 94.4794C21.7387 93.7697 22.1379 92.8073 22.1389 91.8036ZM16.4603 91.8036C16.4603 91.4292 16.5713 91.0633 16.7793 90.752C16.9873 90.4407 17.2829 90.1981 17.6288 90.0548C17.9747 89.9116 18.3553 89.8741 18.7224 89.9471C19.0896 90.0201 19.4269 90.2004 19.6916 90.4651C19.9563 90.7299 20.1366 91.0671 20.2096 91.4343C20.2827 91.8015 20.2452 92.1821 20.1019 92.528C19.9587 92.8738 19.7161 93.1695 19.4048 93.3775C19.0935 93.5854 18.7275 93.6965 18.3532 93.6965C17.8513 93.696 17.3701 93.4964 17.0153 93.1415C16.6604 92.7866 16.4608 92.3055 16.4603 91.8036Z" fill="#EFFEFF"/>
<path d="M15.353 22.2694L18.1658 18.5689L16.3884 17.5619L14.5826 21.7073H14.522L12.6878 17.5903L10.8783 18.6276L13.6645 22.241V22.2997L9.30908 21.7375V23.7515L13.6929 23.1894V23.248L10.8783 26.8596L12.5667 27.9272L14.4936 23.7515H14.5523L16.3297 27.8969L18.196 26.8312L15.353 23.2764V23.2177L19.8239 23.7515V21.7375L15.353 22.33V22.2694ZM72.5608 11.7925L70.9405 13.8727L71.9116 14.4879L73.0208 12.0821H73.0548L74.0789 14.469L75.154 13.8557L73.5167 11.8095V11.7754L76.091 12.0821V10.9218L73.5167 11.2625V11.2284L75.137 9.09704L74.1129 8.51782L73.0719 10.9047H73.0378L71.9816 8.53486L70.9405 9.13111L72.5438 11.2133V11.2473L70.0357 10.9218V12.0821L72.5608 11.7584V11.7925ZM308.591 54.9326V52.9583L304.205 53.5394V53.4807L306.965 49.8503L305.221 48.8622L303.45 52.928H303.391L301.591 48.8906L299.817 49.9089L302.549 53.4524V53.511L298.278 52.9583V54.9326L302.577 54.3817V54.4404L299.817 57.9839L301.473 59.0306L303.363 54.9326H303.419L305.163 59.0003L306.993 57.9555L304.205 54.4688V54.4101L308.591 54.9326ZM152.755 25.1523L155.137 22.0196L153.634 21.1678L152.104 24.6753H152.053L150.501 21.1924L148.972 22.0707L151.328 25.1276V25.1769L147.643 24.7017V26.4053L151.353 25.9302V25.9794L148.972 29.0364L150.399 29.9393L152.029 26.4053H152.078L153.583 29.9128L155.161 29.0118L152.755 26.004V25.9548L156.539 26.4053V24.7017L152.755 25.2015V25.1523Z" fill="#0BCEB2"/>
</svg>
