<svg width="62" height="62" viewBox="0 0 62 62" fill="none" xmlns="http://www.w3.org/2000/svg">
<path d="M61.6359 25.1033C61.4679 23.8546 60.6482 22.286 59.1974 20.4374C59.039 18.5785 58.224 16.8638 56.8626 15.5525C55.339 14.0852 53.3348 13.3208 51.2156 13.4008C47.2323 13.5507 43.977 16.7876 43.8048 20.77C43.792 21.0784 43.7967 21.3887 43.8194 21.6929C43.9519 23.452 43.2059 25.1147 41.8247 26.1412C41.5574 26.3398 41.2954 26.5248 41.039 26.697C39.6493 19.7341 39.9255 11.7991 41.8673 3.07654L42.5253 0.121094L39.6081 0.931856C39.2245 1.03829 30.1495 3.62572 24.8678 10.766C23.6866 12.3625 22.7732 13.9949 22.075 15.7673C19.2568 13.0048 16.4645 9.65346 13.9797 5.61195L12.3743 2.99991L10.8549 5.66351C10.5588 6.18242 3.64935 18.5099 7.8569 29.8383C9.8961 35.3287 14.1623 39.5769 20.5609 42.4988L19.5557 43.214L0.389276 42.7902L0.155602 44.3767C0.133843 44.5252 -0.368508 48.053 0.556726 51.928C1.84761 57.3366 5.2283 60.7868 10.3336 61.9065L11.2532 62.1084L22.0977 52.1953C24.4269 53.4152 26.7547 53.9937 29.9802 54.1971C35.7345 54.5599 41.3058 52.6366 45.668 48.7824C50.0544 44.9069 52.6636 39.5774 53.0155 33.7758L53.121 32.036C53.1943 30.826 53.883 29.4897 54.9625 28.4623C56.0277 27.4481 57.3342 26.8833 58.4576 26.9519C58.7646 26.9704 59.0697 27.02 59.3635 27.099L62.0001 27.81L61.6359 25.1033ZM27.7882 12.9263C30.6084 9.11421 34.8514 6.76329 37.6673 5.52728C36.3163 12.9973 36.1768 19.9176 37.2487 26.1776C34.2743 24.8517 29.7342 22.4303 24.9907 18.4224C25.6151 16.4144 26.5172 14.6453 27.7882 12.9263ZM52.4578 25.8309C50.7043 27.5002 49.6244 29.6817 49.4948 31.8165L49.3893 33.5558C49.0965 38.3877 46.9206 42.8285 43.2627 46.0606C39.6294 49.2711 34.9914 50.8732 30.2087 50.5719C27.0399 50.3723 25.0314 49.7876 22.7983 48.4158L21.6323 47.6992L10.2267 58.1251C7.05938 57.1422 5.00409 54.8087 4.11197 51.1769C3.67726 49.4059 3.61104 47.685 3.63942 46.4954L20.6806 46.8724L28.212 41.5125L24.9226 40.3446C17.8306 37.8272 13.2371 33.8727 11.2683 28.591C10.6454 26.9193 10.3218 25.2027 10.2031 23.5211C11.0635 24.46 12.0933 25.513 13.2905 26.617C16.9933 30.0323 23.0627 34.5983 30.9461 36.9568L31.9872 33.4763C24.8077 31.3288 19.2378 27.1473 15.8297 24.0173C13.0483 21.463 11.2092 19.1707 10.4443 18.1561C10.6463 16.8103 10.9306 15.562 11.2333 14.4707C11.6841 12.8454 12.2134 11.4084 12.6879 10.266C18.2383 18.2251 24.7845 23.2718 29.5124 26.1866C35.2322 29.713 40.4019 31.2058 40.4019 31.2058C40.4019 31.2058 42.9562 29.826 43.9916 29.0574C46.378 27.2835 47.6684 24.4293 47.4423 21.4209C47.43 21.2581 47.4272 21.0921 47.4348 20.927C47.5256 18.8216 49.2464 17.1102 51.3528 17.0307C52.4753 16.9882 53.5368 17.3926 54.3428 18.1693C55.1498 18.946 55.5939 19.99 55.5939 21.1096C55.5939 21.7577 55.918 22.1559 56.0741 22.3475C56.4071 22.7557 56.6833 23.1214 56.9127 23.4463C55.3347 23.7524 53.7752 24.5773 52.4578 25.8309Z" fill="black"/>
</svg>
