<svg width="64" height="64" viewBox="0 0 64 64" fill="none" xmlns="http://www.w3.org/2000/svg">
<g clip-path="url(#clip0_40_47108)">
<path d="M28 35.5C28.5304 35.5 29.0391 35.2893 29.4142 34.9142C29.7893 34.5391 30 34.0304 30 33.5C30 32.9696 29.7893 32.4609 29.4142 32.0858C29.0391 31.7107 28.5304 31.5 28 31.5C26.0384 31.5276 24.0946 31.1252 22.3052 30.3209C24.3356 28.0901 25.8086 25.4099 26.6034 22.5H28C28.5304 22.5 29.0391 22.2893 29.4142 21.9142C29.7893 21.5391 30 21.0304 30 20.5C30 19.9696 29.7893 19.4609 29.4142 19.0858C29.0391 18.7107 28.5304 18.5 28 18.5H21V16.5C21 15.9696 20.7893 15.4609 20.4142 15.0858C20.0391 14.7107 19.5304 14.5 19 14.5C18.4696 14.5 17.9609 14.7107 17.5858 15.0858C17.2107 15.4609 17 15.9696 17 16.5V18.5H10C9.46957 18.5 8.96086 18.7107 8.58579 19.0858C8.21071 19.4609 8 19.9696 8 20.5C8 21.0304 8.21071 21.5391 8.58579 21.9142C8.96086 22.2893 9.46957 22.5 10 22.5H22.396C21.686 24.5609 20.5301 26.4398 19.0107 28.0027C18.012 26.9944 17.1732 25.8394 16.5234 24.5777C16.4026 24.3442 16.2369 24.1367 16.0358 23.9673C15.8347 23.7979 15.6022 23.6698 15.3516 23.5904C15.1009 23.5109 14.8371 23.4817 14.5751 23.5043C14.3131 23.5269 14.0582 23.601 13.8249 23.7223C13.5916 23.8436 13.3845 24.0096 13.2155 24.211C13.0464 24.4124 12.9188 24.6452 12.8398 24.896C12.7608 25.1468 12.7321 25.4107 12.7552 25.6726C12.7783 25.9346 12.8529 26.1893 12.9746 26.4224C13.7017 27.8352 14.6074 29.1487 15.6696 30.3304C13.8882 31.1307 11.9527 31.5299 10 31.5C9.46957 31.5 8.96086 31.7107 8.58579 32.0858C8.21071 32.4609 8 32.9696 8 33.5C8 34.0304 8.21071 34.5391 8.58579 34.9142C8.96086 35.2893 9.46957 35.5 10 35.5C13.1568 35.5599 16.2662 34.7257 18.9692 33.0939C21.6895 34.7382 24.8222 35.5728 28 35.5Z" fill="black"/>
<path d="M62 20.5H42C41.4696 20.5 40.9609 20.7107 40.5858 21.0858C40.2107 21.4609 40 21.9696 40 22.5C40 23.0304 40.2107 23.5391 40.5858 23.9142C40.9609 24.2893 41.4696 24.5 42 24.5H60V53.5H31.4462L37.7363 42.4922C37.8975 42.1854 37.9876 41.8463 38 41.5V8.5C38 7.96958 37.7893 7.46088 37.4142 7.08582C37.0391 6.71075 36.5304 6.50003 36 6.5H2C1.46958 6.50003 0.960883 6.71075 0.585816 7.08582C0.210749 7.46088 2.65193e-05 7.96958 0 8.5L0 41.5C2.65193e-05 42.0304 0.210749 42.5391 0.585816 42.9142C0.960883 43.2893 1.46958 43.5 2 43.5H26V55.5C26.0083 56.0281 26.2219 56.5323 26.5956 56.9056C26.9693 57.279 27.4736 57.4921 28.0018 57.5H62C62.5304 57.5 63.0391 57.2893 63.4142 56.9142C63.7893 56.5391 64 56.0304 64 55.5V22.5C64 21.9696 63.7893 21.4609 63.4142 21.0858C63.0391 20.7107 62.5304 20.5 62 20.5ZM4 10.5H34V39.5H4V10.5ZM32.5538 43.5L30 47.9692V43.5H32.5538Z" fill="black"/>
<path d="M42 40.5V47.5C42 48.0304 42.2107 48.5391 42.5858 48.9142C42.9609 49.2893 43.4696 49.5 44 49.5C44.5304 49.5 45.0391 49.2893 45.4142 48.9142C45.7893 48.5391 46 48.0304 46 47.5V45.5H52V47.5C52 48.0304 52.2107 48.5391 52.5858 48.9142C52.9609 49.2893 53.4696 49.5 54 49.5C54.5304 49.5 55.0391 49.2893 55.4142 48.9142C55.7893 48.5391 56 48.0304 56 47.5V40.5C56 38.6435 55.2625 36.863 53.9497 35.5503C52.637 34.2375 50.8565 33.5 49 33.5C47.1435 33.5 45.363 34.2375 44.0503 35.5503C42.7375 36.863 42 38.6435 42 40.5ZM49 37.5C49.7954 37.5009 50.5579 37.8172 51.1204 38.3796C51.6828 38.9421 51.9991 39.7046 52 40.5V41.5H46V40.5C46.0009 39.7046 46.3172 38.9421 46.8796 38.3796C47.4421 37.8172 48.2046 37.5009 49 37.5Z" fill="black"/>
<path d="M49 31.5C50.1046 31.5 51 30.6046 51 29.5C51 28.3954 50.1046 27.5 49 27.5C47.8954 27.5 47 28.3954 47 29.5C47 30.6046 47.8954 31.5 49 31.5Z" fill="black"/>
</g>
<defs>
<clipPath id="clip0_40_47108">
<rect width="64" height="64" fill="white"/>
</clipPath>
</defs>
</svg>
