<svg width="72" height="80" viewBox="0 0 72 80" fill="none" xmlns="http://www.w3.org/2000/svg">
<path d="M30.8571 9.89479e-07C32.0824 1.09669e-06 33.0756 0.993252 33.0756 2.21849V36.7059C33.0756 37.9311 32.0824 38.9244 30.8571 38.9244H21.4516C17.5417 38.9244 14.213 38.3426 11.4655 37.1791C8.71802 36.0156 6.5165 34.4643 4.86095 32.5251C3.17019 30.5859 1.93733 28.4176 1.1624 26.0201C0.387466 23.6226 -2.12479e-07 21.2074 0 18.7747C2.52511e-07 15.8835 0.528365 13.2745 1.58509 10.9475C2.6066 8.65573 4.01557 6.68131 5.81201 5.0242C7.60845 3.40236 9.68669 2.15071 12.0467 1.26927C14.4067 0.42309 16.9077 -2.31174e-07 19.5495 0L30.8571 9.89479e-07ZM25.4143 7.40409L20.8704 7.40409C18.9331 7.40409 17.1719 7.6509 15.5868 8.1445C14.0017 8.67336 12.6455 9.4314 11.5184 10.4186C10.3559 11.4058 9.47534 12.6398 8.87653 14.1207C8.24249 15.6367 7.92547 17.3644 7.92547 19.3035C7.92547 21.8421 8.34816 23.9046 9.19354 25.4912C10.0037 27.1131 11.0252 28.3647 12.2581 29.2462C13.4557 30.1276 14.6885 30.727 15.9566 31.0443C17.2247 31.3969 18.299 31.5732 19.1796 31.5732H25.4143L25.4143 7.40409Z" fill="white"/>
<path d="M36.5042 38.9747V2.21849C36.5042 0.993251 37.4974 0 38.7227 0H48.1248C52.0336 0 55.3613 0.582504 58.108 1.74751C60.8547 2.91252 63.0556 4.46586 64.7107 6.40753C66.4009 8.34921 67.6334 10.5204 68.4081 12.921C69.1828 15.3216 69.5702 17.7399 69.5702 20.1758C69.5702 23.0706 69.042 25.6831 67.9856 28.0131C66.9644 30.3078 65.5558 32.2848 63.7599 33.944C61.964 35.568 59.8863 36.8212 57.527 37.7038C55.1676 38.5511 52.6674 38.9747 50.0264 38.9747H36.5042ZM44.1632 31.5611H48.7059C50.6426 31.5611 52.4033 31.3139 53.988 30.8197C55.5726 30.2901 56.9283 29.5311 58.0552 28.5426C59.2173 27.5541 60.0976 26.3185 60.6963 24.8358C61.3301 23.3178 61.647 21.5879 61.647 19.6462C61.647 17.1044 61.2245 15.0392 60.3793 13.4505C59.5694 11.8266 58.5482 10.5733 57.3157 9.69073C56.1184 8.80815 54.8859 8.208 53.6182 7.89027C52.3505 7.53724 51.2765 7.36072 50.3961 7.36072H44.1632V31.5611Z" fill="#11EADA"/>
<path d="M45.6951 38.8887L57.0516 66.9547L52.6146 66.0545L62.3718 40.3206C62.6986 39.4587 63.5244 38.8887 64.4462 38.8887H68.6148C70.2129 38.8887 71.2868 40.5273 70.649 41.9926L56.2862 74.9905C55.5126 76.7679 52.9916 76.7679 52.2179 74.9905L36.5042 38.8887H45.6951Z" fill="#11EADA"/>
</svg>
