<svg width="354" height="80" viewBox="0 0 354 80" fill="none" xmlns="http://www.w3.org/2000/svg">
<path d="M30.8571 9.89479e-07C32.0824 1.09669e-06 33.0756 0.993252 33.0756 2.21849V36.7059C33.0756 37.9311 32.0824 38.9244 30.8571 38.9244H21.4516C17.5417 38.9244 14.213 38.3426 11.4655 37.1791C8.71802 36.0156 6.5165 34.4643 4.86095 32.5251C3.17019 30.5859 1.93733 28.4176 1.1624 26.0201C0.387466 23.6226 -2.12479e-07 21.2074 0 18.7747C2.52511e-07 15.8835 0.528365 13.2745 1.58509 10.9475C2.6066 8.65573 4.01557 6.68131 5.81201 5.0242C7.60845 3.40236 9.68669 2.15071 12.0467 1.26927C14.4067 0.42309 16.9077 -2.31174e-07 19.5495 0L30.8571 9.89479e-07ZM25.4143 7.40409L20.8704 7.40409C18.9331 7.40409 17.1719 7.6509 15.5868 8.1445C14.0017 8.67336 12.6455 9.4314 11.5184 10.4186C10.3559 11.4058 9.47534 12.6398 8.87653 14.1207C8.24249 15.6367 7.92547 17.3644 7.92547 19.3035C7.92547 21.8421 8.34816 23.9046 9.19354 25.4912C10.0037 27.1131 11.0252 28.3647 12.2581 29.2462C13.4557 30.1276 14.6885 30.727 15.9566 31.0443C17.2247 31.3969 18.299 31.5732 19.1796 31.5732H25.4143L25.4143 7.40409Z" fill="white"/>
<path d="M36.5042 38.9747V2.21849C36.5042 0.993251 37.4974 0 38.7227 0H48.1248C52.0336 0 55.3613 0.582504 58.108 1.74751C60.8547 2.91252 63.0556 4.46586 64.7107 6.40753C66.4009 8.34921 67.6334 10.5204 68.4081 12.921C69.1828 15.3216 69.5702 17.7399 69.5702 20.1758C69.5702 23.0706 69.042 25.6831 67.9856 28.0131C66.9644 30.3078 65.5558 32.2848 63.7599 33.944C61.964 35.568 59.8863 36.8212 57.527 37.7038C55.1676 38.5511 52.6674 38.9747 50.0264 38.9747H36.5042ZM44.1632 31.5611H48.7059C50.6426 31.5611 52.4033 31.3139 53.988 30.8197C55.5726 30.2901 56.9283 29.5311 58.0552 28.5426C59.2173 27.5541 60.0976 26.3185 60.6963 24.8358C61.3301 23.3178 61.647 21.5879 61.647 19.6462C61.647 17.1044 61.2245 15.0392 60.3793 13.4505C59.5694 11.8266 58.5482 10.5733 57.3157 9.69073C56.1184 8.80815 54.8859 8.208 53.6182 7.89027C52.3505 7.53724 51.2765 7.36072 50.3961 7.36072H44.1632V31.5611Z" fill="#11EADA"/>
<path d="M45.6951 38.8887L57.0516 66.9547L52.6146 66.0545L62.3718 40.3206C62.6986 39.4587 63.5244 38.8887 64.4462 38.8887H68.6148C70.2129 38.8887 71.2868 40.5273 70.649 41.9926L56.2862 74.9905C55.5126 76.7679 52.9916 76.7679 52.2179 74.9905L36.5042 38.8887H45.6951Z" fill="#11EADA"/>
<path d="M82 56.6799V21.3519H92.56C96.112 21.3519 99.136 21.8799 101.632 22.9359C104.128 23.9919 106.128 25.3999 107.632 27.1599C109.168 28.9199 110.288 30.8879 110.992 33.0639C111.696 35.2399 112.048 37.4319 112.048 39.6399C112.048 42.2639 111.568 44.6319 110.608 46.7439C109.68 48.8239 108.4 50.6159 106.768 52.1199C105.136 53.5919 103.248 54.7279 101.104 55.5279C98.96 56.2959 96.688 56.6799 94.288 56.6799H82ZM88.96 49.9599H93.088C94.848 49.9599 96.448 49.7359 97.888 49.2879C99.328 48.8079 100.56 48.1199 101.584 47.2239C102.64 46.3279 103.44 45.2079 103.984 43.8639C104.56 42.4879 104.848 40.9199 104.848 39.1599C104.848 36.8559 104.464 34.9839 103.696 33.5439C102.96 32.0719 102.032 30.9359 100.912 30.1359C99.824 29.3359 98.704 28.7919 97.552 28.5039C96.4 28.1839 95.424 28.0239 94.624 28.0239H88.96V49.9599Z" fill="white"/>
<path d="M121.335 35.7039L121.959 41.4639L121.815 40.5999C122.423 39.3519 123.255 38.2959 124.311 37.4319C125.367 36.5359 126.407 35.8479 127.431 35.3679C128.487 34.8879 129.287 34.6479 129.831 34.6479L129.495 41.3679C127.927 41.1759 126.583 41.4319 125.463 42.1359C124.343 42.8399 123.479 43.7679 122.871 44.9199C122.263 46.0719 121.959 47.2559 121.959 48.4719V56.6799H115.287V35.7039H121.335Z" fill="white"/>
<path d="M141.717 57.2559C139.157 57.2559 136.981 56.7759 135.189 55.8159C133.429 54.8559 132.085 53.5279 131.157 51.8319C130.229 50.1359 129.765 48.1839 129.765 45.9759C129.765 43.8639 130.309 41.9599 131.397 40.2639C132.485 38.5679 133.941 37.2239 135.765 36.2319C137.589 35.2079 139.621 34.6959 141.861 34.6959C144.869 34.6959 147.333 35.5759 149.253 37.3359C151.205 39.0639 152.469 41.5759 153.045 44.8719L136.725 50.0559L135.237 46.4079L147.045 42.4239L145.653 43.0479C145.397 42.2159 144.933 41.4959 144.261 40.8879C143.621 40.2479 142.645 39.9279 141.333 39.9279C140.341 39.9279 139.461 40.1679 138.693 40.6479C137.957 41.0959 137.381 41.7519 136.965 42.6159C136.581 43.4479 136.389 44.4399 136.389 45.5919C136.389 46.9039 136.629 48.0079 137.109 48.9039C137.589 49.7679 138.245 50.4239 139.077 50.8719C139.909 51.3199 140.837 51.5439 141.861 51.5439C142.597 51.5439 143.301 51.4159 143.973 51.1599C144.677 50.9039 145.365 50.5679 146.037 50.1519L149.013 55.1439C147.893 55.7839 146.677 56.2959 145.365 56.6799C144.085 57.0639 142.869 57.2559 141.717 57.2559Z" fill="white"/>
<path d="M164.12 57.2559C162.168 57.2559 160.393 56.8719 158.793 56.1039C157.225 55.3039 155.977 54.0879 155.049 52.4559C154.12 50.8239 153.657 48.7439 153.657 46.2159C153.657 43.8479 154.137 41.7999 155.097 40.0719C156.057 38.3439 157.321 37.0159 158.889 36.0879C160.457 35.1279 162.12 34.6479 163.881 34.6479C165.961 34.6479 167.529 34.9999 168.585 35.7039C169.673 36.3759 170.569 37.1279 171.273 37.9599L170.985 38.7759L171.609 35.7039H177.849V56.6799H171.129V52.1199L171.657 53.5599C171.592 53.5599 171.401 53.7519 171.081 54.1359C170.761 54.4879 170.281 54.9199 169.641 55.4319C169.033 55.9119 168.265 56.3279 167.337 56.6799C166.441 57.0639 165.368 57.2559 164.12 57.2559ZM166.041 51.7839C166.841 51.7839 167.561 51.6719 168.201 51.4479C168.84 51.1919 169.4 50.8399 169.881 50.3919C170.361 49.9119 170.777 49.3199 171.129 48.6159V43.4799C170.873 42.7759 170.489 42.1839 169.977 41.7039C169.465 41.1919 168.857 40.8079 168.153 40.5519C167.449 40.2639 166.664 40.1199 165.8 40.1199C164.84 40.1199 163.945 40.3759 163.113 40.8879C162.312 41.3679 161.673 42.0399 161.193 42.9039C160.713 43.7679 160.473 44.7599 160.473 45.8799C160.473 46.9999 160.729 48.0079 161.241 48.9039C161.753 49.7999 162.424 50.5039 163.257 51.0159C164.12 51.5279 165.049 51.7839 166.041 51.7839Z" fill="white"/>
<path d="M188.229 35.7039L188.757 39.3999L188.661 39.1119C189.493 37.7039 190.533 36.6159 191.781 35.8479C193.029 35.0479 194.533 34.6479 196.293 34.6479C197.445 34.6479 198.453 34.8079 199.317 35.1279C200.213 35.4479 200.965 35.9279 201.573 36.5679C202.181 37.1759 202.597 37.9759 202.821 38.9679L202.581 39.0159C203.477 37.7039 204.549 36.6479 205.797 35.8479C207.077 35.0479 208.405 34.6479 209.781 34.6479C211.861 34.6479 213.509 35.2399 214.725 36.4239C215.973 37.5759 216.613 39.0799 216.645 40.9359V56.6799H209.973V43.7199C209.941 42.7919 209.797 42.0399 209.541 41.4639C209.285 40.8559 208.693 40.5199 207.765 40.4559C206.677 40.4559 205.749 40.8399 204.981 41.6079C204.245 42.3439 203.685 43.3039 203.301 44.4879C202.949 45.6399 202.773 46.8399 202.773 48.0879V56.6799H196.053V43.7199C196.021 42.7919 195.845 42.0399 195.525 41.4639C195.237 40.8559 194.629 40.5199 193.701 40.4559C192.645 40.4559 191.749 40.8399 191.013 41.6079C190.309 42.3439 189.765 43.2879 189.381 44.4399C189.029 45.5919 188.853 46.7759 188.853 47.9919V56.6799H182.133V35.7039H188.229Z" fill="white"/>
<path d="M240.332 21.3519L250.652 46.7919L246.62 45.9759L255.98 21.3519H264.236L248.108 58.3119L231.98 21.3519H240.332Z" fill="white"/>
<path d="M266.604 35.7039H273.324V56.6799H266.604V35.7039ZM266.46 28.2639C266.46 27.2719 266.844 26.4559 267.612 25.8159C268.412 25.1759 269.26 24.8559 270.156 24.8559C271.051 24.8559 271.867 25.1759 272.604 25.8159C273.372 26.4559 273.756 27.2719 273.756 28.2639C273.756 29.2559 273.372 30.0719 272.604 30.7119C271.867 31.3199 271.051 31.6239 270.156 31.6239C269.26 31.6239 268.412 31.3199 267.612 30.7119C266.844 30.0719 266.46 29.2559 266.46 28.2639Z" fill="white"/>
<path d="M284.42 57.1119C282.692 57.1119 281.076 56.8079 279.572 56.1999C278.1 55.5919 276.852 54.7439 275.828 53.6559L278.612 49.9599C279.636 50.8879 280.58 51.5599 281.444 51.9759C282.34 52.3599 283.14 52.5519 283.844 52.5519C284.388 52.5519 284.868 52.5039 285.284 52.4079C285.732 52.2799 286.084 52.1039 286.34 51.8799C286.596 51.6239 286.724 51.3039 286.724 50.9199C286.724 50.3759 286.5 49.9439 286.052 49.6239C285.636 49.3039 285.092 49.0479 284.42 48.8559C283.748 48.6319 283.028 48.4079 282.26 48.1839C280.34 47.5759 278.948 46.6959 278.084 45.5439C277.252 44.3599 276.836 43.0799 276.836 41.7039C276.836 40.6479 277.108 39.5919 277.652 38.5359C278.228 37.4479 279.124 36.5519 280.34 35.8479C281.588 35.1119 283.188 34.7439 285.14 34.7439C286.9 34.7439 288.388 34.9199 289.604 35.2719C290.82 35.6239 291.972 36.1999 293.06 36.9999L290.516 40.9359C289.908 40.4559 289.22 40.0559 288.452 39.7359C287.716 39.3839 287.028 39.1919 286.388 39.1599C285.812 39.1279 285.316 39.1919 284.9 39.3519C284.516 39.5119 284.212 39.7199 283.988 39.9759C283.764 40.2319 283.652 40.5039 283.652 40.7919C283.62 41.3999 283.844 41.8799 284.324 42.2319C284.836 42.5839 285.476 42.8559 286.244 43.0479C287.012 43.2399 287.764 43.4639 288.5 43.7199C289.524 44.0399 290.404 44.4719 291.14 45.0159C291.876 45.5599 292.436 46.2159 292.82 46.9839C293.236 47.7199 293.444 48.6159 293.444 49.6719C293.444 50.9519 293.108 52.1679 292.436 53.3199C291.796 54.4399 290.804 55.3519 289.46 56.0559C288.148 56.7599 286.468 57.1119 284.42 57.1119Z" fill="white"/>
<path d="M296.433 35.7039H303.153V56.6799H296.433V35.7039ZM296.289 28.2639C296.289 27.2719 296.673 26.4559 297.441 25.8159C298.241 25.1759 299.089 24.8559 299.985 24.8559C300.881 24.8559 301.697 25.1759 302.433 25.8159C303.201 26.4559 303.585 27.2719 303.585 28.2639C303.585 29.2559 303.201 30.0719 302.433 30.7119C301.697 31.3199 300.881 31.6239 299.985 31.6239C299.089 31.6239 298.241 31.3199 297.441 30.7119C296.673 30.0719 296.289 29.2559 296.289 28.2639Z" fill="white"/>
<path d="M305.801 45.9279C305.801 43.7839 306.298 41.8639 307.29 40.1679C308.314 38.4719 309.738 37.1439 311.562 36.1839C313.386 35.1919 315.482 34.6959 317.85 34.6959C320.249 34.6959 322.33 35.1919 324.09 36.1839C325.85 37.1439 327.194 38.4719 328.122 40.1679C329.082 41.8639 329.562 43.7839 329.562 45.9279C329.562 48.0719 329.082 50.0079 328.122 51.7359C327.194 53.4319 325.85 54.7759 324.09 55.7679C322.33 56.7599 320.218 57.2559 317.754 57.2559C315.45 57.2559 313.386 56.8079 311.562 55.9119C309.77 55.0159 308.362 53.7199 307.338 52.0239C306.314 50.3279 305.801 48.2959 305.801 45.9279ZM312.57 45.9759C312.57 47.0639 312.794 48.0559 313.242 48.9519C313.689 49.8159 314.298 50.5039 315.066 51.0159C315.834 51.5279 316.697 51.7839 317.658 51.7839C318.714 51.7839 319.626 51.5279 320.394 51.0159C321.162 50.5039 321.754 49.8159 322.17 48.9519C322.586 48.0559 322.794 47.0639 322.794 45.9759C322.794 44.8559 322.586 43.8639 322.17 42.9999C321.754 42.1359 321.162 41.4479 320.394 40.9359C319.626 40.4239 318.714 40.1679 317.658 40.1679C316.697 40.1679 315.834 40.4239 315.066 40.9359C314.298 41.4479 313.689 42.1359 313.242 42.9999C312.794 43.8639 312.57 44.8559 312.57 45.9759Z" fill="white"/>
<path d="M338.311 35.7039L338.839 39.4479L338.743 39.1119C339.479 37.7999 340.519 36.7439 341.863 35.9439C343.207 35.1119 344.855 34.6959 346.807 34.6959C348.791 34.6959 350.439 35.2879 351.751 36.4719C353.095 37.6239 353.783 39.1279 353.815 40.9839V56.6799H347.095V43.4799C347.063 42.5519 346.807 41.8159 346.327 41.2719C345.879 40.6959 345.111 40.4079 344.023 40.4079C342.999 40.4079 342.103 40.7439 341.335 41.4159C340.567 42.0879 339.975 42.9999 339.559 44.1519C339.143 45.3039 338.935 46.6319 338.935 48.1359V56.6799H332.215V35.7039H338.311Z" fill="white"/>
</svg>
