<svg width="102" height="102" viewBox="0 0 102 102" fill="none" xmlns="http://www.w3.org/2000/svg">
<path d="M73.6969 93.1682C72.5468 93.1682 71.3896 92.8904 70.3239 92.3311L51.0986 82.2191L31.68 92.3276C30.4852 92.9628 29.1355 93.248 27.786 93.1503C26.4364 93.0526 25.1418 92.576 24.0511 91.7754C22.9531 90.9853 22.1004 89.9014 21.5908 88.6483C21.0812 87.3953 20.9355 86.0239 21.1704 84.6917L24.8424 63.2858L9.22941 47.94C8.25601 46.9997 7.56768 45.8037 7.24353 44.4897C6.91937 43.1757 6.97254 41.7968 7.39692 40.5116C7.81109 39.2244 8.5794 38.0798 9.61385 37.209C10.6483 36.3381 11.9071 35.7762 13.2461 35.5875L34.7364 32.4642L44.5073 12.8731C45.7384 10.3829 48.2251 8.83887 51.0037 8.83887C53.7823 8.83887 56.269 10.3829 57.5 12.8731L67.1126 32.3481L88.7613 35.5875C90.1003 35.7762 91.3591 36.3381 92.3935 37.209C93.428 38.0798 94.1963 39.2244 94.6104 40.5116C95.0331 41.797 95.0854 43.1754 94.7614 44.4891C94.4373 45.8028 93.7499 46.9987 92.778 47.94L77.2247 63.0994L80.8369 84.6952C81.0697 86.0273 80.923 87.398 80.4136 88.6506C79.9042 89.9033 79.0527 90.9874 77.9563 91.7789C76.7178 92.6782 75.2274 93.1644 73.6969 93.1682ZM14.136 42.9033L29.6857 58.0627C31.3915 59.7298 32.1724 62.1216 31.7714 64.4711L28.1029 85.8805L30.0444 89.2149L28.4054 86.1021L47.6271 75.9936C48.6668 75.4474 49.8235 75.1617 50.998 75.1611C52.1724 75.1605 53.3294 75.4449 54.3697 75.99L73.5949 86.1021L73.8974 85.8805L70.2254 64.4746C70.0281 63.3171 70.1144 62.129 70.4771 61.0123C70.8397 59.8955 71.4679 58.8834 72.3076 58.0627L87.8609 42.9033L87.7448 42.5411L66.2544 39.4178C65.0923 39.2476 63.9888 38.7981 63.0386 38.1076C62.0885 37.4172 61.32 36.5066 60.7992 35.4538L51.1866 15.9789C51.1584 15.9226 51.1268 15.8663 50.9966 15.8663L41.1941 35.4538C40.6749 36.5064 39.9078 37.4171 38.9588 38.1076C38.0097 38.7981 36.9072 39.2477 35.7459 39.4178L14.2485 42.5411L11.6774 45.4182L14.136 42.9033Z" fill="#CFDF10"/>
</svg>
