<svg xmlns="http://www.w3.org/2000/svg" xmlns:xlink="http://www.w3.org/1999/xlink" viewBox="0 0 1000 600"><defs><style>.cls-1{mask:url(#mask);filter:url(#luminosity-noclip-2);}.cls-2{mix-blend-mode:multiply;fill:url(#linear-gradient);}.cls-3{isolation:isolate;}.cls-4{mask:url(#mask-2);}.cls-5,.cls-6{mix-blend-mode:overlay;}.cls-5{fill:url(#linear-gradient-2);}.cls-6,.cls-7{fill:#effdff;}.cls-6{opacity:0.46;}.cls-8{filter:url(#luminosity-noclip);}</style><filter id="luminosity-noclip" x="195.94" y="-6534" width="172.51" height="32766" filterUnits="userSpaceOnUse" color-interpolation-filters="sRGB"><feFlood flood-color="#fff" result="bg"/><feBlend in="SourceGraphic" in2="bg"/></filter><mask id="mask" x="195.94" y="-6534" width="172.51" height="32766" maskUnits="userSpaceOnUse"><g class="cls-8"/></mask><linearGradient id="linear-gradient" x1="2225.98" y1="-1792.11" x2="2127.23" y2="-1966.92" gradientTransform="matrix(0.13, 0.99, 1, -0.13, 1917.57, -2176.16)" gradientUnits="userSpaceOnUse"><stop offset="0" stop-color="#fff"/><stop offset="0.11" stop-color="#dcdcdc"/><stop offset="0.36" stop-color="#8f8f8f"/><stop offset="0.58" stop-color="#515151"/><stop offset="0.77" stop-color="#252525"/><stop offset="0.91" stop-color="#0a0a0a"/><stop offset="1"/></linearGradient><filter id="luminosity-noclip-2" x="195.94" y="140.76" width="172.51" height="135.05" filterUnits="userSpaceOnUse" color-interpolation-filters="sRGB"><feFlood flood-color="#fff" result="bg"/><feBlend in="SourceGraphic" in2="bg"/></filter><mask id="mask-2" x="195.94" y="140.76" width="172.51" height="135.05" maskUnits="userSpaceOnUse"><g class="cls-1"><path class="cls-2" d="M200,172.41l-4-31.65c124.24,73.46,172.51,135.05,172.51,135.05S285.86,206,200,172.41Z"/></g></mask><linearGradient id="linear-gradient-2" x1="2225.98" y1="-1792.11" x2="2127.23" y2="-1966.92" gradientTransform="matrix(0.13, 0.99, 1, -0.13, 1917.57, -2176.16)" gradientUnits="userSpaceOnUse"><stop offset="0" stop-color="#fff"/><stop offset="0.07" stop-color="#feffff"/><stop offset="1" stop-color="#f4feff"/></linearGradient></defs><g class="cls-3"><g id="etoile_tsy_haiko" data-name="etoile tsy haiko"><g class="cls-4"><path class="cls-5" d="M200,172.41l-4-31.65c124.24,73.46,172.51,135.05,172.51,135.05S285.86,206,200,172.41Z"/></g><path class="cls-6" d="M361.24,278.34a6.92,6.92,0,1,1,9.25,3.17A7,7,0,0,1,361.24,278.34Z"/><path class="cls-6" d="M363.27,277.33a4.66,4.66,0,1,1,6.22,2.14A4.68,4.68,0,0,1,363.27,277.33Z"/><path class="cls-7" d="M365.39,276.29a2.29,2.29,0,1,1,3.07,1A2.3,2.3,0,0,1,365.39,276.29Z"/></g></g></svg>