<svg xmlns="http://www.w3.org/2000/svg" viewBox="0 0 1000 600"><defs><style>.cls-1{fill:#2e3e54;}.cls-2{fill:#425c7c;}.cls-3{fill:#496d91;}.cls-4{fill:#5b90a5;}.cls-5{fill:#384966;}.cls-6{fill:#31425b;}</style></defs><g id="hazo_left" data-name="hazo left"><path class="cls-1" d="M46.55,545s-3.53,17.27,9.56,25.9L56.44,559C51.41,551.25,46.55,545,46.55,545Z"/><path class="cls-1" d="M47.47,532.54s-2.89,10.77,5.05,16.74l.67-7.48C50.3,536.68,47.47,532.54,47.47,532.54Z"/><path class="cls-2" d="M50.81,599.6H133.3l-6.47-218.11L120.36,165.9,126.83,0h-59s-4.85,118.74-4.85,145.69S67.79,313.28,67,336,60.51,479.68,50.81,599.6Z"/><path class="cls-3" d="M126.83,381.49,121,188.5l-4-10.68-8.41-34L113.47,284s4.61,55.44,14.18,125.31Z"/><path class="cls-4" d="M116.17,34.52s1.35,45,.9,58.23c-.27,7.87.43,35.17,3.42,69.72L126.83,0H110.47Z"/><path class="cls-5" d="M90.66,323.67,95,364.34c12.43-85,10.82-172.42,10.82-172.42S100.72,297.32,90.66,323.67Z"/><path class="cls-5" d="M111.66,343.42A1208.2,1208.2,0,0,1,104,501.28l10.82,5C122.48,410.75,111.66,343.42,111.66,343.42Z"/><path class="cls-5" d="M69.29,363.43C65.23,358,58.47,343,59.82,337.5s10.82-53.68,10.82-53.68l10.82,33.67Z"/><path class="cls-5" d="M113.47,479c-.91-8.19-10.82-58.23-12.63-77.34s-2.7-162.87-2.7-162.87L99.49,89.11c0-26.25,2.86-56.93,6.76-89.11H67.79s-4.85,118.74-4.85,145.69S67.79,313.27,67,336,60.51,479.68,50.81,599.6H133.3l-2.39-80.48C122.61,500.88,114,483.49,113.47,479Z"/><path class="cls-4" d="M200,91.69l-15,6.67-34.86,7.89-31.86,17,1.81,15.16c3.6-4.85,31.25-27.9,31.25-27.9l35.46-10.92,16.83-6.06Z"/><polygon class="cls-4" points="168.01 78.19 156.29 94.11 150.13 106.25 155.39 107.31 158.99 94.57 172.52 79.1 168.01 78.19"/><path class="cls-5" d="M67.49,104.12c-.91-1.36-10.37-15-10.37-15L40.44,77.74l-15.33-.91L14.29,78.19l-.45-3.64H26.92L42.24,75,54,81.83l15.78,5.92Z"/><polygon class="cls-5" points="32.93 62.88 30.07 63.63 40.89 76.37 47.65 79.56 32.93 62.88"/><path class="cls-6" d="M80.11,152.35c1.35-33.21,2.25-61.87,3.6-83.26C84.49,56.78,88.86,24.87,92.42,0H79.64C80.3,14.68,81,30.84,81.46,39.07c.9,17.28-3.61,61-3.61,61Z"/><path class="cls-6" d="M82.81,364.34c-4-5.45-15.78-25-15.78-25s1.36-19.56,7.22-19.56,9.46,10.46,9.46,10.46Z"/><path class="cls-6" d="M90.63,367.07,85.82,401l-3.61,78.88s.6,37.39.6,61.93l6.61-74.2C90,460,90.63,367.07,90.63,367.07Z"/></g></svg>