<svg xmlns="http://www.w3.org/2000/svg" xmlns:xlink="http://www.w3.org/1999/xlink" viewBox="0 0 999.83 601.96"><defs><style>.cls-1{mask:url(#mask);filter:url(#luminosity-noclip-4);}.cls-2,.cls-4,.cls-6{mix-blend-mode:multiply;}.cls-2{fill:url(#linear-gradient);}.cls-3{mask:url(#mask-2);filter:url(#luminosity-noclip-5);}.cls-4{fill:url(#linear-gradient-2);}.cls-5{mask:url(#mask-3);filter:url(#luminosity-noclip-6);}.cls-6{fill:url(#linear-gradient-3);}.cls-7{isolation:isolate;}.cls-8{mask:url(#mask-4);}.cls-11,.cls-13,.cls-9{opacity:0.67;}.cls-11,.cls-13,.cls-14,.cls-15,.cls-16,.cls-9{mix-blend-mode:overlay;}.cls-9{fill:url(#linear-gradient-4);}.cls-10{mask:url(#mask-5);}.cls-11{fill:url(#linear-gradient-5);}.cls-12{mask:url(#mask-6);}.cls-13{fill:url(#linear-gradient-6);}.cls-14,.cls-15,.cls-16{fill:#effdff;}.cls-14{opacity:0.18;}.cls-15{opacity:0.1;}.cls-16{opacity:0.08;}.cls-17{filter:url(#luminosity-noclip-3);}.cls-18{filter:url(#luminosity-noclip-2);}.cls-19{filter:url(#luminosity-noclip);}</style><filter id="luminosity-noclip" x="2" y="-5851.96" width="495.29" height="32766" filterUnits="userSpaceOnUse" color-interpolation-filters="sRGB"><feFlood flood-color="#fff" result="bg"/><feBlend in="SourceGraphic" in2="bg"/></filter><mask id="mask" x="2" y="-5851.96" width="495.29" height="32766" maskUnits="userSpaceOnUse"><g class="cls-19"/></mask><linearGradient id="linear-gradient" x1="444.85" y1="684.77" x2="169.23" y2="-64.76" gradientUnits="userSpaceOnUse"><stop offset="0" stop-color="#fff"/><stop offset="1"/></linearGradient><filter id="luminosity-noclip-2" x="192.22" y="-5851.96" width="809.62" height="32766" filterUnits="userSpaceOnUse" color-interpolation-filters="sRGB"><feFlood flood-color="#fff" result="bg"/><feBlend in="SourceGraphic" in2="bg"/></filter><mask id="mask-2" x="192.22" y="-5851.96" width="809.62" height="32766" maskUnits="userSpaceOnUse"><g class="cls-18"/></mask><linearGradient id="linear-gradient-2" x1="179.56" y1="362.7" x2="717.79" y2="-29.48" xlink:href="#linear-gradient"/><filter id="luminosity-noclip-3" x="2" y="-5851.96" width="593.4" height="32766" filterUnits="userSpaceOnUse" color-interpolation-filters="sRGB"><feFlood flood-color="#fff" result="bg"/><feBlend in="SourceGraphic" in2="bg"/></filter><mask id="mask-3" x="2" y="-5851.96" width="593.4" height="32766" maskUnits="userSpaceOnUse"><g class="cls-17"/></mask><linearGradient id="linear-gradient-3" x1="253.69" y1="571.57" x2="307.8" y2="230.56" xlink:href="#linear-gradient"/><filter id="luminosity-noclip-4" x="2" y="2.46" width="495.29" height="172.21" filterUnits="userSpaceOnUse" color-interpolation-filters="sRGB"><feFlood flood-color="#fff" result="bg"/><feBlend in="SourceGraphic" in2="bg"/></filter><mask id="mask-4" x="2" y="2.46" width="495.29" height="172.21" maskUnits="userSpaceOnUse"><g class="cls-1"><path class="cls-2" d="M2,133.22c17.46-.48,35.25-1.83,52.74-1.21a178.94,178.94,0,0,1,32.83,4.06c2.13.48,4.28,1.38,6.44,1.6,4.2.44,8.08-1.89,12-3.2A122.59,122.59,0,0,1,123.3,130a47.75,47.75,0,0,1,16.65-.18c3.6.68,6.2,1.67,9.69-.17,3-1.55,4.64-4.46,8.26-4.6,4.16-.16,8.42,3.18,12.14,4.53a29.79,29.79,0,0,0,14,1.83c5.68-.71,11.16-3.7,16.93-3.06s10.69,5.18,16.77,5.38c10.61.37,21.15-7.33,30.82-10.8a212.23,212.23,0,0,1,20.55-5.75c4.46-1.12,8.9-3.24,13.38-4,4.83-.77,9.68.57,14.48,1.23,5.46.75,10.92,1.26,16.41,1.72,15.78,1.29,31.53,4.61,47.31,5.09a53.75,53.75,0,0,1,30.66,11c6.35,4.69,11.53,4.11,19.23,4,3.68,0,8.94-.66,11.66,2.64,2.51,3,3.28,8.58,3.23,12.35,0,2.68-2,11.6,2.45,11.2.44,1.86-.2,2.89,1.33,4,1.32.94,5.54-.53,7.05-.74a34.33,34.33,0,0,0,8.24-1.72c3.35-1.34,5.52-3.78,9.27-3.1s5.42,3.73,8.41,5.43c5.51,3.13,13.8,3.73,19.95,5.15,3.77.87,7.22,3,11.12,3.15,1.36.06,2.68,0,4,0-3.26-1.88-6.17-4.18-9.65-5.76A47.08,47.08,0,0,1,476.51,162c-2.58-2.28-4.6-5.18-7.28-7.34-1.74-1.4-4.8-2.48-5.74-4.65-.81-1.85-.38-4.9-.83-6.89a51.41,51.41,0,0,0-2-7.56c-1.71-4.37-1.36-8.25-1.36-13.07,0-2.93.55-6.26.09-9.12-.6-3.75-2.84-5.57-5.13-8.4s-3.93-6.49-6.5-8.88c-3-2.77-7.62-3.46-11.38-4.74-5.29-1.79-11.73-4.13-13.82-9.91-1.13-3.14-.22-8.81-3.74-10.51-2.19-1-5.71-.2-8.13-.88-4.3-1.21-8.17-3.61-12.49-4.8-5.32-1.46-10.86-1.91-16.21-3.35-7-1.88-13.64-1.6-20.75-2.1-5.65-.4-11-2.39-16.43-4a88.39,88.39,0,0,0-22.55-4c-9-.35-18.23.71-27.23-.29-6.13-.68-12.15-2.42-18.23-3.51a97.74,97.74,0,0,0-19-1.71c-3.86,0-9.85,1-13.46-.86-3-1.52-3.83-5.49-6.78-7.17-3.16-1.79-7.46-1.76-10.88-2.82a42.19,42.19,0,0,1-17.17-10.61c-2.36-2.5-5.46-4.17-7.74-6.64S198.36,12,196.23,9.2c-2.49-3.25-6-4.9-9.54-6.74H2Z"/></g></mask><linearGradient id="linear-gradient-4" x1="444.85" y1="684.77" x2="169.23" y2="-64.76" gradientUnits="userSpaceOnUse"><stop offset="0" stop-color="#fff6de"/><stop offset="1" stop-color="#fcd2bb"/></linearGradient><filter id="luminosity-noclip-5" x="192.22" y="2.46" width="809.62" height="267.6" filterUnits="userSpaceOnUse" color-interpolation-filters="sRGB"><feFlood flood-color="#fff" result="bg"/><feBlend in="SourceGraphic" in2="bg"/></filter><mask id="mask-5" x="192.22" y="2.46" width="809.62" height="267.6" maskUnits="userSpaceOnUse"><g class="cls-3"><path class="cls-4" d="M192.22,2.46c1.56.55,3.12,1.14,4.69,1.82a168.81,168.81,0,0,1,20,10.08c6.73,4.09,16.67,2.11,24.88,2.15,20,.11,39.86-2.08,59.88-1.92S342.2,17.75,362,20c11,1.25,21.53,4.49,32.46,6,8,1.09,15.83.78,23.83.84,17.13.12,34.95,2.06,52,3.72,5.27.51,10.94.93,16,2.56,3,1,5.6,2.88,8.63,3.8,15.82,4.85,35.09,4.93,51.43,5.6,7.89.32,15.71,1.13,23.6,1.57,4.32.25,8.81-.32,13.07.52,7.53,1.48,14.32,5.3,21.89,7s14.37,5.71,21.52,8.27a148,148,0,0,1,16.77,6.89c2.13,1.06,13.43,5.7,14.91,8.9,2.24,4.86-4.74,7.25-8.77,8.22-5.92,1.43-12.21,1.49-18.23,2.55-1.62.29-3.42.79-5.21,1.08,4.57.32,10,2.84,14,3.37,8.23,1.11,16.93.3,25.17.29,11.11,0,22.23,0,33.34,0,6.76,0,21.23-2.59,27.5.79,3.82,2.05,3.71,5.41,2.57,9.63-.58,2.15-.84,7.67-3.09,8.64,7.19.46,18.71,11.9,14.76,17.54-3.23,4.61-13.44,2.91-18.14,5.39-6.65,3.49-10.57,6.53-18.63,6.78-10.77.32-22.39-2.14-32.71,1.49-3.47,1.21-10.31,3.35-13.18,5.72s-1.33,4-2.36,6.61c-1.43,3.6-5.12,2.58-7.57,5.08-2,2.08-1.82,4.39-1.66,7,.3,5.14,2.49,7.45.69,12.9-2.12,6.41-6.49,8.57-12.29,11.8S623.15,197,617,199.7c-4.61,2-10.46,10.1-15.9,9.7-1.15,4.34.7,8.49-1.77,12.61s-8.15,5.77-12.16,8.2a50.43,50.43,0,0,0-11.62,9.07c-2.58,2.83-2.66,3.83-6.74,5.22-8.33,2.84-17.37,4-25.82,6.6-17.43,5.35-38.34,11.86-33,11.07,2.83-.42,5.73-.51,8.48-1.29a54.44,54.44,0,0,1,7.94-1.59c2.92-.38,5.79-1.28,8.74-1.38s5.74.44,8.6.63c3.06.2,5.92,1.15,9,1.21s6.2-.05,9.29,0c2.46,0,4.73-.33,7.17-.54,3.37-.28,6.85,0,10.23-.05,3.54,0,7.21-.61,10.37,1.2,1.37.79,2.73,1.61,4,2.5a14.25,14.25,0,0,0,2.29.87,40.55,40.55,0,0,0,8.31,1.31c6.68.36,13.52-.12,20.23-.05s13-1.71,19.65-1.86a86,86,0,0,1,28,4c19.3,6.32,37.15,1.66,55.27-5.68,2.51-1,10.05-2.85,10.05-6.36,0-2.75-7.83-6.79-7-10.5.47-2.21,9.58-6.83,10.14-7.09a66.11,66.11,0,0,1,14.36-4.61c4.85-1,8.91-1,13.29-3.12a66.42,66.42,0,0,1,16.9-5.29c5-1,8.51-.51,11.6-4.65,1.66-2.22,1.89-3.3,4.31-4.83,3.08-2,6-1.29,8-5.12.88-1.65.32-3.8,1-5.39.9-2.08,2.6-3,4-4.7,2.62-3.13,4.23-5.52,7.77-8,11.42-8.06,25.44-12.84,38.11-18.92,19.07-9.16,41.81-12,62.28-17.3,7.48-1.94,15.62-3.11,22.88-5.66s13.27-6.77,19.78-10.5c5.91-3.38,15.37-5.82,14.3-13.61-.6-4.41-3.58-8.26-3.75-12.71a30.05,30.05,0,0,1,3-13.11c1.45-2.62,3.47-3.39,5.62-5.47,2.5-2.43,4.46-5.4,6.88-7.91a105.23,105.23,0,0,1,10.69-9.5V2.46Z"/></g></mask><linearGradient id="linear-gradient-5" x1="179.56" y1="362.7" x2="717.79" y2="-29.48" xlink:href="#linear-gradient-4"/><filter id="luminosity-noclip-6" x="2" y="271.87" width="593.4" height="113.87" filterUnits="userSpaceOnUse" color-interpolation-filters="sRGB"><feFlood flood-color="#fff" result="bg"/><feBlend in="SourceGraphic" in2="bg"/></filter><mask id="mask-6" x="2" y="271.87" width="593.4" height="113.87" maskUnits="userSpaceOnUse"><g class="cls-5"><path class="cls-6" d="M580.06,299.07c-12.93-2.06-26.1-2.27-39.41-2.22-7.17,0-15.37.71-22.29-.73.58.12-4-1.09-3.44-1.05a11.13,11.13,0,0,0-4.35.52q-7.62.8-15.33,1.05c-4.18.16-13.58-.67-17.25,1.42,4.88,3.48-3.46,4.11-7.33,4.85-3.44.66-4.65,1.63-7.25,2.76-3.6,1.57-7.2,1.93-11.33,2.92-5.14,1.24-10.6,1.12-16.09,1-3.2-.07-5.85-.6-9-.92-3.87-.4-7,.18-10.72.66a152.92,152.92,0,0,1-19.1,1.21c-3.86,0-7.45-.74-11.42-1.18-2.23-.25-6.15-.36-8.3-.71-2.6-.44-4.56-1.55-7.31-2.05-4.08-.73-10.16.05-13.82-1.11-2.06-.65-2.69-1.94-4.27-2.83-4.08-2.28-12.24-.38-17.76-1.07-3.91-.49-7.34-1.65-11.41-1.86-3.16-.17-6.56.08-9.75.1-6.9,0-12.73-2.05-19.9-2-5.54,0-11.09,0-16.62,0-2.17,0-8.33.91-10.18-.5-2.79-2.14.86-6-.61-8.46-2.77-4.63-13.87-6-20.53-6.8-12.39-1.45-25.21-2-37.72-3-16.85-1.41-33.55-3.11-50.54-3.75-37-1.39-74.13-1.21-111.18-2.15-14.63-.37-29.27-.66-43.88-1.29V382.81c16.38,0,32.9-.34,49.27-.12,19.26.25,38.34,1.62,57.53,2.45a524.93,524.93,0,0,0,71.85-1.39c14.56-1.36,29.24-2.41,43.76-3.92,10.23-1.06,20-2.64,30.39-3.22,19.89-1.12,40.76.41,59.95-3.79,12.74-2.79,25.88-4.31,38.43-7.46,5.63-1.41,11.54-2.39,17-4.06,5.29-1.62,8.36-2.93,14.18-3.89,10.92-1.79,19.91-4.27,27.89-9.31a22,22,0,0,0,5.91-5.32c.47-.58.76-1.34,1.66-1.77,2.36-1.15,10.55-.67,13.52-.84a279.09,279.09,0,0,0,28.47-3.29c11.45-1.8,24.56-6.05,32.14-11.8,2.6-2,5.14-4.32,8.63-5.69,12.15-4.79,27.62-6.55,41.76-7.49,4.13-.27,8.08-.27,12.2-.33,5-.06,7.6-1.51,11.84-2.76,8.57-2.53,18.21-3,27-4.85C592.72,300.62,585.41,299.93,580.06,299.07Z"/></g></mask><linearGradient id="linear-gradient-6" x1="253.69" y1="571.57" x2="307.8" y2="230.56" xlink:href="#linear-gradient-4"/></defs><g class="cls-7"><g id="Lune"><g class="cls-8"><path class="cls-9" d="M2,133.22c17.46-.48,35.25-1.83,52.74-1.21a178.94,178.94,0,0,1,32.83,4.06c2.13.48,4.28,1.38,6.44,1.6,4.2.44,8.08-1.89,12-3.2A122.59,122.59,0,0,1,123.3,130a47.75,47.75,0,0,1,16.65-.18c3.6.68,6.2,1.67,9.69-.17,3-1.55,4.64-4.46,8.26-4.6,4.16-.16,8.42,3.18,12.14,4.53a29.79,29.79,0,0,0,14,1.83c5.68-.71,11.16-3.7,16.93-3.06s10.69,5.18,16.77,5.38c10.61.37,21.15-7.33,30.82-10.8a212.23,212.23,0,0,1,20.55-5.75c4.46-1.12,8.9-3.24,13.38-4,4.83-.77,9.68.57,14.48,1.23,5.46.75,10.92,1.26,16.41,1.72,15.78,1.29,31.53,4.61,47.31,5.09a53.75,53.75,0,0,1,30.66,11c6.35,4.69,11.53,4.11,19.23,4,3.68,0,8.94-.66,11.66,2.64,2.51,3,3.28,8.58,3.23,12.35,0,2.68-2,11.6,2.45,11.2.44,1.86-.2,2.89,1.33,4,1.32.94,5.54-.53,7.05-.74a34.33,34.33,0,0,0,8.24-1.72c3.35-1.34,5.52-3.78,9.27-3.1s5.42,3.73,8.41,5.43c5.51,3.13,13.8,3.73,19.95,5.15,3.77.87,7.22,3,11.12,3.15,1.36.06,2.68,0,4,0-3.26-1.88-6.17-4.18-9.65-5.76A47.08,47.08,0,0,1,476.51,162c-2.58-2.28-4.6-5.18-7.28-7.34-1.74-1.4-4.8-2.48-5.74-4.65-.81-1.85-.38-4.9-.83-6.89a51.41,51.41,0,0,0-2-7.56c-1.71-4.37-1.36-8.25-1.36-13.07,0-2.93.55-6.26.09-9.12-.6-3.75-2.84-5.57-5.13-8.4s-3.93-6.49-6.5-8.88c-3-2.77-7.62-3.46-11.38-4.74-5.29-1.79-11.73-4.13-13.82-9.91-1.13-3.14-.22-8.81-3.74-10.51-2.19-1-5.71-.2-8.13-.88-4.3-1.21-8.17-3.61-12.49-4.8-5.32-1.46-10.86-1.91-16.21-3.35-7-1.88-13.64-1.6-20.75-2.1-5.65-.4-11-2.39-16.43-4a88.39,88.39,0,0,0-22.55-4c-9-.35-18.23.71-27.23-.29-6.13-.68-12.15-2.42-18.23-3.51a97.74,97.74,0,0,0-19-1.71c-3.86,0-9.85,1-13.46-.86-3-1.52-3.83-5.49-6.78-7.17-3.16-1.79-7.46-1.76-10.88-2.82a42.19,42.19,0,0,1-17.17-10.61c-2.36-2.5-5.46-4.17-7.74-6.64S198.36,12,196.23,9.2c-2.49-3.25-6-4.9-9.54-6.74H2Z"/></g><g class="cls-10"><path class="cls-11" d="M192.22,2.46c1.56.55,3.12,1.14,4.69,1.82a168.81,168.81,0,0,1,20,10.08c6.73,4.09,16.67,2.11,24.88,2.15,20,.11,39.86-2.08,59.88-1.92S342.2,17.75,362,20c11,1.25,21.53,4.49,32.46,6,8,1.09,15.83.78,23.83.84,17.13.12,34.95,2.06,52,3.72,5.27.51,10.94.93,16,2.56,3,1,5.6,2.88,8.63,3.8,15.82,4.85,35.09,4.93,51.43,5.6,7.89.32,15.71,1.13,23.6,1.57,4.32.25,8.81-.32,13.07.52,7.53,1.48,14.32,5.3,21.89,7s14.37,5.71,21.52,8.27a148,148,0,0,1,16.77,6.89c2.13,1.06,13.43,5.7,14.91,8.9,2.24,4.86-4.74,7.25-8.77,8.22-5.92,1.43-12.21,1.49-18.23,2.55-1.62.29-3.42.79-5.21,1.08,4.57.32,10,2.84,14,3.37,8.23,1.11,16.93.3,25.17.29,11.11,0,22.23,0,33.34,0,6.76,0,21.23-2.59,27.5.79,3.82,2.05,3.71,5.41,2.57,9.63-.58,2.15-.84,7.67-3.09,8.64,7.19.46,18.71,11.9,14.76,17.54-3.23,4.61-13.44,2.91-18.14,5.39-6.65,3.49-10.57,6.53-18.63,6.78-10.77.32-22.39-2.14-32.71,1.49-3.47,1.21-10.31,3.35-13.18,5.72s-1.33,4-2.36,6.61c-1.43,3.6-5.12,2.58-7.57,5.08-2,2.08-1.82,4.39-1.66,7,.3,5.14,2.49,7.45.69,12.9-2.12,6.41-6.49,8.57-12.29,11.8S623.15,197,617,199.7c-4.61,2-10.46,10.1-15.9,9.7-1.15,4.34.7,8.49-1.77,12.61s-8.15,5.77-12.16,8.2a50.43,50.43,0,0,0-11.62,9.07c-2.58,2.83-2.66,3.83-6.74,5.22-8.33,2.84-17.37,4-25.82,6.6-17.43,5.35-38.34,11.86-33,11.07,2.83-.42,5.73-.51,8.48-1.29a54.44,54.44,0,0,1,7.94-1.59c2.92-.38,5.79-1.28,8.74-1.38s5.74.44,8.6.63c3.06.2,5.92,1.15,9,1.21s6.2-.05,9.29,0c2.46,0,4.73-.33,7.17-.54,3.37-.28,6.85,0,10.23-.05,3.54,0,7.21-.61,10.37,1.2,1.37.79,2.73,1.61,4,2.5a14.25,14.25,0,0,0,2.29.87,40.55,40.55,0,0,0,8.31,1.31c6.68.36,13.52-.12,20.23-.05s13-1.71,19.65-1.86a86,86,0,0,1,28,4c19.3,6.32,37.15,1.66,55.27-5.68,2.51-1,10.05-2.85,10.05-6.36,0-2.75-7.83-6.79-7-10.5.47-2.21,9.58-6.83,10.14-7.09a66.11,66.11,0,0,1,14.36-4.61c4.85-1,8.91-1,13.29-3.12a66.42,66.42,0,0,1,16.9-5.29c5-1,8.51-.51,11.6-4.65,1.66-2.22,1.89-3.3,4.31-4.83,3.08-2,6-1.29,8-5.12.88-1.65.32-3.8,1-5.39.9-2.08,2.6-3,4-4.7,2.62-3.13,4.23-5.52,7.77-8,11.42-8.06,25.44-12.84,38.11-18.92,19.07-9.16,41.81-12,62.28-17.3,7.48-1.94,15.62-3.11,22.88-5.66s13.27-6.77,19.78-10.5c5.91-3.38,15.37-5.82,14.3-13.61-.6-4.41-3.58-8.26-3.75-12.71a30.05,30.05,0,0,1,3-13.11c1.45-2.62,3.47-3.39,5.62-5.47,2.5-2.43,4.46-5.4,6.88-7.91a105.23,105.23,0,0,1,10.69-9.5V2.46Z"/></g><g class="cls-12"><path class="cls-13" d="M580.06,299.07c-12.93-2.06-26.1-2.27-39.41-2.22-7.17,0-15.37.71-22.29-.73.58.12-4-1.09-3.44-1.05a11.13,11.13,0,0,0-4.35.52q-7.62.8-15.33,1.05c-4.18.16-13.58-.67-17.25,1.42,4.88,3.48-3.46,4.11-7.33,4.85-3.44.66-4.65,1.63-7.25,2.76-3.6,1.57-7.2,1.93-11.33,2.92-5.14,1.24-10.6,1.12-16.09,1-3.2-.07-5.85-.6-9-.92-3.87-.4-7,.18-10.72.66a152.92,152.92,0,0,1-19.1,1.21c-3.86,0-7.45-.74-11.42-1.18-2.23-.25-6.15-.36-8.3-.71-2.6-.44-4.56-1.55-7.31-2.05-4.08-.73-10.16.05-13.82-1.11-2.06-.65-2.69-1.94-4.27-2.83-4.08-2.28-12.24-.38-17.76-1.07-3.91-.49-7.34-1.65-11.41-1.86-3.16-.17-6.56.08-9.75.1-6.9,0-12.73-2.05-19.9-2-5.54,0-11.09,0-16.62,0-2.17,0-8.33.91-10.18-.5-2.79-2.14.86-6-.61-8.46-2.77-4.63-13.87-6-20.53-6.8-12.39-1.45-25.21-2-37.72-3-16.85-1.41-33.55-3.11-50.54-3.75-37-1.39-74.13-1.21-111.18-2.15-14.63-.37-29.27-.66-43.88-1.29V382.81c16.38,0,32.9-.34,49.27-.12,19.26.25,38.34,1.62,57.53,2.45a524.93,524.93,0,0,0,71.85-1.39c14.56-1.36,29.24-2.41,43.76-3.92,10.23-1.06,20-2.64,30.39-3.22,19.89-1.12,40.76.41,59.95-3.79,12.74-2.79,25.88-4.31,38.43-7.46,5.63-1.41,11.54-2.39,17-4.06,5.29-1.62,8.36-2.93,14.18-3.89,10.92-1.79,19.91-4.27,27.89-9.31a22,22,0,0,0,5.91-5.32c.47-.58.76-1.34,1.66-1.77,2.36-1.15,10.55-.67,13.52-.84a279.09,279.09,0,0,0,28.47-3.29c11.45-1.8,24.56-6.05,32.14-11.8,2.6-2,5.14-4.32,8.63-5.69,12.15-4.79,27.62-6.55,41.76-7.49,4.13-.27,8.08-.27,12.2-.33,5-.06,7.6-1.51,11.84-2.76,8.57-2.53,18.21-3,27-4.85C592.72,300.62,585.41,299.93,580.06,299.07Z"/></g><path class="cls-14" d="M573.29,395C553.66,393.42,2,389.12,2,389.12v87.35l494.44-27.73S299,440.18,296.17,434.69,592.91,396.58,573.29,395Z"/><path class="cls-14" d="M692.73,398.74C677,403.51,879.08,416,1001.83,421.55V390S708.45,394,692.73,398.74Z"/><path class="cls-14" d="M1001.83,343.58l-308-1L512.45,346S725,368.16,739.81,366.8c12.49-1.14,202.46,3.26,262,4.68Z"/><path class="cls-15" d="M2,2.46V61.09c87.08-2.92,576.33-4.4,718-58.63Z"/><path class="cls-16" d="M1002,324.08V283.67c-62.27.66-298.1,1.79-300.19,3.37-2.41,1.82,169.13,11.52,174.91,12.13s-107,5.46-109.38,7.89C765.33,309.08,943,320.39,1002,324.08Z"/></g></g></svg>