<svg xmlns="http://www.w3.org/2000/svg" xmlns:xlink="http://www.w3.org/1999/xlink" viewBox="0 0 1000 663"><defs><style>.cls-1{mask:url(#mask);filter:url(#luminosity-noclip-2);}.cls-2{mix-blend-mode:multiply;fill:url(#linear-gradient);}.cls-3{isolation:isolate;}.cls-4{fill:#496c7c;}.cls-5{fill:url(#linear-gradient-2);}.cls-6{fill:url(#linear-gradient-3);}.cls-7{fill:url(#linear-gradient-4);}.cls-8{mask:url(#mask-2);}.cls-9{opacity:0.67;mix-blend-mode:overlay;fill:url(#linear-gradient-5);}.cls-10{fill:#3d5577;}.cls-11{fill:#384966;}.cls-12{fill:url(#linear-gradient-6);}.cls-13{fill:#6c81b4;}.cls-14{fill:url(#linear-gradient-7);}.cls-15{fill:url(#linear-gradient-8);}.cls-16{fill:url(#linear-gradient-9);}.cls-17{fill:url(#linear-gradient-10);}.cls-18{fill:#80abc8;}.cls-19{fill:#555899;}.cls-20{fill:#34455e;}.cls-21{fill:#425777;}.cls-22{fill:url(#linear-gradient-11);}.cls-23{fill:url(#linear-gradient-12);}.cls-24{fill:url(#linear-gradient-13);}.cls-25{fill:#57609e;}.cls-26{fill:url(#linear-gradient-14);}.cls-27{fill:url(#linear-gradient-15);}.cls-28{fill:url(#linear-gradient-16);}.cls-29{filter:url(#luminosity-noclip);}</style><filter id="luminosity-noclip" x="383.8" y="-7839" width="389.79" height="32766" filterUnits="userSpaceOnUse" color-interpolation-filters="sRGB"><feFlood flood-color="#fff" result="bg"/><feBlend in="SourceGraphic" in2="bg"/></filter><mask id="mask" x="383.8" y="-7839" width="389.79" height="32766" maskUnits="userSpaceOnUse"><g class="cls-29"/></mask><linearGradient id="linear-gradient" x1="523.93" y1="278.91" x2="591.57" y2="537.21" gradientTransform="matrix(1, 0, 0.29, 1.09, -147.14, -46.98)" gradientUnits="userSpaceOnUse"><stop offset="0" stop-color="#fff"/><stop offset="1"/></linearGradient><linearGradient id="linear-gradient-2" x1="424.28" y1="484.94" x2="395.3" y2="545.91" gradientUnits="userSpaceOnUse"><stop offset="0" stop-color="#6e85b6"/><stop offset="1" stop-color="#524d98"/></linearGradient><linearGradient id="linear-gradient-3" x1="424.28" y1="529.94" x2="395.3" y2="590.91" xlink:href="#linear-gradient-2"/><linearGradient id="linear-gradient-4" x1="424.51" y1="541.83" x2="395.53" y2="602.81" gradientTransform="translate(34.47 -24.4) rotate(3.43)" xlink:href="#linear-gradient-2"/><filter id="luminosity-noclip-2" x="383.8" y="420.51" width="389.79" height="85.77" filterUnits="userSpaceOnUse" color-interpolation-filters="sRGB"><feFlood flood-color="#fff" result="bg"/><feBlend in="SourceGraphic" in2="bg"/></filter><mask id="mask-2" x="383.8" y="420.51" width="389.79" height="85.77" maskUnits="userSpaceOnUse"><g class="cls-1"><path class="cls-2" d="M772.91,487.59a6.68,6.68,0,0,0-1.33-3.13c-1.12-1.29-2.89-2.14-3.85-3.52a11.81,11.81,0,0,1-1.64-4.84,7.26,7.26,0,0,0-4.6-5.76,26.39,26.39,0,0,0-8.84-2.25c-3-.18-6,.16-9,0a13.14,13.14,0,0,1-7.59-2.53c-2-1.38-3.7-2.95-6.33-3.87-3.29-1.14-7.28-1.17-10.79-1.37-2.71-.16-5.4-.36-8.1-.41-2.42-.05-4.56.16-6.4-1.18s-2.91-2.82-5.23-3.68c-2-.76-3.52-.35-5.59-.57-1-.11-2.84-.4-3.4-1-1.06-1.08-1-4-1.17-5.06-.35-2.94,0-5.37-3-8-1-.88-2.11-1.54-3.21-2.34-2-1.46-2.86-3.05-4.2-4.75a13.13,13.13,0,0,0-6.95-4.94c-1.94-.54-4-.71-6-1.11-3.76-.76-6.59-2.59-9.5-4.3a12,12,0,0,0-2.71-1.42,40.38,40.38,0,0,0-5.1-.65,32.92,32.92,0,0,0-4.32-.43c-3.15-.05-6.13.81-9.2,1.08a50.43,50.43,0,0,0-6.09.62,7.74,7.74,0,0,0-3.37,1.24c-1.12,1-.38,2.54-1.36,3.59-.78.82-2.57.87-3.86,1.19a74.26,74.26,0,0,1-8.35,1.62,61.13,61.13,0,0,0-11.17,2.59c-.9.29-1.68.66-2.54,1a26.87,26.87,0,0,1-7.32,1.47c-6.2.58-12.68.33-19,.33-13.24,0-26.48.07-39.73,0-2.63,0-2.93,0-2.68,1.75s.77,3.65,4,3.92c2.29.19,9.61-.82,10.16,1.5.69,2.93-5.4,3.73-8.43,3.86-1.28.05-2.87,0-4.18.11-1.91.2-3.75.73-5.63,1-5.18.76-9.68,2.16-14.7,3.18a37.83,37.83,0,0,1-7.7,1.16c-1.4,0-2.84-.27-4.24-.37-2.42-.16-3.14-.15-3.29,1.41a3.36,3.36,0,0,1-1.2,2.61c-2.44,2.33-7.67,3-11.38,4.1-.57.17-1.58.32-1.83.72a3.89,3.89,0,0,1,.85,1.38c0,.28,0,.56,0,.84-.6,2.66-6.29,2.95-9.48,3.47-4.89.8-10,1.31-15,1.79a94.9,94.9,0,0,0-9.5.93c-1.32.27-2.06.74-3.26,1.08-1,.27-2,.36-3,.62-1.36.35-3.66.82-4.12,1.79-.16.33.3.91.15,1.28-.43,1.14-2.37,1.29-3.43,1.95s.34.66-2.51.93c-2.43.23-4.9-.12-7.28.29a20.21,20.21,0,0,0-3.69,1.22,26.13,26.13,0,0,0-3.21,1c.09,1.1,2.43,1.94,3.62,2.59,1.64.92,4.41,2.26,3.83,3.88-.15.41-.71.77-.65,1.22.09.74,1.35,1.4,2.05,2,2.3,1.83,4.83,3.95,1.45,5.82l-4.95,1.58c-3.18.64-6.35,1.32-9.49,2A138,138,0,0,1,395.18,501c2.34-.2-11.06.06-11.38.69a27.39,27.39,0,0,0,6.9.35l380.8,4.28a14.16,14.16,0,0,0,1.82-1.81,4.77,4.77,0,0,0-.15-2.69,21.39,21.39,0,0,1,.17-6.19A18.72,18.72,0,0,0,772.91,487.59Z"/></g></mask><linearGradient id="linear-gradient-5" x1="523.93" y1="278.91" x2="591.57" y2="537.21" gradientTransform="matrix(1, 0, 0.29, 1.09, -147.14, -46.98)" gradientUnits="userSpaceOnUse"><stop offset="0" stop-color="#fff6de"/><stop offset="1" stop-color="#fcd2bb"/></linearGradient><linearGradient id="linear-gradient-6" x1="385.7" y1="282.89" x2="603.58" y2="822.16" xlink:href="#linear-gradient-2"/><linearGradient id="linear-gradient-7" x1="653.45" y1="252.34" x2="820.87" y2="640.29" xlink:href="#linear-gradient-2"/><linearGradient id="linear-gradient-8" x1="403.5" y1="293.28" x2="803.48" y2="668.91" xlink:href="#linear-gradient-2"/><linearGradient id="linear-gradient-9" x1="614.94" y1="395.82" x2="773.68" y2="593.56" xlink:href="#linear-gradient-2"/><linearGradient id="linear-gradient-10" x1="560.67" y1="459.99" x2="671.53" y2="664.09" xlink:href="#linear-gradient-2"/><linearGradient id="linear-gradient-11" x1="347.57" y1="540.34" x2="394.9" y2="411.79" xlink:href="#linear-gradient-2"/><linearGradient id="linear-gradient-12" x1="326.94" y1="304.06" x2="9.85" y2="621.77" xlink:href="#linear-gradient-2"/><linearGradient id="linear-gradient-13" x1="225.57" y1="413.65" x2="122.62" y2="624.98" xlink:href="#linear-gradient-2"/><linearGradient id="linear-gradient-14" x1="343.19" y1="424.07" x2="226.56" y2="638.02" xlink:href="#linear-gradient-2"/><linearGradient id="linear-gradient-15" x1="691.86" y1="358.68" x2="995.95" y2="747.74" xlink:href="#linear-gradient-2"/><linearGradient id="linear-gradient-16" x1="736.54" y1="311.4" x2="952.17" y2="555.53" xlink:href="#linear-gradient-2"/></defs><g class="cls-3"><g id="vato_be" data-name="vato be"><path class="cls-4" d="M393.61,487.76c-.17-.31-.72-.43-.95-.68s-.36-.73-.71-1a5,5,0,0,0-.77-.69,6.53,6.53,0,0,1-.89-.42,8,8,0,0,0-.73-.57,2.36,2.36,0,0,0-1.22-.54c-.32,0-.54.2-.86.23a2.83,2.83,0,0,0-.58,0c-.12.05-.2.16-.32.2-.47.13-1-.06-1.45.07-.2.05-.29.24-.56.2a1.24,1.24,0,0,1-.51-.2c-.25-.14-.83-.64-1.06-.15a1.59,1.59,0,0,0-.58-.13c-.26,0-.3-.15-.53-.27-.48-.27-1.12.23-1.18-.78-.34,0-.6.57-.61.94l-.6-.14c-.18,0-.27-.14-.44-.19s-.3,0-.44,0-.26-.14-.49-.12c-.44,0-.52-.28-.93-.35-.17,0-.36.08-.53,0s-.39-.33-.55-.5a.87.87,0,0,0-.76-.37,1.68,1.68,0,0,1-.58-.21c-.18-.17-.07-.28-.34-.35a.88.88,0,0,0-1,.34c-.1.22,0,.41-.22.51s-.3-.1-.43-.16c-.14.34-.38.09-.56,0a.74.74,0,0,0-.55-.16,1.09,1.09,0,0,1-.5-.13c-.19-.06-.39,0-.59,0s-.22-.24-.52-.16-.37.24-.62.22-.4-.31-.6-.64-.17-.29-.47-.28c-.5,0-.82-.3-1.29-.33A10.18,10.18,0,0,0,366,481c-.31,0-.38-.07-.45.29s.1.51-.06.68-1-.35-1.17-.43a.65.65,0,0,0-.93.52,4.73,4.73,0,0,0,0,.75l29.94,6.86A2.65,2.65,0,0,0,393.61,487.76Z"/><path class="cls-4" d="M431.27,493.08c-.19-.3-.75-.38-1-.62s-.41-.69-.79-1a5.35,5.35,0,0,0-.81-.63,5.83,5.83,0,0,1-.92-.36c-.27-.17-.48-.38-.76-.52a2.5,2.5,0,0,0-1.26-.45c-.31,0-.53.24-.84.3a2.3,2.3,0,0,0-.58.07c-.11.06-.19.18-.3.22-.46.16-1,0-1.45.17-.19.07-.26.26-.54.24a1.13,1.13,0,0,1-.52-.16c-.26-.13-.88-.58-1.07-.08a1.57,1.57,0,0,0-.58-.08c-.26,0-.32-.13-.55-.24-.5-.24-1.11.31-1.23-.69-.34,0-.57.61-.55,1l-.6-.1c-.19,0-.29-.12-.46-.15s-.29,0-.44,0-.27-.13-.5-.09c-.43.06-.53-.24-.94-.29-.18,0-.36.11-.53.07s-.41-.31-.58-.47a.94.94,0,0,0-.79-.32,1.54,1.54,0,0,1-.59-.17c-.19-.15-.1-.27-.36-.31a.86.86,0,0,0-1,.4c-.09.23,0,.41-.18.52s-.31-.08-.44-.13c-.12.35-.38.12-.57,0a.71.71,0,0,0-.56-.13,1.12,1.12,0,0,1-.5-.09c-.2-.05-.39.07-.59,0s-.24-.22-.53-.12-.35.26-.6.25-.43-.27-.65-.6-.18-.27-.49-.24c-.49.05-.83-.23-1.31-.23a8.25,8.25,0,0,0-1.1.13c-.3,0-.38,0-.43.32s.14.5,0,.68-1-.28-1.19-.34a.65.65,0,0,0-.9.58,4.87,4.87,0,0,0,.07.75L431.12,495A2.69,2.69,0,0,0,431.27,493.08Z"/><path class="cls-5" d="M332.09,475.8c26.6,8.19,77.09,14.11,77.09,14.11S425,494,426.76,493.55s90.6-1.37,90.6-1.37l-31.55,47.31L401.51,545Z"/><path class="cls-6" d="M332.09,520.8c26.6,8.19,77.09,14.11,77.09,14.11S425,539,426.76,538.55s90.6-1.37,90.6-1.37l-31.55,47.31L401.51,590Z"/><path class="cls-7" d="M334.33,527.23c26.06,9.76,76.1,18.69,76.1,18.69s15.5,5,17.33,4.68,90.53,4.06,90.53,4.06L484,600l-84.47.41Z"/><g class="cls-8"><path class="cls-9" d="M772.91,487.59a6.68,6.68,0,0,0-1.33-3.13c-1.12-1.29-2.89-2.14-3.85-3.52a11.81,11.81,0,0,1-1.64-4.84,7.26,7.26,0,0,0-4.6-5.76,26.39,26.39,0,0,0-8.84-2.25c-3-.18-6,.16-9,0a13.14,13.14,0,0,1-7.59-2.53c-2-1.38-3.7-2.95-6.33-3.87-3.29-1.14-7.28-1.17-10.79-1.37-2.71-.16-5.4-.36-8.1-.41-2.42-.05-4.56.16-6.4-1.18s-2.91-2.82-5.23-3.68c-2-.76-3.52-.35-5.59-.57-1-.11-2.84-.4-3.4-1-1.06-1.08-1-4-1.17-5.06-.35-2.94,0-5.37-3-8-1-.88-2.11-1.54-3.21-2.34-2-1.46-2.86-3.05-4.2-4.75a13.13,13.13,0,0,0-6.95-4.94c-1.94-.54-4-.71-6-1.11-3.76-.76-6.59-2.59-9.5-4.3a12,12,0,0,0-2.71-1.42,40.38,40.38,0,0,0-5.1-.65,32.92,32.92,0,0,0-4.32-.43c-3.15-.05-6.13.81-9.2,1.08a50.43,50.43,0,0,0-6.09.62,7.74,7.74,0,0,0-3.37,1.24c-1.12,1-.38,2.54-1.36,3.59-.78.82-2.57.87-3.86,1.19a74.26,74.26,0,0,1-8.35,1.62,61.13,61.13,0,0,0-11.17,2.59c-.9.29-1.68.66-2.54,1a26.87,26.87,0,0,1-7.32,1.47c-6.2.58-12.68.33-19,.33-13.24,0-26.48.07-39.73,0-2.63,0-2.93,0-2.68,1.75s.77,3.65,4,3.92c2.29.19,9.61-.82,10.16,1.5.69,2.93-5.4,3.73-8.43,3.86-1.28.05-2.87,0-4.18.11-1.91.2-3.75.73-5.63,1-5.18.76-9.68,2.16-14.7,3.18a37.83,37.83,0,0,1-7.7,1.16c-1.4,0-2.84-.27-4.24-.37-2.42-.16-3.14-.15-3.29,1.41a3.36,3.36,0,0,1-1.2,2.61c-2.44,2.33-7.67,3-11.38,4.1-.57.17-1.58.32-1.83.72a3.89,3.89,0,0,1,.85,1.38c0,.28,0,.56,0,.84-.6,2.66-6.29,2.95-9.48,3.47-4.89.8-10,1.31-15,1.79a94.9,94.9,0,0,0-9.5.93c-1.32.27-2.06.74-3.26,1.08-1,.27-2,.36-3,.62-1.36.35-3.66.82-4.12,1.79-.16.33.3.91.15,1.28-.43,1.14-2.37,1.29-3.43,1.95s.34.66-2.51.93c-2.43.23-4.9-.12-7.28.29a20.21,20.21,0,0,0-3.69,1.22,26.13,26.13,0,0,0-3.21,1c.09,1.1,2.43,1.94,3.62,2.59,1.64.92,4.41,2.26,3.83,3.88-.15.41-.71.77-.65,1.22.09.74,1.35,1.4,2.05,2,2.3,1.83,4.83,3.95,1.45,5.82l-4.95,1.58c-3.18.64-6.35,1.32-9.49,2A138,138,0,0,1,395.18,501c2.34-.2-11.06.06-11.38.69a27.39,27.39,0,0,0,6.9.35l380.8,4.28a14.16,14.16,0,0,0,1.82-1.81,4.77,4.77,0,0,0-.15-2.69,21.39,21.39,0,0,1,.17-6.19A18.72,18.72,0,0,0,772.91,487.59Z"/></g><path class="cls-10" d="M1000,389.55a16.94,16.94,0,0,0-3.54,10.73c-.22-.73-.74-1.74-1.42-1.82-5.31,1.31-.7,17.08-1.28,24.58-.62,0-.51-.51-1-.78-.11.58-.22,1.51-.41,2.15-.87-2.63-1.31-11.49-4.77-6.41-1.1,1.61-.45,9.41-1,11.82s-1.58,5.1-1.79,7.63c-.37-1.1-1-2.14-1.74-2.1-.47,0-.36.89-.64,1.27-2.7-.2-3.36-2.13-5.66-3.13-3.13-1.37-7.59.2-6.93,4.95-2.48.3-4.06,2.19-3.15,4.54-1.58.42-2.2.42-3.54,1.7-3.54-4.19-11.31-1.36-8.59,4.21-1.82-.06-3.64.27-4.59,1.73-3.63-4-16-.28-13,6.46-4.35.84-3.51,0-6.48-2.21s-8.18-4.09-8.5-1c-1.9-.43-3.56-.12-3.87,1.73-1.68-1.43-4.16-1-4.62,1.46-1.77-.76-3.55-1.77-5.39-1.78a2.82,2.82,0,0,0-2.71,3.57v0c-2.47,1.29-5.61-.52-7.72,1.83a3.15,3.15,0,0,0-4.74-.43c-2.61-3.67-5.82-5.74-10.15-3.26-2.68,1.53-5.1,4-5.79,6.41-1.51-.06-6-1.37-7.18,0-2,2.27,2,7.69,2.88,9.65,0,0,0,0-.06,0L1000,479.76Z"/><path class="cls-11" d="M999.56,392c.17.52.32,1,.44,1.56v-4a11.67,11.67,0,0,0-.87,1.26C999.27,391.21,999.4,391.62,999.56,392Z"/><path class="cls-11" d="M999.93,400.66a14.43,14.43,0,0,1-.68,3.26c-.3.75-.73,1.44-1,2.22-.06.21-.15.41-.21.62a5.74,5.74,0,0,0-.18,1.31c-.06.65-.17,1.29-.21,1.94s0,1.48,0,2.23c0,2.12.29,4.2.2,6.33a37.32,37.32,0,0,0,.28,7.47,16.1,16.1,0,0,1,.33,2.67c0,1-.13,1.89-.21,2.84a8.77,8.77,0,0,1-.24,1.76c-.08.17-.15.35-.23.53-.36.39-.85-.13-1.09-.39a5,5,0,0,1-1-2.45,13.94,13.94,0,0,1-.22-1.92c0-.56-.1-.2-.51-.37-.25-.11-.29-.54-.4-.77a3.22,3.22,0,0,0-.38-.58c-.25.08-.38.49-.47.72s-.17.29-.48.29a7.58,7.58,0,0,0-.47,2.49,9.11,9.11,0,0,1-.25,2.66c-.13.44-.4.8-.56,1.22,0,.07,0,.3-.12.34s-.16-.06-.25-.06-.27,0-.46.2a3.91,3.91,0,0,0-1,1.11c-.21.39-.34.81-.51,1.21a8.74,8.74,0,0,1-.9,1.54c-.17.24-.47.67-.83.58s-.41-.67-.67-.9c-1.16.64-2-.49-2.44-1.53a1.66,1.66,0,0,0,0,.22c-.37-1.1-1-2.14-1.74-2.1-.47,0-.36.89-.64,1.27h0l0,.22a14.29,14.29,0,0,1,.53,2.68,5.2,5.2,0,0,1-.48,2.66,1.26,1.26,0,0,1-1.31.64,5.69,5.69,0,0,1,3.2,1.1,1.07,1.07,0,0,1,.49.5,1.48,1.48,0,0,1,.21.32,8.52,8.52,0,0,1,0,1,9.35,9.35,0,0,1-.11,1.05,2.19,2.19,0,0,1-.81,1.4,2.46,2.46,0,0,1-1.84.28c.19.68.69,1.42.93,2a6.15,6.15,0,0,1,.55,2.3,7.62,7.62,0,0,1-.36,1.82,1.09,1.09,0,0,1-.44.68,4.42,4.42,0,0,0-.76,1,13.08,13.08,0,0,1-1.32,1.47,4.32,4.32,0,0,1-1,1c-.41.19-1-.11-1.36-.27a4.43,4.43,0,0,1-.71-.39l-.15-.12c-.31,0-.34.25-.56.45-.65.59-1.57-.08-2.09-.55-.27-.23-1.06-1.12-.93-1.58,0,.2-.06.25-.21.31a1.56,1.56,0,0,0-.52.11,4.27,4.27,0,0,1-.6.21l-.51.05-.43.1c-.29-.07-.48-.57-.62-.79-.35-.6-.75-1.28-1.5-1.4a2.29,2.29,0,0,0-1.72.6,2.47,2.47,0,0,0-.63,1.63c0,.17,0,.61-.23.72a4.52,4.52,0,0,0-1.47-.66,3.69,3.69,0,0,0-3.13,1,1.31,1.31,0,0,0-.15.93,9.1,9.1,0,0,1-.09,2.21c-.08.34-.27.83-.69.89-.22,0-.29-.07-.45-.21a5.62,5.62,0,0,0-.56.79c-.56.73-1,1.53-1.54,2.28a5.38,5.38,0,0,1-1.74,1.81,5.71,5.71,0,0,1-2.35.48,3.16,3.16,0,0,1-1.69-.31,3,3,0,0,1-1.37-1.5,2.7,2.7,0,0,1-.13-1.09,1,1,0,0,0,0-.38c-.1-.09-.68-.06-.69-.06a8.59,8.59,0,0,1-1.51-.22,2.1,2.1,0,0,1-1.64-1.37c-.1-.45.18-.88-.23-1.19a5.16,5.16,0,0,0-2.4-.51c-1-.08-2.1-.24-2.53-1.24a2.15,2.15,0,0,1-.14-.87c0-.15,0-.18-.06-.28s-.49-.06-.66-.27-.07-.48-.19-.64-.11-.09-.24-.09a10.23,10.23,0,0,0-1.08.2,5.75,5.75,0,0,1-3.57-.78c0,.13.06.25.11.38-4.35.84-3.51,0-6.48-2.21a13.15,13.15,0,0,0-2.33-1.41c2.56,2.4,4.45,4.68,3.91,6.19a3.93,3.93,0,0,1-3.57,2c0,1.47-.44,3.7-2.35,3.51a2.66,2.66,0,0,1-2-1.27,2.13,2.13,0,0,1-.39,1.86,1.77,1.77,0,0,1-2.17.3,8.74,8.74,0,0,1-1.45-.9,10.53,10.53,0,0,0-.91-.86c-1-.42-1.89.93-2.7,1.21a3.52,3.52,0,0,1-3.4-1.06c-.9-.81-1.57-1.88-2.93-1.57-.77.18-1.92.81-2.08,1.67a4.14,4.14,0,0,1,.06.7,8,8,0,0,1-.16,1.09c-.13.71-.17,1.68-1,1.77a6.36,6.36,0,0,0-.84-.28,5.14,5.14,0,0,0-1.11-.18c-1.16-.05-1.66.91-2.66,1.3a4,4,0,0,1-2.59-.12c-.75-.34-1.09-1.15-1.73-1.61s-.9-.18-1.55-.06a7.9,7.9,0,0,1-2.06.06c-1.53-.14-1.75-2.36-3-3a4.57,4.57,0,0,0-2-.19,7.52,7.52,0,0,0-1.34.06,8.89,8.89,0,0,0-1.45.21c-1.32.47-.77,2.39-1.84,3.13-.85.59-2,.15-2.83-.26-.57-.29-1-.76-1.65-.61s-1.38,1-2.2.94c-.49-.05-.69-.49-1-.75a.24.24,0,0,0-.27-.23c-.45,0-.9,0-1.35,0a6.56,6.56,0,0,1-4.85-1.82,7.79,7.79,0,0,1-.89-1.1c-1.78,2.32,2,7.63,2.94,9.56,0,0,0,0-.06,0L1000,479.76V400.21C1000,400.36,1000,400.51,999.93,400.66Z"/><path class="cls-10" d="M872.34,470.31c-.33-2.51.59-6.58-3.3-6a7.5,7.5,0,0,0-4.15-1.41c.36-2.37-1-3.48-3.13-3.05-.67-3-4-5.45-4.17-.9-.46-1.8-.84-2.29-2.5-2.78-.84-6.73-11.36-4.13-8.58.35-3.83-2.79-4,2.05-2.81,4.68-.32-.37-1.3-1.51-1.77-1.36-1.9.62-1.5,3.45-3.52,3.14-.17-.58-.5-1.16-.63-1.74-.83.5-2.76,1.12-3.46,1.78a50.83,50.83,0,0,0,.39-7.33c-2.46-1-5.09,1.06-7.58,1.37-.17-.62-.43-1.59-.91-1.88-2-1.19-3.24,2.42-2.84,4.57-1-1.09-1.24-.69-2.12-1.2a9.65,9.65,0,0,1-.16,1.61c-1.83-1.51-.91-.57-2.61-.48-.28-.13-1-1-1.37-1.26-.76.06-.16.73-.43.83-.5-2.35-2.29-2.8-3.63-.94-.36-1.25-.91-2.22-1.8-2.08-1.17.18-1.22,2-1,3.48A17.42,17.42,0,0,0,809,458a5.66,5.66,0,0,0-1.33,4.58c-.7-3.6-1.83-17.09-5.94-17.73-6.21-1-7.45,14.84-7.13,18.55-1.47-1.81-2.84-1.57-2.8,1-.59-.61-2.08-.93-2.57-1.3,0,.55-.11,1.16-.13,1.71a19.48,19.48,0,0,0-4.38-.46c-.41-2.34-.07-7.3-2.77-8.15-4.69-1.48-7.12,8.23-7.31,11.38a4.18,4.18,0,0,0-.88-1.73c-1.25-1.08-2.79-.12-3.87,1.12-1.08-2.11-4-4.41-6.16-4.23-.79.07-1.24,1.59-.78,2.41a1.14,1.14,0,0,0-1.22-.23,1.46,1.46,0,0,0-.13,2.15c-2.33,0-4.4.88-6.19-.08a4.47,4.47,0,0,0-4,.06,6.87,6.87,0,0,0-.93.5c-1.35-1.46-.75-1.78-2.74-1.37-.4-2.52-.48-5.53-1.72-7.88a.82.82,0,0,0-1.46,0c-1.15,2.54-.43,6.54-.57,9.25-.61-.74-2.3,0-2.2,1-.47-.46-.67-1.09-1.34-1.38s-.68.71-1.36.93c-.53,0-.78-.77-1.25-.91-.45.49.15.56-.54.92-2-4.65,0-11.08-1.6-16.46a1.22,1.22,0,0,0-2.33,0,23.75,23.75,0,0,0-.56,7.25c-.21-.85-.36-1.73-.49-2.62a3.06,3.06,0,0,0-6-.19c-1.42,6.55.86,16.74,1.53,20.63L849.14,484c6,0,16.42-1.88,21.3-5.26C874.8,475.71,872.86,474.3,872.34,470.31Z"/><path class="cls-11" d="M872.34,470.31c-.33-2.51.59-6.58-3.3-6a4.68,4.68,0,0,0-.71-.44,8.14,8.14,0,0,1-.24,1.29,1.68,1.68,0,0,1-.58,1c-.81.46-1.7-.87-2-1.45-.31.16-.38.14-.73,0a2.66,2.66,0,0,0-.91-.2c-.26,0-.16,0-.31.2s-.07.29-.42.25a8.15,8.15,0,0,1-1.5-.45c-.61-.25-1.55-.84-1.62-1.58a1.7,1.7,0,0,1-1.13,1.45,4.54,4.54,0,0,1-1.47.19A3.65,3.65,0,0,1,855,463c-.5.36-.67.26-1.12-.19a6.25,6.25,0,0,1-1.09-1.46c-.19-.35-.22-.59-.62-.55a2.87,2.87,0,0,0-1.35,1,4.19,4.19,0,0,0-.5,1.36,3.31,3.31,0,0,1-.28.8,3.47,3.47,0,0,0-.37.49,4,4,0,0,1-.61,1.13,7.34,7.34,0,0,1-2,1.71,3.55,3.55,0,0,1-2.68.8,4.22,4.22,0,0,1-1.85-1.13c-.42-.35-.46-.15-.92.14a3.33,3.33,0,0,1-2.61.53c-1.4-.34-1.62-1.73-1.59-2.94a7.23,7.23,0,0,1,.5-3,2.72,2.72,0,0,1-.13-.37,2.28,2.28,0,0,0-2.81.62c.89-1.85,1.18-4-.25-5.56a12.38,12.38,0,0,1-1.67,3.28,11.59,11.59,0,0,0-1.29,1.88c-.36.63-1,1.83-1.83,1.64a1.65,1.65,0,0,1-1-.81c-.72,1-1.54,2.43-2.77,2.78-.56.16-2,0-1.76-.94-.29.63-1.38.41-1.84.13a1.28,1.28,0,0,1-.55-.87c-.05-.17-.06-.38-.23-.48-.44.18-.67.63-1.14.79a1.5,1.5,0,0,1-1.37-.23c-.31-.16-.64-.56-1-.61s-.48.19-.68.32c-1.51.95-3.11,2.66-5.05,1.7-.45-.22-1.12-.55-1.25-1.08,0-.15,0-.3,0-.45-.26-.1-.65,0-1-.07a2.17,2.17,0,0,1-1.45-.95,1.83,1.83,0,0,1,.43-2c-.58,0-.84-.56-1-1l-.06-.19a6.35,6.35,0,0,0-.53,3.4c-.42-2.13-1-7.72-2.23-12.06a2.48,2.48,0,0,1-.46,1.31c-.22.25-.47.39-.52.75a6.72,6.72,0,0,0,.16,1,16.74,16.74,0,0,0,.48,1.85,31.89,31.89,0,0,1,1.32,3.35,8.51,8.51,0,0,1-.21,3.72,8.62,8.62,0,0,1-.72,2.53c-.39.76-.76,1.53-1.12,2.3a4.82,4.82,0,0,1-1.46,2.18,2,2,0,0,1-2.28-.22,1.22,1.22,0,0,1,.11.59c-.34.15-.8-.39-1-.58s-.43-.35-.66-.52l-.59-.38c-.33-.48-.17-1.19-1.09-.77a9.58,9.58,0,0,0-1.87,1.29,4.33,4.33,0,0,1-1.86,1.13c-.82.08-1.23-.81-1.58-1.44-.26-.46-.28-.4-.78-.23a7.77,7.77,0,0,1-1.67.28,3.57,3.57,0,0,1-1.08,0c-.15,0-.24-.13-.38-.16-.53-.13-1.12.15-1.35-.6a1.44,1.44,0,0,1,0-.77c.05-.16.18-.24.12-.43-.29,0-.57.16-.87.16a3,3,0,0,1-1.49-.39c-.44-.31-.35-.62-.34-1.12-.13.47-.15.51-.53.72s-.92.22-1.14.53-.08.5-.22.69-.27.19-.37.27c-.41.32-.78.68-1.18,1-1.08.88-2.39.5-3.61.11a3.34,3.34,0,0,1-1.82-1.55,4.92,4.92,0,0,1-.51-1.06,13.6,13.6,0,0,0-.19,1.52,4.43,4.43,0,0,0-.29-.58,2.16,2.16,0,0,1-.17.34c-.19.27-.5.42-.65.71,0,.1-.09.35-.14.47a2.81,2.81,0,0,1-.66,1.09c-.3.29-.87.95-1.3,1s-1-.5-1.3-.79c-.09-.08-.15-.2-.25-.25-.34-.17-.8.06-1.16-.05-.54-.16-.58-.78-.6-1.26,0-.21.08-.39-.13-.52s-.86.13-1.07-.42a5.67,5.67,0,0,1-1,2.6,3.94,3.94,0,0,1-2.85,2.28,2.57,2.57,0,0,1-2.65-1.32,2.28,2.28,0,0,1-.46-1c-.3.16-.39.16-.73-.12s-.29-.45-.66-.12-.71.26-1.18.13a1.24,1.24,0,0,1-.53-.31c-.09-.09-.2-.34-.31-.39-.27-.11-.49.19-.7.34a4.08,4.08,0,0,1-1.06.68,3.78,3.78,0,0,1-2.93-.1,2.44,2.44,0,0,1-1-2.62,3.47,3.47,0,0,0-.33.18c-1.35-1.46-.75-1.78-2.74-1.37-.38-2.43-.49-5.29-1.6-7.6-.06.26-.15.51-.19.78a16.55,16.55,0,0,0,0,4.16,23.57,23.57,0,0,1,.2,4c0,.54,0,1.45-.67,1.57-.33.06-.51-.13-.7.13s-.16.66-.28.92a2,2,0,0,1-.82,1c-1,.55-1.45-.66-1.9-1.27-.74.43-1.15.62-1.85-.1a3.52,3.52,0,0,1-.83-1.71h0c-.53,0-.78-.77-1.25-.91-.45.49.15.56-.54.92-1.94-4.58-.11-10.87-1.54-16.19a12.8,12.8,0,0,0-.81,5.35,35.08,35.08,0,0,1,.54,5c0,.92-.19,1.84-.26,2.76a9.57,9.57,0,0,1-.35,2.51c-.3.87-1,2.27-2,1.28a5.71,5.71,0,0,1-1-3,12.36,12.36,0,0,1-.29-2c-.27.24-.24,1-.72,1a2,2,0,0,0-.75-.74c-.38.56-.1,1.38-.34,2-.44,1.16-1.61.76-2.36.17a6.07,6.07,0,0,1-1.41-1.59c.4,4.84,1.41,9.61,1.82,12L849.14,484c6,0,16.42-1.88,21.3-5.26C874.8,475.71,872.86,474.3,872.34,470.31Z"/><path class="cls-10" d="M673.12,473.12a5.24,5.24,0,0,0,0-.56l58.5,5.52c-1-.22.94-12.07-2.39-14.1-3.08-1.87-6.32,2.3-7.89,4s-2.14,1.65-3.91,1.83a35.09,35.09,0,0,1-3.53.1c-2.13-.49-5.73-3.55-8-1.58a3.24,3.24,0,0,0-3-2.08c-1.13-5-7.3-3.42-5.49.54-1.5-.12-2.81.53-2.74,2.07-1.83-1.5-3.89-.29-6-.8-1.26-.3-2.21-1.84-3.77-.94-1.85-5-7.23-3.16-4.38.6a36.15,36.15,0,0,0-4.3-1.1,4.59,4.59,0,0,0-4.47,1.69.8.8,0,0,0-.19.35,5.09,5.09,0,0,0-2.52-1.3c-3.44-1.56-8-1.58-9.64.82-.61-2.44-2.7-3-4.87-3.32a5.91,5.91,0,0,0-4.77,1.16c-.68.59-3,2.07-3.06,2.72-3.85.18-5.76-2.9-9.55-2.29-.71-3.57-2.93-6.9-6.62-4.65.1.84-.29,2-.19,2.83a15.42,15.42,0,0,1-3.41.64c-.61-3.26-2.76-6.41-6-4.87-2.51-8-9.25,1-8.22,5.71a5.25,5.25,0,0,1-.62.12,2.42,2.42,0,0,0-.7-.29c-.09-.82-.51-1.72-1.45-1.56-.38.07-.89.54-1.26.54s-.37-.16-.53-.55c-.42-.95-.19-1.84-1.34-2.2a6.8,6.8,0,0,0-3.76.23c-.33.09-2.37.71-2.62,1.16s.15.83.14,1.24c-.84.66-2.28-.05-3.15.64-.67.54-.43,1.11-.29,1.74a7.91,7.91,0,0,1-1.07-.25c-.53-.23-.37-.52-.69-.94-1.14-1.48-3.47.44-4.84.29-.69-.07-.79-.78-1.21-1.25-1.08-1.23-2.95-1-4.35-.59s-4.73,1.14-4.93,3.08a2,2,0,0,0-2.39.48c-.21.41,0,.91-.09,1.34-.69-.4-1.1,0-1.68.32-.31.18-.2.25-.58.18a1.25,1.25,0,0,1-.87-.59c-.6-.69-1-.51-1.85-.33a2.25,2.25,0,0,1-2.31-1.07,8.27,8.27,0,0,0-1.36-1.69c-.73-.52-1.17-.38-2-.26a1.85,1.85,0,0,1-1.27-.07c-.56-.31-.71-.94-1.13-1.37a2.42,2.42,0,0,0-4,1.18c-.35,1.33.6,2.45.68,3.7a.92.92,0,0,0-.91-.11c-.2.53.09,1.21-.06,1.76a5.9,5.9,0,0,0-1.14-.2,2.94,2.94,0,0,1-1.07,0c-.53-.25-.6-1-1.15-1.22a2.83,2.83,0,0,0-1.23-.11c-.6,0-.34-.17-.77-.42a1.81,1.81,0,0,0-1.26.08c-.88.4-.42,1.14-.58,1.89-.52.17-1.06-.22-1.32.38s.22,1.25.24,1.82a1.2,1.2,0,0,1-.63,1.13l61.46,9.44c2.11-1.81,4.75-3,6.64-5.08h56.1C676.81,476.26,676,473.63,673.12,473.12Z"/><path class="cls-11" d="M673.12,473.12a5.24,5.24,0,0,0,0-.56l58.5,5.52c-1-.22.94-12.07-2.39-14.1a3.1,3.1,0,0,0-2.4-.38c0,.21,0,.42,0,.61v1.29c0,.76,0,1.53,0,2.29a2.65,2.65,0,0,1-.18,1.37,12.28,12.28,0,0,1-.92,1.26c-.19.28-.34.59-.53.87s-.47.72-.81.86a1.35,1.35,0,0,1-.72,0,.86.86,0,0,1-.29-.28c-.06-.09-.13-.35-.18-.39-.2-.17-.38,0-.63.13-.5.31-.94.67-1.47.94a7,7,0,0,0-1.33,1.1c-.72.63-1.54.48-2.44.49a3.36,3.36,0,0,1-2.52-.61,6.09,6.09,0,0,0-1.21-1.22c-.23-.13-.33-.37-.53-.52-.37-.26-.56.15-.88.23s-.6,0-.87,0a4,4,0,0,0-1,.36,1.75,1.75,0,0,1-1.06.05c-.25-.13-.23-.5-.52-.59-.47-.15-.66.48-1.1.44-.18-.3-.31-.78-.62-1s-1,0-1.3.35-.64,1.1-1.15.65c-.23-.19-.5-1.35-.91-1.13-.18.1-.07.5-.24.63s-.58.05-.78.05a4.41,4.41,0,0,1-2.19-.29,1.83,1.83,0,0,1-.66-.77c-.1-.21-.16-.59-.44-.6s-.45.33-.56.48c-.25.34-.58,1-.93,1.14-.71.33-1.08-.48-1.71-.44s-.75.87-1.32.93a1.81,1.81,0,0,1-.87-.32c-.54-.27-1-.65-1.58-.88a6.56,6.56,0,0,0-1.88-.17,1.9,1.9,0,0,1-.89-.28c-.29-.2-.42-.47-.77-.59-.62-.22-1.25-.39-1.88-.56-.28-.08-.69-.38-1-.36,0,.46.43.84.24,1.35s-1.25.28-1.77.31a4.51,4.51,0,0,1-2.42,0c-.56-.3-1.23-.76-1.9-.56s-.92.95-1.61,1.12a4.33,4.33,0,0,1-2.89-.67c-.28-.15-.32-.24-.62,0-.51.33-1,.92-1.68.77a3.87,3.87,0,0,1-1-.57c-.11-.07-.37-.32-.49-.33s-.3.18-.46.3a2.3,2.3,0,0,1-.83.37,2.16,2.16,0,0,1-1.64-.14,1.68,1.68,0,0,0-1.33-.16,6.47,6.47,0,0,1-2,.39c-.71-.07-1.22-.47-1.95-.46a5.64,5.64,0,0,1-1.69-.11,1.33,1.33,0,0,1,0,.24c0,1.2-1.17,1.42-2.16,1.42A3.06,3.06,0,0,1,657,471.2c-.21-.32-.17-.66-.46-.86s-.72-.31-1-.72-.11-.81-.31-1.18c-.29-.55-.8-.53-1.33-.39-.71.2-1.58.22-2.12.8-.27.3-.45.68-.72,1a7.51,7.51,0,0,1-1.46,1.3,2.24,2.24,0,0,1-2,.33,4.75,4.75,0,0,1-1-.65c-.13-.09-.3-.29-.45-.33s-.26.05-.4.09a3.84,3.84,0,0,1-1,.24,3,3,0,0,1-1.71-.65c-.3-.16-.43,0-.75.13a2.41,2.41,0,0,1-3.32-1c-.21,0-.52.25-.72.34a3.56,3.56,0,0,1-1.44.29c-.65,0-1.21-.19-1.28-.92a6.71,6.71,0,0,0-.9,0,1.86,1.86,0,0,1-1.26-.69,1.3,1.3,0,0,1-.37-1.16,2.82,2.82,0,0,1,.29-.39c-.21-.1-.5,0-.72,0a3.08,3.08,0,0,1-1.94-1.61,5.13,5.13,0,0,1-.43-1,2.46,2.46,0,0,0,0,.47,15.42,15.42,0,0,1-3.41.64,9.67,9.67,0,0,0-1-2.91c0,.1,0,.19,0,.29a8,8,0,0,1,.3,2.17,7.64,7.64,0,0,1-.23,2.93c-.2.42-.46.49-.83.65-.1.81.08,2.23-1.19,2.12-.82-.07-1.37-.8-1.88-1.36-.66.54-1.33-.21-1.77-.59-.68-.6-.45.3-.58.65a3.93,3.93,0,0,0-.68.47,16.06,16.06,0,0,0-1.22,1.11,3.72,3.72,0,0,1-3.39,1c-1-.11-3.28-.32-3-1.75-.11.5-.81.13-1.07,0s-.58-.81-.9-.8-.37.57-.7.63-.81-.33-1-.6c-.55.09-.73,1.34-1.17,1.66a1,1,0,0,1-1.38-.4c-.45.31-.7,1-1.35.83a1.81,1.81,0,0,1-.79-.57c-.15-.18-.2-.52-.38-.67s-.75-.18-1.06-.32-1-1-1.47-1c0,.31,0,.56-.32.77s-.3.09-.42.17c-.47.32-.23,1.13-.64,1.41-.68.47-1.25-.82-1.93-.71-.27,0-.33.24-.48.45a3.92,3.92,0,0,1-1.43,1.4,1.7,1.7,0,0,1-1.74-.07,2.83,2.83,0,0,1-.7-1.49c-.1-.31-.07-.31-.31-.42s-.52-.08-.77-.32-.32-.51-.59-.71a1.56,1.56,0,0,0-.79-.34c-.66-.06-1.08.2-1.2-.58a2.76,2.76,0,0,0-1.34,0c-.2.14-.1.25-.12.45a.79.79,0,0,1-.45.75,2.22,2.22,0,0,1-1.88.31,2.76,2.76,0,0,1-.39-.18c-.32-.15-.22-.14-.47.13s-.53.87-1.14,1a1.47,1.47,0,0,1-1.23-.6c-.4-.4-.54-.3-1.1-.33-1.17-.07-2.87-.74-3.07-1.94,0,0-.06,0-.07.06-.21.41,0,.91-.09,1.34-.69-.4-1.1,0-1.68.32-.31.18-.2.25-.58.18a1,1,0,0,1-.63-.32,4.3,4.3,0,0,1-.18.64c-.17.39-.43,1.14-.88,1.25a1.29,1.29,0,0,1-.91-.32c-.21,0-.16,1-.18,1a.85.85,0,0,1-.61.63,2.71,2.71,0,0,1-1.9-.41c-.16-.09-.41-.41-.61-.35s-.21.24-.31.3a1.7,1.7,0,0,1-1.65-.08,4,4,0,0,1-1-1c-.1-.14-.07-.24-.24-.28s-.11.15-.22.15c-.43,0-.85-.56-1.22-.7a1.15,1.15,0,0,0-.73-.06c-.09.3-.1.62-.2.91s-.3.33-.64.53-.43.44-.67.63a3.73,3.73,0,0,1-1.2.63,2.52,2.52,0,0,1-2-.52c-.43-.35-.92-.15-1.42-.45s-.57-.75-1.06-.84a2.47,2.47,0,0,0-1.05,0c-.21.09-.23.32-.36.47-.32.4-.75.27-1.18.16s-1.16-.46-.69-1c-.19,0-.32-.2-.46-.35a1.87,1.87,0,0,1,0,.47c-.52.17-1.06-.22-1.32.38s.22,1.25.24,1.82a1.2,1.2,0,0,1-.63,1.13l61.46,9.44c2.11-1.81,4.75-3,6.64-5.08h56.1C676.81,476.26,676,473.63,673.12,473.12Z"/><polygon class="cls-12" points="1000 469.59 1000 662 0 662 0 600 0.17 600 0.17 438.65 80.44 444.72 131.15 437.44 139.91 442.29 169.33 438.65 291.4 425.31 342.73 427.13 343.98 435.01 350.24 438.04 359 475.65 364.64 476.26 370.9 497.49 379.03 502.95 400.94 518.11 405.95 526.6 424.1 600 434.12 600 457.91 533.88 454.15 519.93 496.09 487.18 522.38 469.59 536.78 472.01 571.21 473.23 612.52 473.83 671.36 469.59 710.17 470.19 762.76 473.23 800.31 468.37 872.3 470.19 968.7 473.83 1000 469.59"/><polygon class="cls-13" points="489.87 532.22 520.07 539.49 548.92 509.01 560.19 500.37 570.85 473.21 536.78 472.01 522.38 469.59 522.35 469.61 517.82 489.45 472.29 519.48 489.87 532.22"/><polygon class="cls-14" points="805.86 480.88 801.96 509.64 803.16 551.15 813.68 632.93 813.08 643 786.33 640.74 756.28 615.26 763.49 535.74 775.21 477.59 795.35 470.19 805.86 480.88"/><polygon class="cls-15" points="735.54 550.5 740.95 477.65 665.53 471.25 640.58 507.87 635.17 553.6 610.53 620.25 730.73 628 752.37 613.27 735.54 550.5"/><polygon class="cls-13" points="590.84 473.53 579.12 501.28 551.17 512.65 522.32 537.22 547.57 549.96 593.1 563.61 604.37 522.21 620.59 499.46 637.57 477.47 590.84 473.53"/><polygon class="cls-16" points="713 471.25 667.32 472.01 658.01 499.46 658.91 519.93 664.32 534.49 699.48 523.57 718.86 489.91 739.75 474.13 713 471.25"/><polygon class="cls-17" points="619.24 474.44 611.13 474.74 589.19 512.96 573.26 516.9 555.53 543.89 588.89 564.21 593.32 521.52 601.89 505.83 611.73 479.29 619.24 474.44"/><path class="cls-18" d="M606.62,476l31,1.52L667.32,472l44.78.91,31,2.43s15.62-1.21,25.24-1.82l.8-1.12-6.34.82-52.59-3-38.81-.6-58.84,4.24-23-.34Z"/><path class="cls-19" d="M870.33,596.77c.45-3,5.4-8.92,5.4-8.92s4.51-17.84,5.41-30.33,6.31-61.85,5.86-66l44.18-1.78,1.8-8.93-42.82-7.73-33.81,5.36s-2.7,44-2.7,52.93S841.48,623.54,841.48,639h21.88C866.18,622,870,598.65,870.33,596.77Z"/><path class="cls-10" d="M334.68,425.32c-.55-.87-1.58-.69-2.44-.47-.22,0-.82.35-1.05.29a.76.76,0,0,1-.27-.32,1,1,0,0,0-.66-.42,3.66,3.66,0,0,0-2.35.61,1.17,1.17,0,0,0-.48.55.45.45,0,0,0,0-.23,2,2,0,0,0-1.1.05c-.2,0-.51.26-.7.25s-.22-.27-.36-.44a1.36,1.36,0,0,0-.93-.47c-.15,0-.51,0-.63,0s-.24-.45-.34-.56c-.77-.8-2.06-.12-3-.05-.63.05-.53-.6-.79-1.05-.52-.87-1.56-.72-2.42-.61a5.91,5.91,0,0,0-2.82,1.13,2,2,0,0,1-.56.39,5.68,5.68,0,0,1-.59,0,3,3,0,0,0-.82.21,3.6,3.6,0,0,0-1.37.68c-.11.13-.1.33-.27.41-.25-.13-.31-.25-.6-.26a1.36,1.36,0,0,1-.6-.11,1.84,1.84,0,0,0-.57-.2,2.64,2.64,0,0,1-.63,0c-.53-.16-.8-.66-1.36-.73s-.77-.68-1.35-.92c-.28-.12-.57-.1-.78-.26a8,8,0,0,1-.69-1.06,2.43,2.43,0,0,0-2.64-.73c-.39.09-.53.28-.85.37s-.61-.2-1-.26a2.29,2.29,0,0,0-1.67.44,1.24,1.24,0,0,0-.69,1.05,4.1,4.1,0,0,1,0,1.05,4.43,4.43,0,0,1-1,0,5.08,5.08,0,0,0-.78,0c-.18,0-.26.14-.43.17-.47.07-.81-.35-1.25-.34s-.4.38-.4.74a1.71,1.71,0,0,0-.68-1.31,3.85,3.85,0,0,0-3.58-.62,2.24,2.24,0,0,0-.83.35,9.79,9.79,0,0,0-4-2.62c-2.38-.91-6.32-1.88-7,.67a1.81,1.81,0,0,0-1.57,0c-.81.34-.32.87-.76,1.3a9.12,9.12,0,0,0-7.89.78c-3.84-5.29-13.06-1.16-13.87.77,0-1.64-1.11-2.9-2.87-2.36,1-1-.48-2.58-.94-3-2.05-1.76-6.62-1.95-7.22-.24-.94-2.16-4-2.91-5.29-1.82.68-2.09-6.2-5.92-6.59-.71-2.73-.25-3.28,1.28-2.79,2.83h0a4.25,4.25,0,0,0-4.74,1,4.58,4.58,0,0,1-1.19,1.06c-3.79-4.43-6.86,4.47-7,6.13a21.45,21.45,0,0,0,.06,3,2.75,2.75,0,0,0-.93.18c-.28.12-.5.37-.79.48s-.24.18-.36-.06-.07-.44-.19-.65-.54-.92-1-.86a3.52,3.52,0,0,0,.36-2.57,3.8,3.8,0,0,0-3.26-3,8.42,8.42,0,0,0-3.23.32,5.44,5.44,0,0,0-2.1,1c-.34.31-.35.68-.55,1a.51.51,0,0,1-.39-.14,2.58,2.58,0,0,0-1-.2c-.82,0-1.19.7-1.48,1.39a3.62,3.62,0,0,0-.26,2.5c.08.24.43.8.34,1s-.45.2-.61.43-.06.39-.42.47a5.51,5.51,0,0,1-.81,0c-.18,0-.54.08-.7,0-.07-.27-.13-.55-.19-.82a6.78,6.78,0,0,0-.75-1.85,3.61,3.61,0,0,0-5.61-.44c-.26.22-.49.66-.83.69a1.61,1.61,0,0,0-.6-.26,2.18,2.18,0,0,0-.72,0,2.73,2.73,0,0,0-2,.76,6.71,6.71,0,0,0-1.44,2.58c-.08.32,0,.58-.05.89a19,19,0,0,0-2.22.29c-.24.09-.36.2-.6.16s-.55-.23-.85-.27a10.1,10.1,0,0,0-1.1,0c-.45,0-.62.05-.8.46-.41-.05-.68-.55-1.06-.7a1.61,1.61,0,0,0-1.43.27,4.13,4.13,0,0,0-1.63,1.19c-.16.22-.12.43-.21.62s-.59.2-.84.15c-.43-.09-.76-.55-1.17-.74a2,2,0,0,0-.56-.18h-.3a.2.2,0,0,1-.17-.12,2.71,2.71,0,0,0-2.68.89c-1.18,1.3-1,3.56,0,4.93a4.65,4.65,0,0,0,1.06,1.11c.22.17.18.16.49.16l44-4.19a6.35,6.35,0,0,1-.32,1.54l75.73-5.95c0-1.39,0-2.82-.08-4.2l40.57,5.82c.62-.63,1.27-1.21,1.93-1.81,1.13-1,2.69-2.41,2.65-4.12A4.8,4.8,0,0,0,334.68,425.32Z"/><path class="cls-20" d="M334.68,425.32c-.55-.87-1.58-.69-2.44-.47-.22,0-.82.35-1.05.29a.58.58,0,0,1-.14-.17,1.8,1.8,0,0,1-1.22.69c-.55-.05-.89-.75-1.42-.92h0a4.52,4.52,0,0,0-.5.27,1.17,1.17,0,0,0-.48.55.45.45,0,0,0,0-.23,2,2,0,0,0-1.1.05c-.2,0-.51.26-.7.25s-.22-.27-.36-.44a1.1,1.1,0,0,0-.34-.27c-.27.1-.53.24-.87.4a7.39,7.39,0,0,1-4.27.14,13.22,13.22,0,0,0-2.89-.15,11.92,11.92,0,0,1-2.39-.28,6.36,6.36,0,0,0-2.46,0c-.92.27-.8.55-1.76.33a1.59,1.59,0,0,0-1,.08c-1.05.28-2.52.72-3.59.31-.46-.17-.69-.52-1.07-.78a4.07,4.07,0,0,0-1.06-.43c-.9-.35-1.18-1.28-2.13-.9a10.9,10.9,0,0,1-1.32.67,5.8,5.8,0,0,1-1.5.05c-1.21,0-2.18,1.2-3.48.94-.37-.08-.39-.25-.7-.4-.5-.24-1-.19-1.54-.43s-.71-.68-1.2-.66c-.31,0-.69.25-1.06.27a10.31,10.31,0,0,1-2.85-.33c-1.62-.35-3.44.2-5.1-.12-.8-.15-.94-.22-.92-1,0-.46,0-.8.47-1a10.58,10.58,0,0,1-2.25,0c-1.22-.23-1.83-.54-3,.2a8.55,8.55,0,0,0-1.51,1c-.28.28-.35.69-.73.88-.73.38-2-.1-2.83.09-1.14.27-2.08,1-3.27,1.16a21.57,21.57,0,0,0-3.52.43c-1.48.44-2.51,1.51-4.23,1.07-.7-.18-2.82-1.44-2.49-2.3a18.4,18.4,0,0,1-2.08,1.05,2.42,2.42,0,0,1-1.57.39c-1-.16-1.22-1.06-1.93-1.56a6.52,6.52,0,0,0-2-.53,1.38,1.38,0,0,0-1.86.82,5.77,5.77,0,0,1-1.71-.66c-.49-.36-.3-.5-.9-.49a5.38,5.38,0,0,1-1,.58,3.76,3.76,0,0,1-1.48.33,3.47,3.47,0,0,1-2.4-1.24c-.59-.6-.81-1.17-1.5-1.54a7.71,7.71,0,0,0-.88-.36c-1.51-.65-2.59,1.25-4.07,1.57a4.07,4.07,0,0,1-2.89-.35c-.75-.5-.91-.91-1.68-.15s-.84,2.27-1.77,2.93c-.73.53-1.72.29-2.54.32s-.6-.06-1.12.57a3.21,3.21,0,0,1-3.39,1.25c-1.48-.36-2.85-2-1.61-3.36-1.23.18-2.53,0-2.87-1.33a6.43,6.43,0,0,1-.14-1.67,15.44,15.44,0,0,0-2.14,4.65,5.55,5.55,0,0,1,.21,1.23,6.48,6.48,0,0,1-.1,2.49.62.62,0,0,1-.84.36h0a1.8,1.8,0,0,0-.33.1c-.28.12-.5.37-.79.48s-.24.18-.36-.06a1.29,1.29,0,0,1-.06-.21,2.7,2.7,0,0,1-.3.45,2.42,2.42,0,0,1-2.14.84,2.13,2.13,0,0,1-.85-.24,1.19,1.19,0,0,1-.34-.33c-.56-.07-.46.1-.82.55-.9,1.15-2.31.12-3.17-.73s-1.81-2.87-2.48-.8c-.14.42,0,1.18-.43,1.49-.26.19-.79,0-1.1.07-.1.34.16,1.15-.22,1.34s-.26-.08-.6-.13c-.69-.09-.87.14-1.45.29a2.93,2.93,0,0,1-3.24-.91.67.67,0,0,0-.55.55,2.23,2.23,0,0,1-1.2.92,4,4,0,0,1-2.73.33,2,2,0,0,1-1.51-2.09c0-.3.11-.56,0-.85-.56.52-.91,1.25-1.75,1.45-.3.08-.64-.1-1,0-.86.27-.64,1.16-1.14,1.62-.28.26-.47.07-.84.23-.15.07-.48.53-.71.64a6.09,6.09,0,0,1-1.48.47c-.56,0-.65-.23-1.19-.39s-.43-.1-.87.28a7.1,7.1,0,0,1-.95.77,4.62,4.62,0,0,1-2.05.62,1.82,1.82,0,0,0-1.21.52,4.55,4.55,0,0,1-4.52.11,1.33,1.33,0,0,1-.78-1.82c.13-.33.44-.5.5-.88-.44-.15-.94-.25-1.43-.38a3.05,3.05,0,0,0-.55.48c-1.18,1.3-1,3.56,0,4.93a4.65,4.65,0,0,0,1.06,1.11c.22.17.18.16.49.16l44-4.19a6.35,6.35,0,0,1-.32,1.54l75.73-5.95c0-1.39,0-2.82-.08-4.2l40.57,5.82c.62-.63,1.27-1.21,1.93-1.81,1.13-1,2.69-2.41,2.65-4.12A4.8,4.8,0,0,0,334.68,425.32Z"/><path class="cls-10" d="M164.59,434.34c.42-4.65-13-4-11.07-.44-1.73-1.64-5.35-.88-7.36.79-3.56-3.64-11.06,1.14-14.11-1.08a6.65,6.65,0,0,0-7.06-.84l-.9.47a7.34,7.34,0,0,0-4.5-2.65c3.09-5.38-11.53-4.68-12.55,1.43-2.89-4.29-6.8-1.56-6.77,1.58a2.72,2.72,0,0,0-.54.28,2.54,2.54,0,0,1-3.93-1.72c-.42-2.2-2-3.65-6.81-2.81-3.26-2.35-8.46.11-11.09,2.19.73-3.9-.05-6.53-3.05-9-1.25-1-5-1.75-7.12-1.45-.7-4-6-3.86-7.84-2.19-1.87-2.51-6-2.51-8.17-.15-3-5.94-14.91-.11-16.62,4,0-3.25-2.36-6.06-5.65-5.8a17.08,17.08,0,0,0-5.84,1.46,4,4,0,0,0-5.25-1.35c-1.56-2.17-8.12-4.82-8-.6C8.21,410.85,8.49,400.36.17,397.69v48L155.84,449c9.69.91,16.45-5.91,16.76-9.1C169.35,437.57,170,435,164.59,434.34Z"/><path class="cls-20" d="M167.06,434.89a8.5,8.5,0,0,1-3.07,3.25,4.87,4.87,0,0,1-4,.17c-.67-.27-1.08-.68-1.67-1a5.8,5.8,0,0,0-2.41-.21,8,8,0,0,1-1.8-.31,27.06,27.06,0,0,0-4.41,0c-.55,0-1.1-.05-1.65,0a6.23,6.23,0,0,0-2.7,1.21c-1.56,1-3.36,1.82-5.15,1.37a6.48,6.48,0,0,0-2.34-.09,6.8,6.8,0,0,1-2.8.21c-.64-.21-.67-.8-1.15-1.07s-.43-.08-.81-.11c-1-.09-2.08.06-3.13,0a11.9,11.9,0,0,1-4.31-1.08c-1-.58-.39-1.38,0-2.31s.85-1.78,1.15-2.74a5.8,5.8,0,0,0-1.76.59l-.9.47a7.34,7.34,0,0,0-4.5-2.65c3.09-5.38-11.53-4.68-12.55,1.43-2.89-4.29-6.8-1.56-6.77,1.58a2.72,2.72,0,0,0-.54.28,2.54,2.54,0,0,1-3.93-1.72c-.42-2.2-2-3.65-6.81-2.81-3.26-2.35-8.46.11-11.09,2.19.73-3.9-.05-6.53-3.05-9-1-.78-3.33-1.38-5.36-1.49a14.15,14.15,0,0,1-2.33,5,2.81,2.81,0,0,1-2.36,1.12c-.24,0-.53-.13-.76-.06-.75.25-1.3,1.57-1.93,2.11a3.61,3.61,0,0,1-3.35.78c-.74-.18-1.56-.65-2.34-.44s-1.47,1.53-2,2.12A3.74,3.74,0,0,1,50.48,433,6,6,0,0,1,48,431.33a1.87,1.87,0,0,0-2.45-.22c-1.38,1.06-2.24,2.39-4,2.88a4.24,4.24,0,0,1-3.91-.8c-.64-.44-1.18-1-2-.93-1.29.14-2.58,1.47-3.8,1.92a5.94,5.94,0,0,1-4.77-.57,13.05,13.05,0,0,1-2.22-1.38c-.23-.17-.45-.46-.74-.53a2.43,2.43,0,0,0-1.21.13,5.9,5.9,0,0,1-6.52-2.63c-.38-.63-.78-1.86-1.44-2.1a15.34,15.34,0,0,0-3.26-.32c-1.63-.17-3.41-.35-4.29-1.94A7.37,7.37,0,0,1,6.77,421a4.25,4.25,0,0,0-.58-2.77c-.77-1.19-1.66-1.81-1.73-3.35s.58-2.28,1.13-3.51c.34-.74.39-1.15-.3-1.66-.94-.7-2-.87-2.15-2.28S4,405,4.5,403.94a20.41,20.41,0,0,1,1.07-2.08l0,0a10.94,10.94,0,0,0-1.91-2.17l-.08,0A9.28,9.28,0,0,1,2,398.46a10.27,10.27,0,0,0-1.78-.77v48L155.84,449c9.69.91,16.45-5.91,16.76-9.1C170,438,169.86,435.94,167.06,434.89Z"/><path class="cls-21" d="M376,497.66a3.5,3.5,0,0,0-1.9-1.49,1.8,1.8,0,0,0-.64,0,.38.38,0,0,0,0-.21c-.11-.24-.39-.36-.53-.6s0-.33-.12-.46-.25-.12-.41-.15c-.09-.36.05-.55-.35-.76s-.46-.06-.45-.59a2.54,2.54,0,0,0-.09-.68,6.17,6.17,0,0,1,.09-1.48,1.24,1.24,0,0,0-.12-.81c-.2-.25-.83-.39-1.12-.5a5.68,5.68,0,0,0-3.75-.18,1.12,1.12,0,0,0-.76,1.15c0,.14,0,.3,0,.44,0,.41.21.74.23,1.15l9.36,9.78a2,2,0,0,0,.58-.74,9.26,9.26,0,0,0,.3-1.15A3.22,3.22,0,0,0,376,497.66Z"/><path class="cls-21" d="M406.24,516.63a6.37,6.37,0,0,0-1.53-2.83c-.3-.29-.64-.49-.93-.79s-.3-.5-.58-.58-.42.08-.58,0c-.36-.15-.18-.62-.24-1-.15-.89-.61-2.41-1.5-2.83-.41-.19-.78-.12-.76.39-.42-.06-.4-.7-.75-.88a1.08,1.08,0,0,0-.75,0c0,.13-.05.25-.07.38a3.09,3.09,0,0,1-1.86-.08c-.23-.18-.37-.95-.83-.82-.29.08-.19.44-.38.65-.22-.33-.05-.95-.27-1.37a10.17,10.17,0,0,1-.51-1.29.23.23,0,0,0-.16.14c.07-1.33-.81-3.24-2.34-2.6s-.52,2.42-.87,3.55c-.88-.06-.19,1.95-.42,2.45-.5,1.11-1.23-.89-1.4-1.27-.51,0-.29.61-.57.86a9.57,9.57,0,0,1-.17-1.73c-.15-.84-.4-1.65-.55-2.49s-.7-4.25-2.45-3.36c-.82.42-.88,3.08-.91,3.49a31.8,31.8,0,0,0,0,4.88,13.43,13.43,0,0,1,.2,2.62,2.5,2.5,0,0,1,.05.29,2.06,2.06,0,0,1-1.21.67l21,9.32v.17a3.21,3.21,0,0,1,.46-.88,8,8,0,0,0,.57-1.43A5.62,5.62,0,0,0,406.24,516.63Z"/><path class="cls-13" d="M340.66,511.44s3.91,28.51,3.91,29.42l40,10.31,23-18.18L406,526.6l-5-8.49L379,503l-8.13-5.46-6.26-21.23-5.64-.61L350.24,438,344,435l-1.25-7.88-.37,0,5.21,47.63-1.2,23.66Z"/><polygon class="cls-22" points="359 475.65 358.78 474.71 357.79 488.77 367.7 520.84 361.17 478.31 364.64 476.26 359 475.65"/><polygon class="cls-13" points="330.06 430.31 333.19 427.12 291.4 425.31 287.17 442.37 293.48 450.16 306.7 484.29 311.21 519.53 328.04 534 325.33 500.24 333.14 466.11 330.06 430.31"/><polygon class="cls-19" points="94 661 258 663 152 607 102.65 529.33 100.54 498.1 90.93 478.08 81.04 444.63 80.44 444.72 0.17 438.65 0.17 600 76.9 600 94 661"/><polyline class="cls-23" points="157 662 90.93 532.97 72.29 521.45 47.65 503.86 26.01 459.58 0.17 443.8 0 662"/><polygon class="cls-24" points="132.38 441.5 135.4 454.43 159.44 496.2 175.97 500.8 197.61 525.33 214.14 545.26 235.48 556.75 233.37 522.26 214.14 483.17 170.26 442.04 169.33 442.17 139.91 446.77 132.38 441.5"/><polygon class="cls-25" points="303.69 529.64 303.47 477.9 292.88 440.83 293.75 425.41 291.4 425.31 260.97 429.51 285.66 449.45 298.74 480.78 288.07 518.05 260.12 520.35 237.28 488.16 228.87 464.01 201.82 446.29 185.55 439.93 169.33 442.17 141.78 446.47 160.35 474.17 191.9 490.84 206.33 504.06 224.36 549.47 271.24 585.11 296.03 583.96 317.67 565.57 334.8 573.62 303.69 529.64"/><polygon class="cls-26" points="262.45 527.34 277.32 527.05 289.27 531.08 296.93 539.99 307.07 546.02 326.23 572.18 292.2 590 269.21 561.83 262.67 549.19 248.93 539.99 233.15 508.95 238.56 508.66 262.45 527.34"/><polygon class="cls-27" points="801.81 468.52 792.34 522.66 805.86 598.79 822.09 592.11 825.7 522.66 836.52 490.36 856.35 474.89 801.81 468.52"/><polygon class="cls-28" points="1000 658 1000 481.75 969.04 488.48 960.56 521.03 952.89 583.41 946.43 622.74 936.74 643.08 929.68 658 1000 658"/><path class="cls-18" d="M872.3,470.19l-72-1.82-37.55,4.86-2-.12,14,3.6,21.19-5s8.56,5.91,9.91,6.37,18,3.18,21.64,1.82,16.68-4.1,16.68-4.1l12.17-.91s-1.8,3.64.45,3.64,22.09-.91,22.09-.91l37.87.91,4.35,3.64-34,5,32.38,1.36s48.86-1.54,80.54,0V469.59l-31.3,4.24Z"/></g></g></svg>