<svg xmlns="http://www.w3.org/2000/svg" viewBox="0 0 1000 600"><defs><style>.cls-1{fill:#496d91;}.cls-2{fill:#384966;}.cls-3{fill:#31425b;}.cls-4{fill:#425c7c;}.cls-5{fill:#5b90a5;}.cls-6{fill:#2e3e54;}</style></defs><g id="hazo_left" data-name="hazo left"><path class="cls-1" d="M781.18,396.37c7.6-31.09,14.77-60.23,14.77-60.23l17.13-90.08-1.81-118.28-9.91,31.84L790,196.31c.12,8,.26,13.86.42,16.6,1.22,20.47-8.51,116-8.51,148.76C781.91,368.67,781.63,380.92,781.18,396.37Z"/><path class="cls-2" d="M831.11,249.7c-.9-55.5-10.82-130.11-12.62-141s-5.41-88.25-5.41-88.25,18,100.08,19.83,103.72S831.11,249.7,831.11,249.7Z"/><path class="cls-2" d="M810.37,488.09c-.9-31.85-2.7-117.38-2.7-117.38l-4.51-166.5s9,119.19,11.72,127.38S840.12,429,840.12,429Z"/><path class="cls-2" d="M855.75,398.62c.6-6.68,8.41-52.17,8.41-55.2s-2.4-30.94-2.4-30.94l-15-37.61-9,27.91Z"/><path class="cls-2" d="M889.41,109.89,872,129.3l-9.62,21.83-12.62,8.49v64.91c2.4-9.71,9.62-47.92,9.62-47.92L866,155.38l11.42-27.3,13.82-15.16Z"/><polygon class="cls-2" points="897.22 147.49 888.21 141.43 870.78 138.4 870.17 144.46 885.8 144.46 897.82 152.35 897.22 147.49"/><polygon class="cls-3" points="851.54 360.4 858.15 340.38 858.75 316.73 843.13 305.2 838.32 323.4 851.54 360.4"/><path class="cls-3" d="M845.53,512.05c-1.2-24.87-8.41-81.29-8.41-81.29l-.6-95.23,6,54.59Z"/><path class="cls-2" d="M935.09,509c-4.21-37.6-9-140.12-9-140.12l8.42,51Z"/><path class="cls-3" d="M943.5,529c-4.21-22.44-6-65.51-6-65.51L947.71,358s-3,94-2.4,104.33S943.5,529,943.5,529Z"/><path class="cls-2" d="M986.78,318.55,976,328.25l.6-15.16L982,304l-2.41-3.64-6,12.13-1.2,15.77-13.22,11.53-7.21,9.1,1.2,38.21c1.2-10.92,9-43.67,9-43.67L979,327.65l9.62-5.46Z"/><path class="cls-4" d="M912.25,356.61,910.44,383s8.12,23.2,8.57,25l5-61.87Z"/><path class="cls-5" d="M789.64,116l-18-15.77-16.22-6.07-12-20-1.21-19.41-6-1.22,3.61,21.84,8.41,17-.6,6.07-11.42-.61-21.63,8.5,1.2,4.85,21-9.71,30.66,4.86L784.83,122s9.19,19.58,11.09,27.39Z"/><path class="cls-5" d="M795.92,149.41l.33,1.72A12.38,12.38,0,0,0,795.92,149.41Z"/><polygon class="cls-1" points="785.13 217.4 768 209.21 767.1 216.04 781.97 225.59 792.34 246.52 795.04 226.04 785.13 217.4"/><path class="cls-4" d="M852.44,266.14C851.22,241.57,864.6,0,864.6,0H789.21s0,192.44,1.21,212.91-8.51,116-8.51,148.76-6.08,180.16-7.6,235.81l91.51,1.67S853.66,290.7,852.44,266.14Z"/><path class="cls-2" d="M849.14,255.62l2.7,28.66c1.81-5.92,7.67-17.29,7.67-17.29l.9-12.74Z"/><path class="cls-2" d="M852.44,266.14C851.22,241.57,864.6,0,864.6,0h-29l-.91,72.28-12.62,96.44,2.71,113.74-7.22,131-18,69.15-22.34,29.21c-1.23,34-2.36,65.71-2.9,85.64l91.51,1.67S853.66,290.7,852.44,266.14Z"/><path class="cls-5" d="M810.68,0H789.21s-3.47,49.1-3.29,102.25c.05,15.26,3.57,34.12,3.66,48.23l8.47-78.81Z"/><polygon class="cls-2" points="977.61 111.4 967.69 117.77 969.05 104.58 964.09 105.03 964.09 120.5 954.62 136.42 955.07 172.36 960.48 135.97 969.5 120.05 978.51 115.5 977.61 111.4"/><path class="cls-2" d="M922.82,266.14C923.94,241.57,922.53,0,922.53,0H959.3s-4.08,192.44-5.1,212.91,1.69,116,1,148.76-.86,180.16-1.29,235.81l-44.67,1.67S921.71,290.7,922.82,266.14Z"/><polygon class="cls-4" points="926.67 269.42 917.66 245.15 900.83 228.17 882.8 231.2 883.4 227.56 901.43 225.74 906.84 223.31 896.02 204.51 899.63 203.3 911.65 223.92 913.45 232.41 927.27 248.19 926.67 269.42"/><path class="cls-4" d="M941.52,0h-19s1.41,241.57.29,266.14c-.58,13-4.34,105.18-7.76,189.29l18.22-38.62c.44-55.66-1.2-153.46-1.2-153.46s5.46-128.24,6.49-148.71C939.09,104.37,940.37,50.82,941.52,0Z"/><path class="cls-1" d="M922.53,0s.34,58.13.55,120.26L927,80.47,933.89,25l.38-25Z"/><path class="cls-6" d="M46.55,545s-3.53,17.27,9.56,25.9L56.44,559C51.41,551.25,46.55,545,46.55,545Z"/><path class="cls-6" d="M47.47,532.54s-2.89,10.77,5.05,16.74l.67-7.48C50.3,536.68,47.47,532.54,47.47,532.54Z"/><path class="cls-4" d="M50.81,599.6H133.3l-6.47-218.11L120.36,165.9,126.83,0h-59s-4.85,118.74-4.85,145.69S67.79,313.28,67,336,60.51,479.68,50.81,599.6Z"/><path class="cls-1" d="M126.83,381.49,121,188.5l-4-10.68-8.41-34L113.47,284s4.61,55.44,14.18,125.31Z"/><path class="cls-5" d="M116.17,34.52s1.35,45,.9,58.23c-.27,7.87.43,35.17,3.42,69.72L126.83,0H110.47Z"/><path class="cls-2" d="M90.66,323.67,95,364.34c12.43-85,10.82-172.42,10.82-172.42S100.72,297.32,90.66,323.67Z"/><path class="cls-2" d="M111.66,343.42A1208.2,1208.2,0,0,1,104,501.28l10.82,5C122.48,410.75,111.66,343.42,111.66,343.42Z"/><path class="cls-2" d="M69.29,363.43C65.23,358,58.47,343,59.82,337.5s10.82-53.68,10.82-53.68l10.82,33.67Z"/><path class="cls-2" d="M113.47,479c-.91-8.19-10.82-58.23-12.63-77.34s-2.7-162.87-2.7-162.87L99.49,89.11c0-26.25,2.86-56.93,6.76-89.11H67.79s-4.85,118.74-4.85,145.69S67.79,313.27,67,336,60.51,479.68,50.81,599.6H133.3l-2.39-80.48C122.61,500.88,114,483.49,113.47,479Z"/><path class="cls-5" d="M200,91.69l-15,6.67-34.86,7.89-31.86,17,1.81,15.16c3.6-4.85,31.25-27.9,31.25-27.9l35.46-10.92,16.83-6.06Z"/><polygon class="cls-5" points="168.01 78.19 156.29 94.11 150.13 106.25 155.39 107.31 158.99 94.57 172.52 79.1 168.01 78.19"/><path class="cls-2" d="M67.49,104.12c-.91-1.36-10.37-15-10.37-15L40.44,77.74l-15.33-.91L14.29,78.19l-.45-3.64H26.92L42.24,75,54,81.83l15.78,5.92Z"/><polygon class="cls-2" points="32.93 62.88 30.07 63.63 40.89 76.37 47.65 79.56 32.93 62.88"/><path class="cls-3" d="M80.11,152.35c1.35-33.21,2.25-61.87,3.6-83.26C84.49,56.78,88.86,24.87,92.42,0H79.64C80.3,14.68,81,30.84,81.46,39.07c.9,17.28-3.61,61-3.61,61Z"/><path class="cls-3" d="M82.81,364.34c-4-5.45-15.78-25-15.78-25s1.36-19.56,7.22-19.56,9.46,10.46,9.46,10.46Z"/><path class="cls-3" d="M90.63,367.07,85.82,401l-3.61,78.88s.6,37.39.6,61.93l6.61-74.2C90,460,90.63,367.07,90.63,367.07Z"/></g></svg>