<svg xmlns="http://www.w3.org/2000/svg" xmlns:xlink="http://www.w3.org/1999/xlink" viewBox="0 0 1000 600"><defs><style>.cls-1{mask:url(#mask);filter:url(#luminosity-noclip-2);}.cls-2{mix-blend-mode:multiply;fill:url(#radial-gradient);}.cls-3{isolation:isolate;}.cls-4{mask:url(#mask-2);}.cls-5{mix-blend-mode:soft-light;fill:url(#radial-gradient-2);}.cls-6{fill:#effdff;mix-blend-mode:overlay;}.cls-7{filter:url(#luminosity-noclip);}</style><filter id="luminosity-noclip" x="414.69" y="-7186" width="268.33" height="32766" filterUnits="userSpaceOnUse" color-interpolation-filters="sRGB"><feFlood flood-color="#fff" result="bg"/><feBlend in="SourceGraphic" in2="bg"/></filter><mask id="mask" x="414.69" y="-7186" width="268.33" height="32766" maskUnits="userSpaceOnUse"><g class="cls-7"/></mask><radialGradient id="radial-gradient" cx="-96.82" cy="-711.04" r="18.23" gradientTransform="translate(1168.07 4882.18) scale(6.4 6.66)" gradientUnits="userSpaceOnUse"><stop offset="0" stop-color="#fff"/><stop offset="0.11" stop-color="#dcdcdc"/><stop offset="0.36" stop-color="#8f8f8f"/><stop offset="0.58" stop-color="#515151"/><stop offset="0.77" stop-color="#252525"/><stop offset="0.91" stop-color="#0a0a0a"/><stop offset="1"/></radialGradient><filter id="luminosity-noclip-2" x="414.69" y="4.69" width="268.33" height="279.56" filterUnits="userSpaceOnUse" color-interpolation-filters="sRGB"><feFlood flood-color="#fff" result="bg"/><feBlend in="SourceGraphic" in2="bg"/></filter><mask id="mask-2" x="414.69" y="4.69" width="268.33" height="279.56" maskUnits="userSpaceOnUse"><g class="cls-1"><ellipse class="cls-2" cx="548.86" cy="144.47" rx="134.17" ry="139.78"/></g></mask><radialGradient id="radial-gradient-2" cx="-96.82" cy="-711.04" r="18.23" gradientTransform="translate(1168.07 4882.18) scale(6.4 6.66)" gradientUnits="userSpaceOnUse"><stop offset="0" stop-color="#fff"/><stop offset="0.07" stop-color="#feffff"/><stop offset="1" stop-color="#f4feff"/></radialGradient></defs><g class="cls-3"><g id="Lune"><g class="cls-4"><ellipse class="cls-5" cx="548.86" cy="144.47" rx="134.17" ry="139.78"/></g><path class="cls-6" d="M539.55,101.27A53.9,53.9,0,0,0,492,129.94a53.83,53.83,0,0,1,13.58-1.74c29.81,0,54,24.39,54,54.47a54.6,54.6,0,0,1-6.43,25.79,54.39,54.39,0,0,0,40.39-52.72C593.52,125.66,569.35,101.27,539.55,101.27Z"/></g></g></svg>