<svg xmlns="http://www.w3.org/2000/svg" viewBox="0 0 1000 600"><defs><style>.cls-1{isolation:isolate;}.cls-2{opacity:0.6;}.cls-2,.cls-4{mix-blend-mode:overlay;}.cls-3{opacity:0.36;}.cls-4,.cls-5{fill:#effdff;}.cls-4{opacity:0.46;}</style></defs><g class="cls-1"><g id="kintana"><g class="cls-2"><g class="cls-3"><path class="cls-4" d="M652.07,212.3a3.88,3.88,0,1,0-3.88,3.92A3.91,3.91,0,0,0,652.07,212.3Z"/><path class="cls-5" d="M650.19,212.3a2,2,0,1,0-2,2A2,2,0,0,0,650.19,212.3Z"/></g><g class="cls-3"><path class="cls-4" d="M349.14,30.33a3.88,3.88,0,1,0-3.88,3.91A3.89,3.89,0,0,0,349.14,30.33Z"/><path class="cls-5" d="M347.27,30.33a2,2,0,1,0-2,2A2,2,0,0,0,347.27,30.33Z"/></g><path class="cls-4" d="M778.2,48.52A2.44,2.44,0,1,0,775.76,51,2.45,2.45,0,0,0,778.2,48.52Z"/><path class="cls-5" d="M777,48.52a1.26,1.26,0,1,0-1.26,1.27A1.26,1.26,0,0,0,777,48.52Z"/><path class="cls-4" d="M740.53,238.76a2,2,0,1,0-2,2A2,2,0,0,0,740.53,238.76Z"/><path class="cls-5" d="M739.56,238.76a1,1,0,1,0-1,1.06A1,1,0,0,0,739.56,238.76Z"/><path class="cls-4" d="M557.25,123.09a2,2,0,1,0-2,2A2,2,0,0,0,557.25,123.09Z"/><path class="cls-5" d="M556.27,123.09a1,1,0,1,0-1,1A1,1,0,0,0,556.27,123.09Z"/><path class="cls-4" d="M262.3,72.28a2,2,0,1,0-2,2A2,2,0,0,0,262.3,72.28Z"/><path class="cls-5" d="M261.32,72.28a1,1,0,1,0-1,1A1,1,0,0,0,261.32,72.28Z"/><path class="cls-4" d="M448.92,56.81a2,2,0,1,0-2,2A2,2,0,0,0,448.92,56.81Z"/><path class="cls-5" d="M447.94,56.81a1,1,0,1,0-1,1A1,1,0,0,0,447.94,56.81Z"/><path class="cls-4" d="M235.39,127a2,2,0,1,0-2,2A2,2,0,0,0,235.39,127Z"/><path class="cls-5" d="M234.42,127a1,1,0,1,0-1,1A1,1,0,0,0,234.42,127Z"/><path class="cls-4" d="M701.35,159.53a3.88,3.88,0,1,0-3.88,3.91A3.89,3.89,0,0,0,701.35,159.53Z"/><path class="cls-5" d="M699.48,159.53a2,2,0,1,0-2,2A2,2,0,0,0,699.48,159.53Z"/><g class="cls-3"><path class="cls-4" d="M888.88,182.37a3.88,3.88,0,1,0-3.88,3.92A3.91,3.91,0,0,0,888.88,182.37Z"/><path class="cls-5" d="M887,182.37a2,2,0,1,0-2,2A2,2,0,0,0,887,182.37Z"/></g><g class="cls-3"><path class="cls-4" d="M703.36,19.51a3.88,3.88,0,1,0-3.88,3.91A3.9,3.9,0,0,0,703.36,19.51Z"/><path class="cls-5" d="M701.49,19.51a2,2,0,1,0-2,2A2,2,0,0,0,701.49,19.51Z"/></g><path class="cls-4" d="M990.06,29.72a3.89,3.89,0,1,0-3.88,3.92A3.91,3.91,0,0,0,990.06,29.72Z"/><path class="cls-5" d="M988.18,29.72a2,2,0,1,0-2,2A2,2,0,0,0,988.18,29.72Z"/><g class="cls-3"><path class="cls-4" d="M908.92,280.43a3.89,3.89,0,1,0-3.88,3.92A3.91,3.91,0,0,0,908.92,280.43Z"/><path class="cls-5" d="M907,280.43a2,2,0,1,0-2,2A2,2,0,0,0,907,280.43Z"/></g><path class="cls-4" d="M983.54,373.44a3.88,3.88,0,1,0-3.88,3.92A3.9,3.9,0,0,0,983.54,373.44Z"/><path class="cls-5" d="M981.67,373.44a2,2,0,1,0-2,2A2,2,0,0,0,981.67,373.44Z"/><path class="cls-4" d="M571.45,416.09a3.88,3.88,0,0,0-4.93,2.44,3.93,3.93,0,0,0,2.43,5,3.87,3.87,0,0,0,4.92-2.44A3.92,3.92,0,0,0,571.45,416.09Z"/><path class="cls-5" d="M570.85,417.88a2,2,0,0,0-2.55,1.26,2,2,0,0,0,1.25,2.57,2,2,0,0,0,2.55-1.26A2,2,0,0,0,570.85,417.88Z"/><path class="cls-4" d="M388.14,230.62a3.87,3.87,0,0,0-4.92,2.45,3.92,3.92,0,0,0,2.42,5,3.88,3.88,0,0,0,4.93-2.45A3.93,3.93,0,0,0,388.14,230.62Z"/><path class="cls-5" d="M387.54,232.41a2,2,0,0,0-2.55,1.27,2,2,0,0,0,1.26,2.57,2,2,0,0,0,2.54-1.27A2,2,0,0,0,387.54,232.41Z"/><path class="cls-4" d="M179.63,185.94a3.88,3.88,0,0,0-4.93,2.45,3.93,3.93,0,0,0,2.43,5,3.87,3.87,0,0,0,4.92-2.45A3.92,3.92,0,0,0,179.63,185.94Z"/><path class="cls-5" d="M179,187.73a2,2,0,0,0-2.54,1.27,2,2,0,1,0,2.54-1.27Z"/><path class="cls-4" d="M624.75,340.08a2,2,0,1,0,1.26,2.58A2,2,0,0,0,624.75,340.08Z"/><path class="cls-5" d="M624.43,341a1,1,0,1,0,.65,1.33A1,1,0,0,0,624.43,341Z"/><path class="cls-4" d="M540.1,452a2,2,0,1,0,1.26,2.58A2,2,0,0,0,540.1,452Z"/><path class="cls-5" d="M539.79,453a1,1,0,1,0,.65,1.34A1.06,1.06,0,0,0,539.79,453Z"/><path class="cls-4" d="M375.2,462.84a2,2,0,0,0-2.56,1.27,2.05,2.05,0,0,0,1.26,2.59,2,2,0,0,0,1.3-3.86Z"/><path class="cls-5" d="M374.89,463.77a1,1,0,1,0,.65,1.34A1.06,1.06,0,0,0,374.89,463.77Z"/><path class="cls-4" d="M453,259.26a2,2,0,1,0,1.26,2.59A2.06,2.06,0,0,0,453,259.26Z"/><path class="cls-5" d="M452.7,260.19a1,1,0,0,0-1.32.66,1.06,1.06,0,0,0,.65,1.34,1,1,0,0,0,1.32-.66A1.05,1.05,0,0,0,452.7,260.19Z"/><path class="cls-4" d="M304.91,185.08a2,2,0,0,0-2.56,1.27,2,2,0,0,0,1.26,2.58,2,2,0,0,0,2.56-1.27A2,2,0,0,0,304.91,185.08Z"/><path class="cls-5" d="M304.6,186a1.05,1.05,0,1,0,.65,1.34A1.07,1.07,0,0,0,304.6,186Z"/><path class="cls-4" d="M545.73,345.37a2.79,2.79,0,0,0-3.54,1.76,2.83,2.83,0,0,0,1.75,3.57,2.78,2.78,0,0,0,3.53-1.76A2.81,2.81,0,0,0,545.73,345.37Z"/><path class="cls-5" d="M545.3,346.66a1.43,1.43,0,0,0-1.83.91,1.44,1.44,0,1,0,2.73.94A1.47,1.47,0,0,0,545.3,346.66Z"/><path class="cls-4" d="M496.16,231.1a2.79,2.79,0,0,0-3.54,1.76,2.83,2.83,0,0,0,1.75,3.57,2.78,2.78,0,0,0,3.53-1.76A2.81,2.81,0,0,0,496.16,231.1Z"/><path class="cls-5" d="M495.73,232.39a1.43,1.43,0,0,0-1.83.91,1.44,1.44,0,1,0,1.83-.91Z"/><path class="cls-4" d="M580.91,280.26a2.81,2.81,0,1,0,1.74,3.57A2.82,2.82,0,0,0,580.91,280.26Z"/><path class="cls-5" d="M580.47,281.55a1.44,1.44,0,0,0-1.83.91,1.46,1.46,0,0,0,.91,1.84,1.43,1.43,0,0,0,1.82-.91A1.44,1.44,0,0,0,580.47,281.55Z"/><path class="cls-4" d="M385,85.62a2,2,0,1,0,1.77,2.26A2,2,0,0,0,385,85.62Z"/><path class="cls-5" d="M384.87,86.59a1.05,1.05,0,1,0,.91,1.17A1,1,0,0,0,384.87,86.59Z"/><path class="cls-4" d="M308.8,107.45a2.81,2.81,0,1,0,2.44,3.12A2.79,2.79,0,0,0,308.8,107.45Z"/><path class="cls-5" d="M308.64,108.8a1.44,1.44,0,0,0-1.6,1.27,1.45,1.45,0,1,0,2.87.34A1.45,1.45,0,0,0,308.64,108.8Z"/><g class="cls-3"><path class="cls-4" d="M387.07,344a2.79,2.79,0,0,0-3.54,1.76,2.83,2.83,0,0,0,1.75,3.57,2.77,2.77,0,0,0,3.53-1.76A2.81,2.81,0,0,0,387.07,344Z"/><path class="cls-5" d="M386.64,345.24a1.45,1.45,0,1,0,.9,1.84A1.44,1.44,0,0,0,386.64,345.24Z"/></g><path class="cls-4" d="M353.71,304.8a2.78,2.78,0,0,0-3.53,1.76,2.79,2.79,0,1,0,3.53-1.76Z"/><path class="cls-5" d="M353.28,306.09a1.44,1.44,0,0,0-1.83.91,1.46,1.46,0,0,0,.9,1.84,1.43,1.43,0,0,0,1.83-.91A1.45,1.45,0,0,0,353.28,306.09Z"/><path class="cls-4" d="M708.71,389a1.91,1.91,0,1,0,1.19,2.42A1.92,1.92,0,0,0,708.71,389Z"/><path class="cls-5" d="M708.42,389.82a1,1,0,0,0-1.24.62,1,1,0,0,0,.61,1.25,1,1,0,0,0,1.24-.62A1,1,0,0,0,708.42,389.82Z"/><path class="cls-4" d="M779.71,237.12a3.86,3.86,0,0,0-5.26,1.59A3.94,3.94,0,0,0,776,244a3.87,3.87,0,0,0,5.26-1.6A3.93,3.93,0,0,0,779.71,237.12Z"/><path class="cls-5" d="M778.82,238.78a2,2,0,0,0-2.72.83,2,2,0,0,0,.81,2.74,2,2,0,0,0,2.72-.82A2,2,0,0,0,778.82,238.78Z"/><path class="cls-4" d="M910,66.86a2,2,0,0,0-2.74.83,2.06,2.06,0,0,0,.82,2.76,2,2,0,0,0,2.73-.83A2,2,0,0,0,910,66.86Z"/><path class="cls-5" d="M909.54,67.73a1,1,0,0,0-1.41.43,1.06,1.06,0,0,0,.42,1.42,1,1,0,0,0,1.42-.43A1.05,1.05,0,0,0,909.54,67.73Z"/><path class="cls-4" d="M757,168.3a3.87,3.87,0,0,0-5.26,1.59,3.94,3.94,0,0,0,1.58,5.31,3.87,3.87,0,0,0,5.26-1.59A3.94,3.94,0,0,0,757,168.3Z"/><path class="cls-5" d="M756.15,170a2,2,0,0,0-2.72.82,2,2,0,0,0,.82,2.74,2,2,0,0,0,2.72-.82A2,2,0,0,0,756.15,170Z"/><path class="cls-4" d="M506.63,15.18a3.86,3.86,0,0,0-5.25,1.59A3.93,3.93,0,0,0,503,22.08a3.87,3.87,0,0,0,5.26-1.59A3.94,3.94,0,0,0,506.63,15.18Z"/><path class="cls-5" d="M505.74,16.85a2,2,0,0,0-2.71.82,2,2,0,0,0,.81,2.75,2,2,0,0,0,2.72-.83A2,2,0,0,0,505.74,16.85Z"/><path class="cls-4" d="M879.85,423.35a3.93,3.93,0,0,0-.2,5.53,3.85,3.85,0,0,0,5.49.2,3.93,3.93,0,0,0,.2-5.53A3.85,3.85,0,0,0,879.85,423.35Z"/><path class="cls-5" d="M881.13,424.73a2,2,0,0,0-.1,2.86,2,2,0,0,0,2.83.11,2,2,0,0,0,.11-2.86A2,2,0,0,0,881.13,424.73Z"/><path class="cls-4" d="M878.22,322a2,2,0,0,0-.1,2.87A2,2,0,0,0,881,325a2.06,2.06,0,0,0,.1-2.88A2,2,0,0,0,878.22,322Z"/><path class="cls-5" d="M878.89,322.71a1,1,0,1,0,1.42,1.54,1.07,1.07,0,0,0,.05-1.49A1,1,0,0,0,878.89,322.71Z"/><path class="cls-4" d="M686.76,423.25a2.82,2.82,0,0,0-.14,4,2.78,2.78,0,0,0,3.94.15,2.83,2.83,0,0,0,.14-4A2.77,2.77,0,0,0,686.76,423.25Z"/><path class="cls-5" d="M687.68,424.24a1.46,1.46,0,0,0-.07,2.06,1.43,1.43,0,0,0,2,.07,1.46,1.46,0,0,0,.08-2.06A1.44,1.44,0,0,0,687.68,424.24Z"/><path class="cls-4" d="M960.67,270.55a1.92,1.92,0,0,0-.1,2.7,1.88,1.88,0,0,0,2.68.1,1.93,1.93,0,0,0,.1-2.7A1.89,1.89,0,0,0,960.67,270.55Z"/><path class="cls-5" d="M961.29,271.23a1,1,0,0,0,0,1.39,1,1,0,0,0,1.39.05,1,1,0,0,0,0-1.39A1,1,0,0,0,961.29,271.23Z"/><path class="cls-4" d="M982.18,173.69a1.93,1.93,0,0,0-.1,2.7,1.88,1.88,0,0,0,2.68.1,1.92,1.92,0,0,0,.1-2.7A1.89,1.89,0,0,0,982.18,173.69Z"/><path class="cls-5" d="M982.8,174.37a1,1,0,0,0,0,1.4,1,1,0,0,0,1.39,0,1,1,0,0,0,.05-1.4A1,1,0,0,0,982.8,174.37Z"/><path class="cls-4" d="M890.46,31a1.92,1.92,0,0,0-.1,2.7,1.89,1.89,0,0,0,2.68.1,1.92,1.92,0,0,0,.09-2.7A1.88,1.88,0,0,0,890.46,31Z"/><path class="cls-5" d="M891.08,31.71A1,1,0,0,0,891,33.1a1,1,0,0,0,1.38,0,1,1,0,0,0,.05-1.39A1,1,0,0,0,891.08,31.71Z"/><g class="cls-3"><path class="cls-4" d="M372.2,147.48a2,2,0,0,0-.87,2.74,2,2,0,0,0,2.71.88,2,2,0,0,0,.87-2.74A2,2,0,0,0,372.2,147.48Z"/><path class="cls-5" d="M372.64,148.35a1.07,1.07,0,0,0-.45,1.42,1,1,0,0,0,1.41.45,1.05,1.05,0,0,0-1-1.87Z"/></g><path class="cls-4" d="M465.35,120.46a1.92,1.92,0,0,0-.81,2.58,1.89,1.89,0,0,0,2.55.82,1.91,1.91,0,0,0,.81-2.57A1.89,1.89,0,0,0,465.35,120.46Z"/><path class="cls-5" d="M465.77,121.28a1,1,0,0,0-.42,1.33,1,1,0,0,0,1.32.43,1,1,0,0,0,.42-1.33A1,1,0,0,0,465.77,121.28Z"/><path class="cls-4" d="M230.84,362.09a3.87,3.87,0,0,0-5.48-.42,4,4,0,0,0-.4,5.53,3.85,3.85,0,0,0,5.47.41A3.93,3.93,0,0,0,230.84,362.09Z"/><path class="cls-5" d="M229.42,363.32a2,2,0,0,0-2.83-.21,2,2,0,0,0-.21,2.85,2,2,0,0,0,2.83.22A2,2,0,0,0,229.42,363.32Z"/><g class="cls-3"><path class="cls-4" d="M34,177.37a3.86,3.86,0,0,0-5.48-.41,3.94,3.94,0,0,0-.41,5.52,3.86,3.86,0,0,0,5.48.41A4,4,0,0,0,34,177.37Z"/><path class="cls-5" d="M32.54,178.6a2,2,0,0,0-2.84-.21,2,2,0,0,0-.21,2.86,2,2,0,0,0,2.83.21A2,2,0,0,0,32.54,178.6Z"/></g><path class="cls-4" d="M150.38,389.58a3.85,3.85,0,0,0-5.47-.41,3.94,3.94,0,0,0-.41,5.53,3.87,3.87,0,0,0,5.48.41A4,4,0,0,0,150.38,389.58Z"/><path class="cls-5" d="M149,390.82a2,2,0,0,0-2.83-.22,2,2,0,0,0-.21,2.86,2,2,0,0,0,2.83.21A2,2,0,0,0,149,390.82Z"/><g class="cls-3"><path class="cls-4" d="M151.28,278.58a3.84,3.84,0,0,0-5.47-.41,3.94,3.94,0,0,0-.41,5.52,3.86,3.86,0,0,0,5.48.41A3.94,3.94,0,0,0,151.28,278.58Z"/><path class="cls-5" d="M149.86,279.81a2,2,0,0,0-2.83-.21,2,2,0,0,0-.21,2.86,2,2,0,0,0,2.83.21A2,2,0,0,0,149.86,279.81Z"/></g><path class="cls-4" d="M315,323.86a2,2,0,0,0-2.84-.21,2,2,0,0,0-.21,2.87,2,2,0,0,0,2.84.22A2.06,2.06,0,0,0,315,323.86Z"/><path class="cls-5" d="M314.23,324.51a1,1,0,0,0-1.47-.11,1.06,1.06,0,0,0-.11,1.48,1,1,0,1,0,1.58-1.37Z"/><path class="cls-4" d="M26,320.36a2,2,0,0,0-2.84-.21A2,2,0,0,0,22.9,323a2,2,0,0,0,2.85.22A2.06,2.06,0,0,0,26,320.36Z"/><path class="cls-5" d="M25.22,321a1,1,0,0,0-1.47-.11,1.06,1.06,0,0,0-.11,1.48,1,1,0,0,0,1.47.11A1,1,0,0,0,25.22,321Z"/><path class="cls-4" d="M362.77,409a1.88,1.88,0,0,0-2.67-.2,1.93,1.93,0,0,0-.2,2.7,1.88,1.88,0,0,0,2.67.2A1.92,1.92,0,0,0,362.77,409Z"/><path class="cls-5" d="M362.08,409.57a1,1,0,0,0-1.38-.11,1,1,0,0,0-.1,1.39A1,1,0,0,0,362,411,1,1,0,0,0,362.08,409.57Z"/><path class="cls-4" d="M242.07,256.67a1.91,1.91,0,1,0,1.18,2.43A1.92,1.92,0,0,0,242.07,256.67Z"/><path class="cls-5" d="M241.78,257.55a1,1,0,0,0-1.25.61,1,1,0,0,0,.62,1.26,1,1,0,0,0,.63-1.87Z"/><path class="cls-4" d="M494.09,360.07a3.15,3.15,0,0,0-1.94,4,3.11,3.11,0,0,0,4,2,3.17,3.17,0,0,0,1.95-4A3.13,3.13,0,0,0,494.09,360.07Z"/><path class="cls-5" d="M494.58,361.51a1.64,1.64,0,0,0-1,2.07,1.62,1.62,0,1,0,1-2.07Z"/><g class="cls-3"><path class="cls-4" d="M755.27,300.4a3.17,3.17,0,0,0-1.95,4,3.11,3.11,0,0,0,4,2,3.14,3.14,0,0,0,1.94-4A3.11,3.11,0,0,0,755.27,300.4Z"/><path class="cls-5" d="M755.76,301.84a1.63,1.63,0,0,0-1,2.07,1.6,1.6,0,0,0,2,1,1.64,1.64,0,0,0,1-2.06A1.62,1.62,0,0,0,755.76,301.84Z"/></g><path class="cls-4" d="M492.5,406.12a2.27,2.27,0,0,0-1.4,2.87,2.23,2.23,0,0,0,2.84,1.42,2.27,2.27,0,0,0,1.4-2.88A2.24,2.24,0,0,0,492.5,406.12Z"/><path class="cls-5" d="M492.85,407.16a1.17,1.17,0,1,0,1.47.73A1.15,1.15,0,0,0,492.85,407.16Z"/><path class="cls-4" d="M443.51,315a1.64,1.64,0,0,0,.78,2.17,1.62,1.62,0,0,0,2.16-.78,1.65,1.65,0,0,0-.78-2.18A1.62,1.62,0,0,0,443.51,315Z"/><path class="cls-5" d="M444.22,315.34a.84.84,0,1,0,1.12-.41A.85.85,0,0,0,444.22,315.34Z"/><path class="cls-4" d="M413.71,449a1.54,1.54,0,0,0-.95,1.95,1.52,1.52,0,0,0,1.94.95,1.54,1.54,0,0,0,.95-1.95A1.52,1.52,0,0,0,413.71,449Z"/><path class="cls-5" d="M414,449.7a.79.79,0,1,0,1,.49A.8.8,0,0,0,414,449.7Z"/><path class="cls-4" d="M593.7,448.58a1.54,1.54,0,0,0-1,1.95,1.52,1.52,0,1,0,1-1.95Z"/><path class="cls-5" d="M593.94,449.28a.79.79,0,1,0,1,.49A.8.8,0,0,0,593.94,449.28Z"/><path class="cls-4" d="M41.92,386.78a1.89,1.89,0,0,0-2.4,1.2,1.92,1.92,0,0,0,1.19,2.42,1.89,1.89,0,0,0,2.4-1.19A1.93,1.93,0,0,0,41.92,386.78Z"/><path class="cls-5" d="M41.63,387.66a1,1,0,0,0-1.24.61,1,1,0,0,0,.61,1.26,1,1,0,0,0,.63-1.87Z"/><g class="cls-3"><path class="cls-4" d="M44.07,221.48a1.89,1.89,0,0,0-2.4,1.19,1.92,1.92,0,0,0,1.18,2.43,1.89,1.89,0,0,0,2.4-1.2A1.91,1.91,0,0,0,44.07,221.48Z"/><path class="cls-5" d="M43.77,222.35a1,1,0,0,0-1.24.62,1,1,0,1,0,1.24-.62Z"/></g><path class="cls-4" d="M181.38,41.38A1.9,1.9,0,0,0,179,42.57,1.93,1.93,0,0,0,180.16,45a1.91,1.91,0,0,0,1.22-3.62Z"/><path class="cls-5" d="M181.08,42.25a1,1,0,1,0,.61,1.26A1,1,0,0,0,181.08,42.25Z"/><path class="cls-4" d="M36.51,31.94a1.89,1.89,0,0,0-2.4,1.19,1.92,1.92,0,0,0,1.19,2.42,1.89,1.89,0,0,0,2.4-1.19A1.92,1.92,0,0,0,36.51,31.94Z"/><path class="cls-5" d="M36.22,32.81a1,1,0,0,0-1.24.62,1,1,0,0,0,.61,1.25,1,1,0,0,0,1.24-.62A1,1,0,0,0,36.22,32.81Z"/><path class="cls-4" d="M606.44,56.6a3.88,3.88,0,1,0-3.88,3.92A3.89,3.89,0,0,0,606.44,56.6Z"/><path class="cls-5" d="M604.57,56.6a2,2,0,1,0-2,2A2,2,0,0,0,604.57,56.6Z"/></g></g></g></svg>