<svg xmlns="http://www.w3.org/2000/svg" viewBox="0 0 1000 600"><defs><style>.cls-1{fill:#496d91;}.cls-2{fill:#384966;}.cls-3{fill:#31425b;}.cls-4{fill:#425c7c;}.cls-5{fill:#5b90a5;}</style></defs><g id="hazo_left" data-name="hazo left"><path class="cls-1" d="M781.18,396.37c7.6-31.09,14.77-60.23,14.77-60.23l17.13-90.08-1.81-118.28-9.91,31.84L790,196.31c.12,8,.26,13.86.42,16.6,1.22,20.47-8.51,116-8.51,148.76C781.91,368.67,781.63,380.92,781.18,396.37Z"/><path class="cls-2" d="M831.11,249.7c-.9-55.5-10.82-130.11-12.62-141s-5.41-88.25-5.41-88.25,18,100.08,19.83,103.72S831.11,249.7,831.11,249.7Z"/><path class="cls-2" d="M810.37,488.09c-.9-31.85-2.7-117.38-2.7-117.38l-4.51-166.5s9,119.19,11.72,127.38S840.12,429,840.12,429Z"/><path class="cls-2" d="M855.75,398.62c.6-6.68,8.41-52.17,8.41-55.2s-2.4-30.94-2.4-30.94l-15-37.61-9,27.91Z"/><path class="cls-2" d="M889.41,109.89,872,129.3l-9.62,21.83-12.62,8.49v64.91c2.4-9.71,9.62-47.92,9.62-47.92L866,155.38l11.42-27.3,13.82-15.16Z"/><polygon class="cls-2" points="897.22 147.49 888.21 141.43 870.78 138.4 870.17 144.46 885.8 144.46 897.82 152.35 897.22 147.49"/><polygon class="cls-3" points="851.54 360.4 858.15 340.38 858.75 316.73 843.13 305.2 838.32 323.4 851.54 360.4"/><path class="cls-3" d="M845.53,512.05c-1.2-24.87-8.41-81.29-8.41-81.29l-.6-95.23,6,54.59Z"/><path class="cls-2" d="M935.09,509c-4.21-37.6-9-140.12-9-140.12l8.42,51Z"/><path class="cls-3" d="M943.5,529c-4.21-22.44-6-65.51-6-65.51L947.71,358s-3,94-2.4,104.33S943.5,529,943.5,529Z"/><path class="cls-2" d="M986.78,318.55,976,328.25l.6-15.16L982,304l-2.41-3.64-6,12.13-1.2,15.77-13.22,11.53-7.21,9.1,1.2,38.21c1.2-10.92,9-43.67,9-43.67L979,327.65l9.62-5.46Z"/><path class="cls-4" d="M912.25,356.61,910.44,383s8.12,23.2,8.57,25l5-61.87Z"/><path class="cls-5" d="M789.64,116l-18-15.77-16.22-6.07-12-20-1.21-19.41-6-1.22,3.61,21.84,8.41,17-.6,6.07-11.42-.61-21.63,8.5,1.2,4.85,21-9.71,30.66,4.86L784.83,122s9.19,19.58,11.09,27.39Z"/><path class="cls-5" d="M795.92,149.41l.33,1.72A12.38,12.38,0,0,0,795.92,149.41Z"/><polygon class="cls-1" points="785.13 217.4 768 209.21 767.1 216.04 781.97 225.59 792.34 246.52 795.04 226.04 785.13 217.4"/><path class="cls-4" d="M852.44,266.14C851.22,241.57,864.6,0,864.6,0H789.21s0,192.44,1.21,212.91-8.51,116-8.51,148.76-6.08,180.16-7.6,235.81l91.51,1.67S853.66,290.7,852.44,266.14Z"/><path class="cls-2" d="M849.14,255.62l2.7,28.66c1.81-5.92,7.67-17.29,7.67-17.29l.9-12.74Z"/><path class="cls-2" d="M852.44,266.14C851.22,241.57,864.6,0,864.6,0h-29l-.91,72.28-12.62,96.44,2.71,113.74-7.22,131-18,69.15-22.34,29.21c-1.23,34-2.36,65.71-2.9,85.64l91.51,1.67S853.66,290.7,852.44,266.14Z"/><path class="cls-5" d="M810.68,0H789.21s-3.47,49.1-3.29,102.25c.05,15.26,3.57,34.12,3.66,48.23l8.47-78.81Z"/><polygon class="cls-2" points="977.61 111.4 967.69 117.77 969.05 104.58 964.09 105.03 964.09 120.5 954.62 136.42 955.07 172.36 960.48 135.97 969.5 120.05 978.51 115.5 977.61 111.4"/><path class="cls-2" d="M922.82,266.14C923.94,241.57,922.53,0,922.53,0H959.3s-4.08,192.44-5.1,212.91,1.69,116,1,148.76-.86,180.16-1.29,235.81l-44.67,1.67S921.71,290.7,922.82,266.14Z"/><polygon class="cls-4" points="926.67 269.42 917.66 245.15 900.83 228.17 882.8 231.2 883.4 227.56 901.43 225.74 906.84 223.31 896.02 204.51 899.63 203.3 911.65 223.92 913.45 232.41 927.27 248.19 926.67 269.42"/><path class="cls-4" d="M941.52,0h-19s1.41,241.57.29,266.14c-.58,13-4.34,105.18-7.76,189.29l18.22-38.62c.44-55.66-1.2-153.46-1.2-153.46s5.46-128.24,6.49-148.71C939.09,104.37,940.37,50.82,941.52,0Z"/><path class="cls-1" d="M922.53,0s.34,58.13.55,120.26L927,80.47,933.89,25l.38-25Z"/></g></svg>